<?xml version="1.0" encoding="UTF-8" standalone="no"?>
<!-- Created with Inkscape (http://www.inkscape.org/) -->

<svg
   xmlns:dc="http://purl.org/dc/elements/1.1/"
   xmlns:cc="http://creativecommons.org/ns#"
   xmlns:rdf="http://www.w3.org/1999/02/22-rdf-syntax-ns#"
   xmlns:svg="http://www.w3.org/2000/svg"
   xmlns="http://www.w3.org/2000/svg"
   xmlns:sodipodi="http://sodipodi.sourceforge.net/DTD/sodipodi-0.dtd"
   xmlns:inkscape="http://www.inkscape.org/namespaces/inkscape"
   width="210mm"
   height="297mm"
   viewBox="0 0 744.09448819 1052.3622047"
   id="svg2"
   version="1.1"
   inkscape:version="0.91 r13725"
   sodipodi:docname="data.svg">
  <defs
     id="defs4" />
  <sodipodi:namedview
     id="base"
     pagecolor="#ffffff"
     bordercolor="#666666"
     borderopacity="1.0"
     inkscape:pageopacity="0.0"
     inkscape:pageshadow="2"
     inkscape:zoom="0.35"
     inkscape:cx="-19.314967"
     inkscape:cy="565.77406"
     inkscape:document-units="px"
     inkscape:current-layer="layer1"
     showgrid="false"
     inkscape:window-width="1366"
     inkscape:window-height="710"
     inkscape:window-x="0"
     inkscape:window-y="0"
     inkscape:window-maximized="1" />
  <metadata
     id="metadata7">
    <rdf:RDF>
      <cc:Work
         rdf:about="">
        <dc:format>image/svg+xml</dc:format>
        <dc:type
           rdf:resource="http://purl.org/dc/dcmitype/StillImage" />
        <dc:title></dc:title>
      </cc:Work>
    </rdf:RDF>
  </metadata>
  <g
     inkscape:label="Capa 1"
     inkscape:groupmode="layer"
     id="layer1">
    <path
       style="fill:#800000"
       d="m 289.70534,749.99407 c -50.43335,-3.30878 -93.56958,-17.86233 -114.56238,-38.65176 -5.13083,-5.08112 -8.64901,-10.195 -11.35152,-16.50012 -1.21054,-2.8243 -1.37216,-5.26367 -1.5754,-23.77846 -0.12457,-11.34721 -0.12947,-22.83429 -0.011,-25.52686 l 0.21558,-4.89557 3.11797,6.2943 c 2.58923,5.2269 4.24962,7.43001 9.79113,12.99141 12.16359,12.20729 29.18909,21.40063 52.32054,28.2518 51.20038,15.16476 115.57095,15.16476 166.77132,0 23.13145,-6.85117 40.15695,-16.04451 52.32055,-28.2518 5.54149,-5.5614 7.20189,-7.76451 9.79112,-12.99141 l 3.11798,-6.2943 0.21557,4.89557 c 0.11856,2.69257 0.11365,14.17965 -0.0111,25.52686 -0.24997,22.77049 -0.14585,22.16186 -5.30448,31.00632 -7.02166,12.03861 -26.16979,25.10035 -49.35287,33.66563 -31.07077,11.47948 -75.06453,16.9108 -115.49329,14.25839 z m -1.74841,-68.86991 c -35.97927,-3.06978 -64.01653,-9.89678 -87.07109,-21.20163 -20.66898,-10.13505 -33.72129,-22.72428 -37.70553,-36.36779 -0.91606,-3.13691 -1.10929,-7.91857 -1.10929,-27.45012 0,-13.00834 0.23604,-23.64112 0.52452,-23.62843 0.28849,0.0128 1.87647,2.86188 3.52884,6.3315 7.52882,15.80895 28.07685,29.73481 58.17911,39.4293 14.72942,4.74363 29.60506,7.846 51.06485,10.64975 13.6168,1.77903 57.71855,1.77903 71.33534,0 21.46916,-2.80496 36.35068,-5.9092 51.06485,-10.65193 30.50361,-9.83207 50.43094,-23.39274 58.24954,-39.63917 1.61364,-3.35299 3.16992,-6.10675 3.45841,-6.11945 0.28848,-0.0126 0.52452,10.62009 0.52452,23.62843 0,19.53155 -0.19323,24.31321 -1.10928,27.45012 -7.91135,27.09135 -50.88045,48.86438 -111.13898,56.31567 -8.62617,1.06667 -51.4618,1.96481 -59.79581,1.25375 z m 4.54588,-68.5368 c -39.90849,-3.12133 -67.41999,-9.61093 -91.77543,-21.64859 -16.44443,-8.12765 -27.7668,-17.35516 -33.73248,-27.49132 -4.81348,-8.1785 -4.96588,-9.34724 -4.75838,-36.48941 l 0.18418,-24.09187 2.58534,5.28792 c 6.41933,13.12979 18.25592,23.48683 37.08779,32.45187 23.98601,11.41871 52.95045,18.16325 88.54136,20.61739 54.2039,3.73759 112.39247,-7.80593 143.42192,-28.45222 11.17765,-7.43735 18.36275,-15.10972 22.9616,-24.51874 l 2.63261,-5.38622 0.18418,24.09187 c 0.20751,27.14217 0.0551,28.31091 -4.75838,36.48941 -5.96567,10.13616 -17.28804,19.36367 -33.73247,27.49132 -20.95618,10.35758 -45.97681,16.99422 -76.73906,20.35478 -9.59798,1.04851 -44.24038,1.90875 -52.10278,1.29381 z m 10.49049,-68.61591 c -56.20011,-1.26425 -106.88494,-17.13486 -128.85878,-40.34871 -12.91623,-13.64509 -15.44612,-27.19613 -7.7966,-41.76153 3.45693,-6.58236 14.44202,-17.26042 23.39039,-22.73665 31.82965,-19.47915 82.27137,-29.7281 135.16513,-27.46338 43.97195,1.8827 81.19771,11.3973 107.45027,27.46338 8.94837,5.47623 19.93346,16.15429 23.39039,22.73665 7.64952,14.5654 5.11963,28.11644 -7.7966,41.76153 -11.57125,12.22424 -33.51486,23.73079 -57.96741,30.39633 -26.12162,7.12052 -56.8023,10.63118 -86.97679,9.95238 z"
       id="path3347"
       inkscape:connector-curvature="0" />
    <text
       xml:space="preserve"
       style="font-style:normal;font-weight:normal;font-size:40px;line-height:125%;font-family:sans-serif;letter-spacing:0px;word-spacing:0px;fill:#800000;fill-opacity:1;stroke:none;stroke-width:1px;stroke-linecap:butt;stroke-linejoin:miter;stroke-opacity:1"
       x="208.57143"
       y="315.21936"
       id="text3370"
       sodipodi:linespacing="125%"><tspan
         sodipodi:role="line"
         id="tspan3372"
         x="208.57143"
         y="315.21936">01001011</tspan><tspan
         sodipodi:role="line"
         x="208.57143"
         y="365.21936"
         id="tspan3376">11011100</tspan><tspan
         sodipodi:role="line"
         x="208.57143"
         y="415.21936"
         id="tspan3378">10010010</tspan><tspan
         sodipodi:role="line"
         x="208.57143"
         y="465.21936"
         id="tspan3374" /></text>
    <text
       xml:space="preserve"
       style="font-style:normal;font-weight:normal;font-size:40px;line-height:125%;font-family:sans-serif;letter-spacing:0px;word-spacing:0px;fill:#ffffff;fill-opacity:1;stroke:none;stroke-width:1px;stroke-linecap:butt;stroke-linejoin:miter;stroke-opacity:1"
       x="209.57312"
       y="405.49417"
       id="text3370-5"
       sodipodi:linespacing="125%"><tspan
         sodipodi:role="line"
         id="tspan3372-2"
         x="209.57312"
         y="405.49417" /><tspan
         sodipodi:role="line"
         x="209.57312"
         y="455.49417"
         id="tspan3378-7">01010110</tspan><tspan
         sodipodi:role="line"
         x="209.57312"
         y="505.49414"
         id="tspan3374-6" /></text>
    <g
       id="g3429">
      <path
         style="fill:#800000"
         d="m 289.70534,749.99407 c -50.43335,-3.30878 -93.56958,-17.86233 -114.56238,-38.65176 -5.13083,-5.08112 -8.64901,-10.195 -11.35152,-16.50012 -1.21054,-2.8243 -1.37216,-5.26367 -1.5754,-23.77846 -0.12457,-11.34721 -0.12947,-22.83429 -0.011,-25.52686 l 0.21558,-4.89557 3.11797,6.2943 c 2.58923,5.2269 4.24962,7.43001 9.79113,12.99141 12.16359,12.20729 29.18909,21.40063 52.32054,28.2518 51.20038,15.16476 115.57095,15.16476 166.77132,0 23.13145,-6.85117 40.15695,-16.04451 52.32055,-28.2518 5.54149,-5.5614 7.20189,-7.76451 9.79112,-12.99141 l 3.11798,-6.2943 0.21557,4.89557 c 0.11856,2.69257 0.11365,14.17965 -0.0111,25.52686 -0.24997,22.77049 -0.14585,22.16186 -5.30448,31.00632 -7.02166,12.03861 -26.16979,25.10035 -49.35287,33.66563 -31.07077,11.47948 -75.06453,16.9108 -115.49329,14.25839 z m -1.74841,-68.86991 c -35.97927,-3.06978 -64.01653,-9.89678 -87.07109,-21.20163 -20.66898,-10.13505 -33.72129,-22.72428 -37.70553,-36.36779 -0.91606,-3.13691 -1.10929,-7.91857 -1.10929,-27.45012 0,-13.00834 0.23604,-23.64112 0.52452,-23.62843 0.28849,0.0128 1.87647,2.86188 3.52884,6.3315 7.52882,15.80895 28.07685,29.73481 58.17911,39.4293 14.72942,4.74363 29.60506,7.846 51.06485,10.64975 13.6168,1.77903 57.71855,1.77903 71.33534,0 21.46916,-2.80496 36.35068,-5.9092 51.06485,-10.65193 30.50361,-9.83207 50.43094,-23.39274 58.24954,-39.63917 1.61364,-3.35299 3.16992,-6.10675 3.45841,-6.11945 0.28848,-0.0126 0.52452,10.62009 0.52452,23.62843 0,19.53155 -0.19323,24.31321 -1.10928,27.45012 -7.91135,27.09135 -50.88045,48.86438 -111.13898,56.31567 -8.62617,1.06667 -51.4618,1.96481 -59.79581,1.25375 z m 4.54588,-68.5368 c -39.90849,-3.12133 -67.41999,-9.61093 -91.77543,-21.64859 -16.44443,-8.12765 -27.7668,-17.35516 -33.73248,-27.49132 -4.81348,-8.1785 -4.96588,-9.34724 -4.75838,-36.48941 l 0.18418,-24.09187 2.58534,5.28792 c 6.41933,13.12979 18.25592,23.48683 37.08779,32.45187 23.98601,11.41871 52.95045,18.16325 88.54136,20.61739 54.2039,3.73759 112.39247,-7.80593 143.42192,-28.45222 11.17765,-7.43735 18.36275,-15.10972 22.9616,-24.51874 l 2.63261,-5.38622 0.18418,24.09187 c 0.20751,27.14217 0.0551,28.31091 -4.75838,36.48941 -5.96567,10.13616 -17.28804,19.36367 -33.73247,27.49132 -20.95618,10.35758 -45.97681,16.99422 -76.73906,20.35478 -9.59798,1.04851 -44.24038,1.90875 -52.10278,1.29381 z m 10.49049,-68.61591 c -56.20011,-1.26425 -106.88494,-17.13486 -128.85878,-40.34871 -12.91623,-13.64509 -15.44612,-27.19613 -7.7966,-41.76153 3.45693,-6.58236 14.44202,-17.26042 23.39039,-22.73665 31.82965,-19.47915 82.27137,-29.7281 135.16513,-27.46338 43.97195,1.8827 81.19771,11.3973 107.45027,27.46338 8.94837,5.47623 19.93346,16.15429 23.39039,22.73665 7.64952,14.5654 5.11963,28.11644 -7.7966,41.76153 -11.57125,12.22424 -33.51486,23.73079 -57.96741,30.39633 -26.12162,7.12052 -56.8023,10.63118 -86.97679,9.95238 z"
         id="path3409"
         inkscape:connector-curvature="0" />
      <text
         xml:space="preserve"
         style="font-style:normal;font-weight:normal;font-size:40px;line-height:125%;font-family:sans-serif;letter-spacing:0px;word-spacing:0px;fill:#800000;fill-opacity:1;stroke:none;stroke-width:1px;stroke-linecap:butt;stroke-linejoin:miter;stroke-opacity:1"
         x="208.57143"
         y="315.21936"
         id="text3411"
         sodipodi:linespacing="125%"><tspan
           sodipodi:role="line"
           id="tspan3413"
           x="208.57143"
           y="315.21936">01001011</tspan><tspan
           sodipodi:role="line"
           x="208.57143"
           y="365.21936"
           id="tspan3415">11011100</tspan><tspan
           sodipodi:role="line"
           x="208.57143"
           y="415.21936"
           id="tspan3417">10010010</tspan><tspan
           sodipodi:role="line"
           x="208.57143"
           y="465.21936"
           id="tspan3419" /></text>
      <text
         xml:space="preserve"
         style="font-style:normal;font-weight:normal;font-size:40px;line-height:125%;font-family:sans-serif;letter-spacing:0px;word-spacing:0px;fill:#ffffff;fill-opacity:1;stroke:none;stroke-width:1px;stroke-linecap:butt;stroke-linejoin:miter;stroke-opacity:1"
         x="209.57312"
         y="405.49417"
         id="text3421"
         sodipodi:linespacing="125%"><tspan
           sodipodi:role="line"
           id="tspan3423"
           x="209.57312"
           y="405.49417" /><tspan
           sodipodi:role="line"
           x="209.57312"
           y="455.49417"
           id="tspan3425">01010110</tspan><tspan
           sodipodi:role="line"
           x="209.57312"
           y="505.49414"
           id="tspan3427" /></text>
    </g>
  </g>
</svg>
