<?xml version="1.0" encoding="UTF-8" standalone="no"?>
<!-- Created with Inkscape (http://www.inkscape.org/) -->

<svg
   xmlns:dc="http://purl.org/dc/elements/1.1/"
   xmlns:cc="http://creativecommons.org/ns#"
   xmlns:rdf="http://www.w3.org/1999/02/22-rdf-syntax-ns#"
   xmlns:svg="http://www.w3.org/2000/svg"
   xmlns="http://www.w3.org/2000/svg"
   xmlns:sodipodi="http://sodipodi.sourceforge.net/DTD/sodipodi-0.dtd"
   xmlns:inkscape="http://www.inkscape.org/namespaces/inkscape"
   width="210mm"
   height="297mm"
   viewBox="0 0 744.09448819 1052.3622047"
   id="svg2"
   version="1.1"
   inkscape:version="0.91 r13725"
   sodipodi:docname="idea.svg">
  <defs
     id="defs4" />
  <sodipodi:namedview
     id="base"
     pagecolor="#ffffff"
     bordercolor="#666666"
     borderopacity="1.0"
     inkscape:pageopacity="0.0"
     inkscape:pageshadow="2"
     inkscape:zoom="0.175"
     inkscape:cx="-69.620283"
     inkscape:cy="401.96967"
     inkscape:document-units="px"
     inkscape:current-layer="layer1"
     showgrid="false"
     inkscape:window-width="1366"
     inkscape:window-height="710"
     inkscape:window-x="0"
     inkscape:window-y="0"
     inkscape:window-maximized="1" />
  <metadata
     id="metadata7">
    <rdf:RDF>
      <cc:Work
         rdf:about="">
        <dc:format>image/svg+xml</dc:format>
        <dc:type
           rdf:resource="http://purl.org/dc/dcmitype/StillImage" />
        <dc:title></dc:title>
      </cc:Work>
    </rdf:RDF>
  </metadata>
  <g
     inkscape:label="Capa 1"
     inkscape:groupmode="layer"
     id="layer1">
    <path
       style="fill:#800000"
       d="m 520.55125,852.36664 c -0.3038,-0.4915 -3.0269,-2.1043 -6.0513,-3.584 -10.544,-5.1587 -15.143,-13.4317 -16.6103,-29.8799 -2.7448,-30.7687 -10.8889,-53.9198 -27.5549,-78.3297 -12.7355,-18.6532 -15.7669,-29.7953 -19.4381,-71.4466 l -1.1981,-13.5929 4.6397,-4.6397 c 5.2425,-5.2425 10.8003,-13.5949 18.7082,-28.1151 5.5159,-10.1283 10.7621,-16.5594 13.5083,-16.5594 1.2361,0 1.4035,0.8298 0.8766,4.3436 -0.6411,4.2752 -0.5673,4.4181 4.6887,9.0689 2.9371,2.5988 7.0276,5.6033 9.0901,6.6766 2.0625,1.0734 3.75,2.1863 3.75,2.4732 0,0.2869 -3.634,11.6403 -8.0757,25.2297 -15.7835,48.2907 -17.7716,64.651 -10.355,85.2116 7.8412,21.7376 44.8331,93.9964 48.1201,93.9964 2.1233,0 3.3106,-4.4665 3.3106,-12.4546 0,-9.1023 -1.8449,-19.1838 -7.5507,-41.2614 -2.4471,-9.4689 -4.4283,-17.5689 -4.4027,-18 0.086,-1.4456 4.6836,8.1144 9.2416,19.216 7.9495,19.3617 11.98967,35.2679 13.27154,52.25 0.38403,5.0875 1.09019,9.25 1.56924,9.25 0.47906,0 0.87102,-0.4614 0.87102,-1.0254 0,-0.564 8.90969,-10.1462 19.79931,-21.2938 26.40127,-27.0268 33.44838,-37.6944 37.73417,-57.1204 4.76048,-21.5776 -3.00731,-61.8004 -18.06833,-93.5604 -6.78222,-14.3021 -3.16371,-10.6074 5.00027,5.1055 6.15689,11.8499 11.51039,27.1189 14.21683,40.5485 2.86944,14.2384 2.37953,41.9909 -1.03984,58.9049 -2.90013,14.3455 -6.35651,25.3347 -12.16915,38.6905 -2.09432,4.8121 -3.49527,9.0619 -3.11322,9.444 0.99261,0.9926 12.71536,-10.7829 20.10289,-20.1934 14.24342,-18.1437 21.7701,-34.2309 25.02315,-53.4832 l 1.27011,-7.5168 0.12191,11.619 c 0.13618,12.9797 -1.59189,24.7062 -5.43232,36.8633 -1.41435,4.4772 -2.39918,8.6575 -2.1885,9.2895 0.43414,1.3025 7.68384,-7.5562 14.15009,-17.2903 16.69819,-25.1372 21.03633,-51.7067 13.02136,-79.7509 -2.90708,-10.1719 -12.23021,-29.6953 -18.97272,-39.7306 -14.95385,-22.2567 -26.57803,-32.3223 -55.45601,-48.0203 -18.53558,-10.0759 -22.44404,-12.903 -24.59163,-17.7879 -1.01362,-2.3055 -3.14434,-6.3465 -4.73493,-8.98 -2.15968,-3.5757 -2.72237,-5.4749 -2.22212,-7.5 1.6279,-6.5901 1.64979,-8.1156 0.15785,-11.0007 -2.60266,-5.033 -7.24997,-7.645 -14.60907,-8.2111 l -6.5001,-0.5 -3.1785,-8.5 c -5.8461,-15.6338 -8.8321,-36.4801 -12.3185,-86 -4.0232,-57.1465 -6.8076,-80.5646 -11.3546,-95.5 -20.718,-68.0511 -86.347,-118.4241 -172.1484,-132.1311 -13.6384,-2.1787 -43.7901,-2.4332 -57.5,-0.4853 -30.7448,4.3682 -62.9384,16.6354 -87.8633,33.4799 -7.2834,4.9222 -12.2139,7.5531 -14.9854,7.9963 -12.0367,1.9248 -22.2064,8.8072 -26.4885,17.9263 -5.5605,11.8416 -5.7149,22.3064 -0.4989,33.8107 l 2.991,6.5968 -5.6164,8.6162 c -7.2118,11.0639 -16.6154,30.5838 -20.5261,42.6078 -3.8019,11.6894 -7.8146,33.0662 -8.6148,45.8935 -0.4638,7.4346 -0.116,12.5972 1.495,22.1889 2.503,14.9034 2.6037,19.635 0.5863,27.5399 -2.7088,10.614 -16.1908,36.118 -27.995802,52.9601 -8.8664,12.6495 -10.5908,20.2625 -6.5868,29.0786 3.3052,7.2773 7.8731,9.652 21.847602,11.3576 8.3807,1.0228 12.8316,2.6424 15.2412,5.5459 1.1274,1.3584 1.0762,2.166 -0.3228,5.0999 -0.9143,1.9172 -1.6623,4.3885 -1.6623,5.4918 0,3.0232 3.41,9.0281 7.1845,12.6515 3.1382,3.0126 3.3546,3.6393 3.2804,9.5 -0.044,3.4819 -0.8903,8.3808 -1.9011,11.0066 -1.2652,3.2864 -1.6711,6.2993 -1.3288,9.8625 0.4317,4.4922 1.0657,5.6871 5.0964,9.605 l 4.6034,4.4745 -0.2174,12.1631 -0.2174,12.163 4.5,8.4564 c 2.475,4.651 6.094,10.07 8.0422,12.0422 12.2953,12.4467 38.0229,13.2617 80.4578,2.549 17.706,-4.4699 18.5949,-4.469 22.2973,0.023 4.0894,4.9613 18.4611,36.2677 23.839,51.9298 4.7621,13.8685 15.3637,51.548 15.3637,54.6045 0,1.0086 -2.5003,8.7102 -5.5561,17.1147 -6.0877,16.7427 -6.2908,19.3094 -1.9025,24.0421 1.3974,1.5069 4.4347,3.7521 6.7496,4.9893 l 4.209,2.2494 114.8217,0.2705 c 67.2641,0.1585 114.5929,-0.1 114.2694,-0.6232 z m -219.1366,-239.6018 c -2.9996,-2.9997 -3.1313,-6.4154 -0.3819,-9.9106 2.0608,-2.62 2.1509,-2.6349 15.9274,-2.6349 13.7765,0 13.8666,0.015 15.9274,2.6349 2.3656,3.0073 2.5238,4.2808 0.9585,7.7161 -1.7324,3.8022 -4.4584,4.5085 -17.6814,4.5813 -11.7649,0.065 -12.4013,-0.038 -14.75,-2.3868 z m -19.0422,-18.8513 c -3.0452,-3.5419 -3.0449,-5.8472 0,-9.3884 l 2.4134,-2.8058 32.0588,0 c 31.1862,0 32.1157,0.057 34.149,2.0901 3.83,3.83 2.515,10.3946 -2.4999,12.4796 -1.1191,0.4653 -15.9117,0.7525 -32.8724,0.6381 l -30.8378,-0.2078 -2.4122,-2.8058 z m -0.3397,-18.3291 c -2.829,-3.5965 -2.6044,-5.9872 0.891,-9.4825 l 2.9636,-2.9637 31.5099,0.2906 c 30.8611,0.2845 31.5549,0.3354 33.6906,2.4724 2.6266,2.6282 2.7629,7.6765 0.2813,10.4186 -1.622,1.7924 -3.567,1.8995 -34.4914,1.8995 l -32.7724,0 z m 0.3819,-17.8196 c -1.35,-1.35 -2.4545,-3.1724 -2.4545,-4.0497 0,-2.8901 2.8789,-7.2306 5.21,-7.855 1.2595,-0.3374 15.8774,-0.6196 32.4842,-0.6271 29.9131,-0.014 30.2176,0.01 32.6987,2.2363 3.6171,3.2497 3.8571,7.5 0.6071,10.75 -1.9168,1.9168 -3.3333,2 -34.0455,2 l -32.0454,0 z m -0.1271,-17.0287 c -1.1646,-0.8158 -3.4562,-3.8552 -5.0923,-6.7543 -1.8937,-3.3553 -7.5577,-9.5707 -15.5844,-17.1013 -23.0924,-21.6653 -31.9542,-40.4296 -31.9542,-67.6612 0,-23.8091 7.7561,-43.1212 24.2422,-60.3615 17.2048,-17.9919 38.3343,-27.0227 63.0613,-26.9526 41.9242,0.1189 76.4554,28.2515 85.5298,69.6814 2.3319,10.6464 1.6045,30.8792 -1.4954,41.594 -4.7928,16.5668 -15.561,32.7001 -29.4154,44.0711 -7.9245,6.504 -11.7413,10.8391 -16.0441,18.2228 -1.5241,2.6153 -3.5144,5.1892 -4.423,5.7196 -0.9657,0.5638 -15.1634,0.977 -34.1794,0.9948 -27.1664,0.025 -32.8765,-0.2141 -34.6451,-1.4528 z m 62.7497,-17.7668 c 1.7848,-2.3375 9.6471,-10.55 17.4718,-18.25 13.3546,-13.1419 14.5056,-14.5823 18.7786,-23.5 10.0314,-20.9354 10.1421,-44.2031 0.303,-63.7408 -12.8323,-25.4817 -36.6826,-40.2592 -64.9766,-40.2592 -12.1134,0 -20.3959,1.8676 -31.1539,7.0249 -17.8693,8.5664 -30.9712,23.5782 -37.5074,42.9751 -3.3803,10.0311 -3.8992,27.9453 -1.1307,39.0309 4.0895,16.3748 12.2085,28.6793 27.3598,41.4642 4.2469,3.5836 9.6443,9.1007 11.9943,12.2603 2.3499,3.1595 4.7252,6.0866 5.2783,6.5046 0.5531,0.4179 3.2557,0.6429 6.0057,0.5 l 5,-0.26 -0.1739,-13.1028 c -0.1508,-11.3561 -2.3974,-33.5191 -3.9095,-38.5664 -0.3132,-1.0454 -2.0725,-1.9308 -4.7083,-2.3694 -8.0242,-1.3353 -14.3814,-4.3831 -18.5302,-8.884 -6.0986,-6.6162 -7.6058,-10.1143 -7.6444,-17.7413 -0.029,-5.8263 0.3433,-7.1958 2.9663,-10.8965 5.5666,-7.8538 13.2312,-9.8785 21.5381,-5.6896 5.5448,2.7961 10.5666,10.0984 14.6136,21.25 l 2.9033,8 8.0793,0.2881 8.0793,0.2882 2.7328,-7.7882 c 3.5152,-10.0175 6.476,-15.0818 11.4386,-19.5652 6.5695,-5.9352 15.2203,-6.2034 21.5253,-0.6675 4.5003,3.9513 6.5897,8.6686 6.5897,14.8778 0,12.7011 -9.878,23.3886 -24.1119,26.088 -2.9248,0.5547 -5.7103,1.401 -6.19,1.8807 -1.9876,1.9876 -6.7306,47.9651 -5.3257,51.6263 0.3801,0.9904 2.0193,1.4718 5.0122,1.4718 4.0565,0 4.7326,-0.3735 7.6925,-4.25 z m -26.8501,-7.25 c 0.3397,-1.1 0.9274,-6.5 1.3059,-12 0.3786,-5.5 1.2821,-14.2563 2.0079,-19.4585 0.7257,-5.2022 1.0994,-9.8147 0.8303,-10.25 -0.269,-0.4353 -2.5448,-0.7915 -5.0573,-0.7915 l -4.5683,0 0.5267,4.75 c 0.2897,2.6125 1.0575,10.375 1.7064,17.25 1.6721,17.7184 2.4979,22.93 3.2484,20.5 z m 29.4063,-59.4038 c 4.2016,-2.5812 6.3667,-5.8785 6.3667,-9.6963 0,-4.0059 -2.1084,-5.9474 -4.8598,-4.475 -1.9945,1.0675 -6.7585,9.8629 -7.3332,13.5388 -0.4211,2.6935 2.0369,2.9604 5.8263,0.6325 z m -53.6333,0.3419 c 0,-2.405 -4.7596,-11.9105 -6.9615,-13.9033 -4.3386,-3.9263 -7.7247,2.1787 -4.5145,8.1395 2.8974,5.3802 11.476,9.6888 11.476,5.7638 z m 124.6734,60.2071 c -18.7001,-10.6423 -21.3628,-13.0503 -20.0804,-18.1599 0.7688,-3.063 3.9813,-5.4853 7.2745,-5.4853 3.0139,0 38.8208,20.549 40.1568,23.0453 3.144,5.8747 -1.4942,12.8163 -7.5243,11.2609 -1.1,-0.2837 -10.022,-5.0812 -19.8266,-10.661 z m -230.0901,8.3058 c -1.0839,-1.0405 -1.9166,-3.1916 -1.9166,-4.951 0,-1.7466 0.8406,-3.9343 1.9166,-4.9879 3.4896,-3.417 36.8275,-22.0121 39.464,-22.0121 6.2329,0 9.3549,8.4438 4.7027,12.7191 -2.1249,1.9527 -33.5387,20.3765 -36.75,21.5533 -2.1281,0.7799 -5.1817,-0.1759 -7.4167,-2.3214 z m 225.8283,-71.2568 c -3.0447,-3.5423 -3.0441,-5.8476 0,-9.3884 l 2.4142,-2.8058 22.6747,0 c 22.6235,0 22.679,0.01 24.5858,2.3608 3.5468,4.3813 2.035,10.4782 -3.0889,12.4577 -0.825,0.3187 -11.1023,0.4899 -22.8384,0.3805 l -21.3384,-0.199 -2.4116,-2.8058 z m -245.0731,-0.085 c -2.822,-3.2832 -2.5653,-6.7321 0.7523,-10.1093 1.8491,-1.8822 3.2863,-2 24.4092,-2 21.774,0 22.51,0.066 24.6389,2.1944 3.8414,3.8414 2.4946,10.2448 -2.6042,12.3823 -1.1191,0.4692 -11.637,0.7563 -23.3731,0.6382 l -21.3384,-0.2149 z m 232.5479,-49.6701 c -2.8481,-1.5242 -4.2216,-5.7158 -2.9103,-8.8814 1.17,-2.8248 2.9069,-3.9951 23.6441,-15.9307 15.5512,-8.9508 19.9012,-10.0762 22.8231,-5.9046 2.0749,2.9623 1.9758,8.0969 -0.1933,10.015 -3.692,3.2647 -36.8651,21.7308 -39.0657,21.7462 -1.2737,0.01 -3.2077,-0.4611 -4.2979,-1.0445 z m -193.1485,-8.5304 c -9.2611,-5.2751 -18.0157,-10.6039 -19.4548,-11.8417 -3.1418,-2.7024 -3.5073,-7.5569 -0.7948,-10.5542 3.4857,-3.8516 7.2937,-2.7026 25.2527,7.6198 9.2174,5.298 17.7715,10.5515 19.009,11.6744 4.651,4.2201 1.6726,12.6929 -4.4619,12.6929 -1.5903,0 -9.676,-3.9668 -19.5502,-9.5912 z m 154.0121,-30.6064 c -0.9625,-1.1131 -1.75,-3.1944 -1.75,-4.625 0,-2.49 16.5674,-32.815 21.0209,-38.4767 1.6543,-2.1031 2.9806,-2.7006 5.995,-2.7006 4.4552,0 6.9841,2.6327 6.9841,7.2707 0,2.6334 -16.9265,33.5047 -20.8885,38.0973 -3.4337,3.9803 -8.1399,4.1602 -11.3615,0.4343 z m -112.0687,-15.1374 c -5.1655,-8.8907 -10.1551,-17.6499 -11.0881,-19.4649 -2.9217,-5.6839 0.2337,-11.2 6.4068,-11.2 2.2681,0 4.2762,0.6743 5.2113,1.75 3.0623,3.5226 21.7887,37.0916 21.7887,39.0585 0,3.5146 -1.2034,5.3736 -4.3295,6.688 -5.9618,2.5068 -7.6969,0.8833 -17.9892,-16.8316 z m 61.1875,1.3577 -2.9774,-2.9774 0.3043,-21.9199 c 0.2763,-19.9037 0.4795,-22.1134 2.2093,-24.0226 1.297,-1.4317 3.114,-2.1027 5.6933,-2.1027 6.6121,0 6.9017,1.1393 6.9017,27.1499 l 0,22.7049 -2.6349,2.0726 c -3.5997,2.8316 -5.9875,2.6041 -9.4963,-0.9048 z"
       id="path3347"
       inkscape:connector-curvature="0"
       sodipodi:nodetypes="csssscssssccsssssscssssssssssscsscsscsssscsssscssssssssscssssssssccsscccscccssscssccccsccscscccscccsccscccsccsscscscscccssccccsssssssccccsssssssssscccscsscsssccccssssscssccccscscccscscsccsscsccsssssscscccsccscccscsccscsccsssccscsscsscssssscscscscsccscssccc" />
  </g>
</svg>
