<?xml version="1.0" encoding="UTF-8" standalone="no"?>
<!-- Created with Inkscape (http://www.inkscape.org/) -->

<svg
   xmlns:dc="http://purl.org/dc/elements/1.1/"
   xmlns:cc="http://creativecommons.org/ns#"
   xmlns:rdf="http://www.w3.org/1999/02/22-rdf-syntax-ns#"
   xmlns:svg="http://www.w3.org/2000/svg"
   xmlns="http://www.w3.org/2000/svg"
   xmlns:sodipodi="http://sodipodi.sourceforge.net/DTD/sodipodi-0.dtd"
   xmlns:inkscape="http://www.inkscape.org/namespaces/inkscape"
   width="210mm"
   height="297mm"
   viewBox="0 0 744.09448819 1052.3622047"
   id="svg3358"
   version="1.1"
   inkscape:version="0.91 r13725"
   sodipodi:docname="knowledge.svg">
  <defs
     id="defs3360" />
  <sodipodi:namedview
     id="base"
     pagecolor="#ffffff"
     bordercolor="#666666"
     borderopacity="1.0"
     inkscape:pageopacity="0.0"
     inkscape:pageshadow="2"
     inkscape:zoom="0.35"
     inkscape:cx="-265.89474"
     inkscape:cy="555.16881"
     inkscape:document-units="px"
     inkscape:current-layer="layer1"
     showgrid="false"
     inkscape:window-width="1366"
     inkscape:window-height="710"
     inkscape:window-x="0"
     inkscape:window-y="0"
     inkscape:window-maximized="1" />
  <metadata
     id="metadata3363">
    <rdf:RDF>
      <cc:Work
         rdf:about="">
        <dc:format>image/svg+xml</dc:format>
        <dc:type
           rdf:resource="http://purl.org/dc/dcmitype/StillImage" />
        <dc:title></dc:title>
      </cc:Work>
    </rdf:RDF>
  </metadata>
  <g
     inkscape:label="Capa 1"
     inkscape:groupmode="layer"
     id="layer1">
    <path
       style="fill:#800000"
       d="m 491.86169,746.59384 c 0,-0.34751 -1.39773,-1.2574 -3.10606,-2.02186 -4.27634,-1.91369 -8.38175,-5.77419 -10.36663,-9.74819 -2.16678,-4.33818 -2.36506,-5.2944 -3.3446,-16.12482 -0.45443,-5.0245 -1.27502,-11.27316 -1.82358,-13.8859 -2.81204,-13.39339 -8.8489,-27.40923 -16.90747,-39.2539 -5.86599,-8.62198 -8.45703,-14.00707 -10.47538,-21.77097 -1.59337,-6.12939 -3.95237,-23.04358 -4.81468,-34.52174 l -0.50713,-6.74986 4.29579,-4.61304 c 2.54002,-2.72756 6.20451,-8.0338 8.96583,-12.98266 6.52725,-11.69814 8.74169,-15.12102 10.86119,-16.7882 2.92137,-2.29797 3.70636,-1.89133 3.30053,1.70965 -0.33407,2.96325 -0.15991,3.3446 2.83038,6.2002 1.75248,1.67347 4.58403,3.78741 6.29236,4.69774 1.82176,0.97077 3.10606,2.17855 3.10606,2.92108 0,0.69627 -2.66463,9.41209 -5.92146,19.36842 -7.20876,22.03766 -9.35062,30.99676 -9.91921,41.48924 -0.36257,6.69089 -0.18483,9.03037 1.05957,13.9489 2.0269,8.01173 9.29105,24.1114 20.58109,45.6143 16.16239,30.78271 16.70569,31.53547 18.36323,25.44241 1.59439,-5.86109 -0.71213,-21.27108 -5.88624,-39.32677 -2.61844,-9.13736 -2.7402,-11.04053 -0.42081,-6.57907 8.00171,15.39201 14.30065,37.64577 14.30065,50.52348 0,2.76103 0.27143,5.02012 0.60323,5.02012 0.3318,0 2.27429,-2.05964 4.31669,-4.57694 2.0424,-2.51729 6.95077,-7.68752 10.90745,-11.48934 19.26098,-18.5072 26.08612,-29.25934 28.76223,-45.31151 2.5303,-15.17715 -4.04117,-45.377 -14.35196,-65.95591 -3.66887,-7.32276 -3.97297,-8.46068 -1.31119,-4.90706 2.81153,3.75366 10.23047,19.25646 12.31248,25.72868 8.6151,26.78137 6.17213,57.65747 -6.83099,86.33653 -1.25638,2.77111 -2.12271,5.19997 -1.92517,5.39759 0.7095,0.7095 3.96881,-2.04546 8.86016,-7.4891 13.60445,-15.14046 21.43792,-29.58333 23.9751,-44.20401 0.5702,-3.2857 1.27969,-6.19991 1.57671,-6.47602 0.29701,-0.27611 0.31915,4.13215 0.0497,9.79614 -0.4681,9.82318 -1.88695,17.98158 -4.5306,26.05119 -2.0174,6.15767 -0.97121,6.30515 3.43106,0.48367 8.762,-11.58676 13.09835,-19.68517 16.00481,-29.89006 2.00103,-7.02553 2.65594,-18.44427 1.51357,-26.38701 -2.5917,-18.01856 -14.051,-39.64139 -28.84884,-54.43521 -8.47398,-8.47179 -12.15155,-11.08935 -27.15767,-19.3299 -14.87728,-8.16974 -16.9916,-9.71765 -18.77213,-13.74281 -0.81657,-1.84594 -2.41198,-4.86335 -3.54537,-6.70535 -1.97304,-3.20662 -2.01922,-3.48733 -1.08624,-6.60158 1.09575,-3.6574 0.58738,-5.86313 -1.98678,-8.62014 -2.47432,-2.65016 -5.21028,-3.76783 -9.22309,-3.76783 -3.51276,0 -3.73771,-0.12161 -5.07632,-2.74561 -5.3449,-10.47684 -7.6683,-25.07742 -10.6697,-67.04931 -4.27277,-59.75088 -5.97613,-68.9508 -16.59234,-89.61324 -9.92593,-19.31889 -28.51871,-38.79328 -49.40457,-51.74707 -29.56541,-18.33714 -68.53685,-28.35596 -100.42019,-25.81623 -5.75498,0.45845 -14.06934,1.53417 -18.47643,2.39057 -18.06848,3.51101 -40.75439,12.9 -55.56991,22.9987 -5.69563,3.88235 -8.31897,5.19662 -11.88816,5.95603 -7.8972,1.68019 -13.57646,5.18887 -16.97727,10.4886 -4.81701,7.50672 -5.62262,18.60024 -1.93547,26.65406 1.06307,2.32202 1.93284,4.66405 1.93284,5.20458 0,0.54053 -1.76986,3.70742 -3.93307,7.0374 -7.82741,12.04946 -13.41078,24.78495 -16.84447,38.42178 -3.98189,15.81406 -5.0096,30.26015 -2.97465,41.81271 1.42747,8.10381 1.39546,16.99802 -0.079,21.96318 -2.2072,7.43246 -10.70281,23.01171 -20.79954,38.14223 -4.04664,6.06419 -5.78881,10.08006 -5.78881,13.34369 0,2.97619 1.59505,7.0533 3.69518,9.44519 2.74495,3.12637 6.33409,4.55289 13.81479,5.49092 9.68001,1.21377 13.23948,3.87168 10.93975,8.16886 -1.91333,3.57503 0.10853,9.6887 4.39774,13.29772 2.08902,1.75781 2.22452,2.18381 2.22452,6.99177 0,2.81599 -0.30227,5.30675 -0.67171,5.53506 -1.09531,0.67698 -2.31749,7.71252 -1.80977,10.41859 0.29365,1.56538 1.66331,3.71572 3.65097,5.73188 3.87679,3.93249 4.39225,5.74738 3.2121,11.30875 -1.14778,5.40856 -0.33809,9.0273 3.79954,16.98027 6.14546,11.81244 13.45413,15.55688 30.1878,15.46619 10.43336,-0.0563 18.334,-1.24323 34.20799,-5.13837 12.43395,-3.05103 13.75004,-3.08523 15.99605,-0.41599 2.81788,3.34884 14.17648,28.29778 17.7157,38.91231 4.06323,12.18582 10.64522,35.82744 10.64522,38.23614 0,0.98487 -1.64438,6.55107 -3.65418,12.36934 -2.0098,5.81819 -3.65419,11.55277 -3.65419,12.74345 0,3.18835 2.79896,6.79269 6.92315,8.91519 l 3.6343,1.87043 83.51799,0.19484 c 46.62768,0.10875 83.51755,-0.0843 83.51755,-0.43719 z M 382.61759,560.12507 c -1.25785,-1.38991 -1.23446,-1.80459 0.62464,-11.0773 1.0622,-5.29835 1.77944,-9.78525 1.59381,-9.97088 -0.18563,-0.18563 -1.71659,0.84295 -3.40212,2.28569 -5.83807,4.99717 -11.26811,5.29258 -15.18956,0.82622 -5.47002,-6.22995 -4.70586,-18.40657 1.74209,-27.75872 3.86123,-5.60033 6.86366,-7.2928 13.09901,-7.38394 l 5.17031,-0.0755 0.36541,-11.04631 c 0.293,-8.85752 0.59966,-11.28003 1.54748,-12.22566 0.7665,-0.76482 4.49143,-1.68531 10.59713,-2.61866 5.17827,-0.79164 9.6681,-1.69196 9.97739,-2.00081 0.30921,-0.30885 0.0629,-1.97779 -0.54813,-3.70878 -1.55128,-4.39664 -1.37624,-7.84612 0.61368,-12.09893 5.6911,-12.16288 21.97005,-18.14156 30.69953,-11.27491 4.23075,3.32786 4.03218,8.59354 -0.61514,16.31118 -1.41629,2.35198 -2.57503,4.44195 -2.57503,4.64454 0,0.79252 4.49362,-0.60243 11.04426,-3.4285 7.22103,-3.11527 9.49927,-3.55165 10.70391,-2.05 1.04334,1.3006 2.37017,13.77175 2.36535,22.23235 -0.007,8.65267 -0.89111,12.21111 -3.75423,15.07424 -1.8708,1.87072 -2.54836,2.10664 -5.0764,1.7676 -1.86699,-0.25045 -4.36529,-1.4844 -6.93834,-3.42711 -4.55092,-3.43596 -6.3718,-3.55793 -8.59033,-0.57531 -1.14588,1.54053 -1.47863,3.06827 -1.44509,6.63482 0.0468,4.99681 0.90836,7.33739 3.13968,8.53157 1.14296,0.61171 2.75949,0.0519 8.39863,-2.90661 8.33242,-4.37194 10.14972,-4.59155 11.27535,-1.3625 1.5702,4.5043 0.54177,27.67336 -1.45685,32.82203 -1.08339,2.79085 -3.89996,4.08838 -14.28172,6.57929 -10.1275,2.42988 -17.88555,3.08121 -19.34978,1.62457 -1.33575,-1.32888 -0.89615,-5.80927 1.16429,-11.86732 2.12477,-6.24705 2.30251,-8.96679 0.69138,-10.57799 -2.76513,-2.76505 -8.83312,-2.24403 -12.11772,1.04049 -2.70775,2.70775 -2.62597,4.2944 0.4274,8.29449 3.6085,4.72749 4.79845,7.33395 4.79845,10.51082 0,3.07346 -1.39736,5.56342 -3.87438,6.90392 -1.27846,0.69189 -15.69436,2.10138 -27.62103,2.70059 -1.05957,0.0534 -2.47323,-0.54191 -3.20333,-1.34868 z m 20.81284,-5.81366 c 3.41666,-0.24674 6.64989,-0.72383 7.18486,-1.06023 1.47337,-0.92634 0.42257,-3.88688 -2.82893,-7.97058 -1.56991,-1.9718 -3.06666,-4.71609 -3.32596,-6.09839 -1.52475,-8.12757 5.09678,-14.88583 14.58465,-14.88583 4.76323,0 7.51403,1.1716 10.17449,4.33342 2.91129,3.45978 3.13639,6.98556 0.86605,13.56323 -1.30923,3.79334 -1.70578,5.88339 -1.2102,6.37897 0.95389,0.95389 18.87437,-2.9718 20.67275,-4.52856 0.94928,-0.82168 1.48688,-3.06761 2.06578,-8.63045 0.92765,-8.91395 1.00819,-15.27595 0.19966,-15.77563 -0.32054,-0.19813 -2.86934,0.7972 -5.66398,2.21188 -6.23843,3.15795 -10.12787,3.1062 -13.55841,-0.18044 -5.74022,-5.49948 -5.57592,-19.31522 0.29737,-25.00778 4.38064,-4.24587 8.5972,-3.82944 15.23664,1.50502 5.38385,4.3256 6.74233,1.70438 6.17579,-11.91659 -0.39648,-9.53223 -0.78266,-11.64998 -2.1244,-11.64998 -0.43697,0 -4.12506,1.30221 -8.1959,2.89382 -4.07083,1.59162 -8.76017,3.1111 -10.42085,3.37669 -8.38467,1.34072 -8.89655,-1.86079 -1.9805,-12.38601 6.62146,-10.07692 6.28352,-13.26593 -1.40299,-13.2383 -4.65945,0.0168 -8.62504,1.90536 -12.62498,6.01281 -4.56788,4.69059 -5.17462,7.26715 -3.1274,13.28048 1.94907,5.72508 1.5979,8.33658 -1.32055,9.82054 -1.09954,0.55909 -5.87118,1.59557 -10.60364,2.30331 -4.73246,0.70767 -8.83362,1.65396 -9.11375,2.10276 -0.28006,0.44881 -0.51904,5.63242 -0.53103,11.51916 -0.0285,13.96534 -0.92136,15.1952 -9.38942,12.93033 -2.7519,-0.73602 -3.55947,-0.66272 -6.03993,0.54813 -7.1508,3.49077 -11.52245,19.2707 -6.756,24.38686 2.16189,2.32055 3.87855,1.41687 10.4734,-5.51358 5.79122,-6.0859 7.80782,-7.17975 9.71699,-5.27058 1.33663,1.33663 1.05891,9.77129 -0.58467,17.75933 -2.12169,10.31153 -2.24082,9.88779 2.74064,9.75054 2.31127,-0.0636 6.99776,-0.31762 10.41442,-0.56435 z m -62.86497,-45.79958 c -6.61781,-1.96529 -26.06165,-10.33001 -30.27046,-13.02234 -3.95083,-2.52731 -5.52754,-4.40673 -5.52754,-6.58857 0,-1.81686 4.85027,-6.70097 11.26044,-11.339 9.34887,-6.76434 10.80608,-8.96101 8.92732,-13.45748 -3.02698,-7.24464 -16.6231,-9.57755 -19.81737,-3.40044 -0.70409,1.36155 -0.98393,4.2303 -0.89886,9.21519 0.14529,8.51418 -0.7103,11.50842 -4.27634,14.96469 -2.38085,2.30762 -2.94338,2.50524 -7.13129,2.50524 -5.07654,0 -3.3867,0.84667 -25.33658,-12.69464 -12.84117,-7.92191 -14.28523,-9.40733 -12.46062,-12.81669 0.52949,-0.9894 5.18507,-5.68481 10.34565,-10.4343 5.16059,-4.74949 9.55723,-9.07553 9.77034,-9.6135 0.30878,-0.77936 -0.24395,-0.85362 -2.72039,-0.36542 -1.70936,0.33699 -5.24558,0.6028 -7.85833,0.59081 -16.41408,-0.0755 -19.26756,-17.61784 -5.16043,-31.72497 13.20446,-13.20447 30.18151,-15.88101 39.53308,-6.23265 1.35073,1.39363 2.83206,2.53389 3.29183,2.53389 0.45977,0 3.93074,-4.49816 7.71318,-9.99595 3.78245,-5.49779 7.86381,-11.08957 9.06969,-12.4262 3.84522,-4.26224 5.13179,-4.0609 19.11445,2.99095 6.84451,3.45189 12.6521,6.27613 12.90577,6.27613 0.25368,0 0.98539,-1.89104 1.62612,-4.20231 1.88987,-6.81732 2.53183,-8.0373 5.82725,-11.07495 3.94849,-3.63964 7.82909,-5.62813 13.67177,-7.00562 16.17078,-3.81248 32.34274,3.41838 35.7233,15.97277 2.11621,7.8589 -3.37544,13.71612 -18.52562,19.75912 -1.50735,0.60126 -2.74064,1.41132 -2.74064,1.8002 0,0.63436 17.10473,5.03495 24.48304,6.29879 3.53798,0.60608 5.48127,2.20625 5.48127,4.51357 0,1.76709 -7.90063,16.43901 -13.67775,25.40031 -4.10321,6.36478 -10.66978,13.29436 -14.40553,15.20184 -2.07528,1.05972 -3.75643,1.36521 -6.07486,1.10386 -5.31801,-0.59943 -8.03095,-4.08501 -11.06531,-14.21653 -1.95199,-6.51775 -3.22788,-7.45176 -7.79598,-5.70718 -5.54194,2.1165 -12.00049,11.25306 -12.01788,17.00102 -0.01,3.23381 2.26282,4.56071 9.2904,5.4242 14.21243,1.7464 15.75136,2.03867 17.08323,3.24396 2.14019,1.93687 1.70775,3.88798 -2.38216,10.74879 -4.21532,7.07106 -9.39798,13.66452 -18.69809,23.78764 -8.0251,8.73532 -8.99003,9.14949 -16.2761,6.98577 z m 9.46894,-12.12962 c 9.48092,-10.17756 18.43842,-21.90384 17.47094,-22.87125 -0.16042,-0.16042 -3.24243,-0.6503 -6.84903,-1.08865 -12.51873,-1.5216 -17.56406,-5.68452 -17.46562,-14.41123 0.0999,-8.85299 7.79409,-20.28496 16.27143,-24.17579 3.17125,-1.45546 4.72954,-1.73076 8.32481,-1.47073 4.03634,0.29197 4.66077,0.57458 7.13794,3.23022 1.6172,1.73369 3.21926,4.51869 3.96282,6.88887 3.47929,11.09016 4.08932,11.75244 7.99557,8.67978 4.43348,-3.4874 18.37967,-24.89983 17.88394,-27.45841 -0.18417,-0.95046 -2.84668,-1.87876 -11.36144,-3.96128 -16.58239,-4.05556 -23.87315,-8.0471 -22.51496,-12.32652 0.74246,-2.33926 3.89097,-4.1415 14.31497,-8.19421 11.46479,-4.4573 15.10991,-7.15175 14.25951,-10.54013 -0.83411,-3.32334 -5.68635,-7.42099 -10.41552,-8.79584 -6.09621,-1.77221 -14.89205,-1.16379 -20.11453,1.39129 -5.3099,2.59791 -6.20006,3.71799 -7.93762,9.98835 -1.93519,6.98322 -3.17973,9.25831 -5.80848,10.61767 -2.99738,1.54996 -4.45613,1.09063 -17.66016,-5.56101 -6.29974,-3.17359 -11.77685,-5.7701 -12.17135,-5.7701 -0.39458,0 -3.94623,4.63036 -7.8926,10.28967 -3.94637,5.65931 -8.24713,11.54188 -9.55715,13.07233 -4.23477,4.9474 -8.51791,4.56101 -12.61037,-1.13777 -4.72231,-6.57556 -11.45361,-7.73064 -20.19895,-3.46606 -8.24479,4.02048 -16.37381,13.6464 -16.37381,19.3888 0,5.24113 4.8749,6.16958 16.51472,3.14531 8.12267,-2.11044 11.73534,-2.28811 14.01782,-0.6894 4.13653,2.89733 0.76219,8.50526 -13.15207,21.85779 -5.6178,5.39102 -10.02328,10.11069 -9.79,10.48817 0.97866,1.5835 24.50562,15.48241 26.20737,15.48241 2.68451,0 3.4945,-2.76651 3.31676,-11.32797 -0.13046,-6.28147 0.0724,-7.73488 1.44362,-10.34375 5.69826,-10.84138 20.75708,-12.02768 31.14395,-2.45335 4.16928,3.84311 5.87403,8.0729 5.42691,13.46501 -0.43975,5.30266 -2.993,9.05251 -9.13941,13.42255 -8.13568,5.78436 -8.80015,6.46725 -7.52272,7.73065 1.25119,1.23752 22.67582,10.26833 26.19311,11.04082 2.15641,0.47366 2.62941,0.17942 6.6496,-4.13624 z M 264.23466,383.52017 c -0.65292,-0.2506 -1.79508,-1.64833 -2.53819,-3.10605 -2.25953,-4.43304 -5.2868,-15.08136 -5.03554,-17.7123 0.23189,-2.42821 0.30322,-2.47681 3.52548,-2.40219 1.80882,0.0417 5.00952,0.33363 7.11265,0.64833 4.58885,0.68676 6.04242,-0.18856 6.04242,-3.63877 0,-2.78361 -2.43822,-6.22117 -4.41265,-6.22117 -0.76073,0 -2.46351,0.93839 -3.78383,2.0853 -4.76623,4.14026 -8.77377,4.94835 -11.20688,2.25974 -1.44603,-1.5979 -4.94623,-18.9878 -4.28095,-21.26947 0.54521,-1.87014 2.01697,-2.09567 8.42948,-1.29161 3.2615,0.40898 6.11301,0.56048 6.33679,0.3367 0.22378,-0.22371 -0.45268,-1.30783 -1.50319,-2.40898 -3.00373,-3.14867 -3.69006,-5.6914 -2.31719,-8.58456 1.49617,-3.1529 4.92153,-4.74562 10.20614,-4.74562 5.73875,0 9.40675,1.24345 12.95408,4.39138 2.54507,2.25858 3.06659,3.21466 3.41652,6.26269 l 0.41299,3.59725 8.15293,0 c 4.48412,0 8.3865,0.22992 8.67196,0.51093 0.28547,0.28108 1.27743,3.35228 2.20435,6.82492 0.92685,3.47264 1.85867,6.48727 2.07054,6.69922 0.21194,0.21187 1.43777,0.0183 2.72419,-0.4301 5.2078,-1.8154 9.22396,-0.85574 13.82882,3.30455 4.39299,3.96874 6.06646,7.65961 5.66552,12.4949 -0.56662,6.83245 -5.02706,8.93631 -12.143,5.72749 -1.67917,-0.75722 -3.23066,-1.19908 -3.44779,-0.98195 -0.21714,0.21713 1.01951,3.25303 2.74809,6.74643 3.81789,7.71584 3.87628,7.63369 -6.75462,9.50105 -8.71201,1.5303 -15.32637,1.27466 -17.48147,-0.67573 -2.03172,-1.83864 -1.89542,-5.29952 0.33802,-8.58641 3.09699,-4.55765 1.98816,-6.54238 -3.65507,-6.54238 -3.62071,0 -6.94207,1.659 -6.94207,3.46753 0,0.61573 1.31551,3.05672 2.92335,5.42437 4.00974,5.90465 3.88177,6.90619 -1.03245,8.08101 -2.80116,0.66967 -19.61099,0.8545 -21.22943,0.2335 z m 18.29797,-4.90735 c 0.21654,-0.56427 -0.44735,-2.26537 -1.47534,-3.78025 -4.71405,-6.94649 -0.31383,-12.782 9.6382,-12.782 8.58828,0 11.8902,5.11564 7.80322,12.08953 -1.03604,1.7679 -1.67442,3.55311 -1.41856,3.96706 1.07199,1.73442 17.18819,0.0424 17.18819,-1.80444 0,-0.51992 -1.14318,-3.36385 -2.54032,-6.31979 -2.94125,-6.22264 -3.52066,-9.90862 -1.73946,-11.06604 0.93832,-0.60974 2.59586,-0.0835 7.56854,2.40284 6.96853,3.48427 8.56351,3.42324 9.00983,-0.34473 0.539,-4.55107 -2.48133,-9.16236 -7.46169,-11.39214 -2.79567,-1.2517 -3.02194,-1.24805 -6.45205,0.104 -6.59069,2.59776 -7.61481,1.79925 -9.78993,-7.63315 -0.72864,-3.16014 -1.69707,-5.88843 -2.15194,-6.06303 -0.45495,-0.17452 -3.92153,3e-4 -7.70368,0.38852 -5.7617,0.59146 -7.15709,0.52576 -8.60729,-0.40533 -1.49222,-0.95798 -1.67559,-1.52262 -1.33034,-4.09663 0.25937,-1.93387 0.0139,-3.73267 -0.69634,-5.1065 -2.9406,-5.68657 -17.80224,-7.12164 -17.80224,-1.719 0,1.19411 1.28518,2.68217 4.41726,5.11447 4.93424,3.8317 5.69877,5.04869 4.26034,6.78187 -0.85523,1.03048 -2.18148,1.12512 -9.94808,0.70993 -6.9974,-0.37404 -8.95802,-0.27632 -8.94661,0.44611 0.0329,2.09406 1.97399,12.79359 2.46489,13.58786 0.88029,1.42433 2.22094,0.98809 5.44561,-1.77213 7.30925,-6.2564 15.46166,-1.98817 15.46166,8.09511 0,6.43868 -5.2526,9.22536 -13.13044,6.96605 -1.388,-0.39809 -2.78953,-0.45787 -3.11453,-0.13287 -0.325,0.325 0.48389,3.69285 1.79764,7.48399 l 2.38852,6.89314 8.23558,0.20675 c 6.53668,0.16415 8.31685,-0.007 8.62936,-0.8192 z"
       id="path3347"
       inkscape:connector-curvature="0"
       sodipodi:nodetypes="scsssssscsssccssssssssssssssccsccsssccscsssssscscsssssscssssssssscsccsccssscssssssscssscsscsccsccccsssssscccsscscscscscscsscsscccsccscscssssssscscsssccssssssscssssssssssscscscssssssssssssscsscssscscsssscssssscscscsssscssssscssssscsscsssccsccsccsssscsccsscscscccccccsssccsssscccsscscsscccccscscscsscssscsccsc"
       inkscape:export-xdpi="89"
       inkscape:export-ydpi="89" />
  </g>
</svg>
