<?xml version="1.0" encoding="UTF-8" standalone="no"?>
<!-- Created with Inkscape (http://www.inkscape.org/) -->

<svg
   xmlns:dc="http://purl.org/dc/elements/1.1/"
   xmlns:cc="http://creativecommons.org/ns#"
   xmlns:rdf="http://www.w3.org/1999/02/22-rdf-syntax-ns#"
   xmlns:svg="http://www.w3.org/2000/svg"
   xmlns="http://www.w3.org/2000/svg"
   xmlns:xlink="http://www.w3.org/1999/xlink"
   xmlns:sodipodi="http://sodipodi.sourceforge.net/DTD/sodipodi-0.dtd"
   xmlns:inkscape="http://www.inkscape.org/namespaces/inkscape"
   width="210mm"
   height="297mm"
   viewBox="0 0 744.09448819 1052.3622047"
   id="svg5638"
   version="1.1"
   inkscape:version="0.91 r13725"
   sodipodi:docname="statistical_variables.svg"
   inkscape:export-filename="/media/alf/datos/drive/CEU/docencia/materiales/estadistica/presentaciones/statistics_course/img/introduction/statistical_variables.png"
   inkscape:export-xdpi="90"
   inkscape:export-ydpi="90">
  <defs
     id="defs5640">
    <marker
       inkscape:isstock="true"
       style="overflow:visible"
       id="marker12226"
       refX="0.0"
       refY="0.0"
       orient="auto"
       inkscape:stockid="TriangleOutL">
      <path
         transform="scale(0.8)"
         style="fill-rule:evenodd;stroke:#000000;stroke-width:1pt;stroke-opacity:1;fill:#000000;fill-opacity:1"
         d="M 5.77,0.0 L -2.88,5.0 L -2.88,-5.0 L 5.77,0.0 z "
         id="path12228" />
    </marker>
    <marker
       inkscape:stockid="TriangleOutL"
       orient="auto"
       refY="0.0"
       refX="0.0"
       id="marker10520"
       style="overflow:visible"
       inkscape:isstock="true"
       inkscape:collect="always">
      <path
         id="path10522"
         d="M 5.77,0.0 L -2.88,5.0 L -2.88,-5.0 L 5.77,0.0 z "
         style="fill-rule:evenodd;stroke:#000000;stroke-width:1pt;stroke-opacity:1;fill:#000000;fill-opacity:1"
         transform="scale(0.8)" />
    </marker>
    <marker
       inkscape:stockid="TriangleInL"
       orient="auto"
       refY="0.0"
       refX="0.0"
       id="TriangleInL"
       style="overflow:visible"
       inkscape:isstock="true">
      <path
         id="path7564"
         d="M 5.77,0.0 L -2.88,5.0 L -2.88,-5.0 L 5.77,0.0 z "
         style="fill-rule:evenodd;stroke:#000000;stroke-width:1pt;stroke-opacity:1;fill:#000000;fill-opacity:1"
         transform="scale(-0.8)" />
    </marker>
    <marker
       inkscape:stockid="StopL"
       orient="auto"
       refY="0.0"
       refX="0.0"
       id="marker8085"
       style="overflow:visible"
       inkscape:isstock="true">
      <path
         id="path8087"
         d="M 0.0,5.65 L 0.0,-5.65"
         style="fill:none;fill-opacity:0.75;fill-rule:evenodd;stroke:#000000;stroke-width:1pt;stroke-opacity:1"
         transform="scale(0.8)" />
    </marker>
    <marker
       inkscape:stockid="Arrow1Lend"
       orient="auto"
       refY="0.0"
       refX="0.0"
       id="Arrow1Lend"
       style="overflow:visible;"
       inkscape:isstock="true">
      <path
         id="path7434"
         d="M 0.0,0.0 L 5.0,-5.0 L -12.5,0.0 L 5.0,5.0 L 0.0,0.0 z "
         style="fill-rule:evenodd;stroke:#000000;stroke-width:1pt;stroke-opacity:1;fill:#000000;fill-opacity:1"
         transform="scale(0.8) rotate(180) translate(12.5,0)" />
    </marker>
    <marker
       style="overflow:visible"
       id="DistanceEnd"
       refX="0.0"
       refY="0.0"
       orient="auto"
       inkscape:stockid="DistanceEnd"
       inkscape:isstock="true">
      <g
         id="g2301"
         style="stroke:#000000;stroke-opacity:1;fill:#000000;fill-opacity:1">
        <path
           style="fill:#000000;stroke:#000000;stroke-width:1.15;stroke-linecap:square;stroke-opacity:1;fill-opacity:1"
           d="M 0,0 L -2,0"
           id="path2316" />
        <path
           style="fill:#000000;fill-rule:evenodd;stroke:#000000;stroke-opacity:1;fill-opacity:1"
           d="M 0,0 L -13,4 L -9,0 -13,-4 L 0,0 z "
           id="path2312" />
        <path
           style="fill:#000000;stroke:#000000;stroke-width:1;stroke-linecap:square;stroke-opacity:1;fill-opacity:1"
           d="M 0,-4 L 0,40"
           id="path2314" />
      </g>
    </marker>
    <marker
       inkscape:stockid="StopL"
       orient="auto"
       refY="0.0"
       refX="0.0"
       id="StopL"
       style="overflow:visible"
       inkscape:isstock="true">
      <path
         id="path7600"
         d="M 0.0,5.65 L 0.0,-5.65"
         style="fill:none;fill-opacity:0.75;fill-rule:evenodd;stroke:#000000;stroke-width:1pt;stroke-opacity:1"
         transform="scale(0.8)" />
    </marker>
    <marker
       inkscape:stockid="Arrow2Mstart"
       orient="auto"
       refY="0.0"
       refX="0.0"
       id="Arrow2Mstart"
       style="overflow:visible"
       inkscape:isstock="true">
      <path
         id="path7455"
         style="fill-rule:evenodd;stroke-width:0.625;stroke-linejoin:round;stroke:#000000;stroke-opacity:1;fill:#000000;fill-opacity:1"
         d="M 8.7185878,4.0337352 L -2.2072895,0.016013256 L 8.7185884,-4.0017078 C 6.9730900,-1.6296469 6.9831476,1.6157441 8.7185878,4.0337352 z "
         transform="scale(0.6) translate(0,0)" />
    </marker>
    <marker
       inkscape:stockid="Arrow1Sstart"
       orient="auto"
       refY="0.0"
       refX="0.0"
       id="Arrow1Sstart"
       style="overflow:visible"
       inkscape:isstock="true">
      <path
         id="path7443"
         d="M 0.0,0.0 L 5.0,-5.0 L -12.5,0.0 L 5.0,5.0 L 0.0,0.0 z "
         style="fill-rule:evenodd;stroke:#000000;stroke-width:1pt;stroke-opacity:1;fill:#000000;fill-opacity:1"
         transform="scale(0.2) translate(6,0)" />
    </marker>
    <marker
       inkscape:stockid="Arrow2Lstart"
       orient="auto"
       refY="0.0"
       refX="0.0"
       id="Arrow2Lstart"
       style="overflow:visible"
       inkscape:isstock="true">
      <path
         id="path7449"
         style="fill-rule:evenodd;stroke-width:0.625;stroke-linejoin:round;stroke:#000000;stroke-opacity:1;fill:#000000;fill-opacity:1"
         d="M 8.7185878,4.0337352 L -2.2072895,0.016013256 L 8.7185884,-4.0017078 C 6.9730900,-1.6296469 6.9831476,1.6157441 8.7185878,4.0337352 z "
         transform="scale(1.1) translate(1,0)" />
    </marker>
    <marker
       inkscape:stockid="Arrow1Lstart"
       orient="auto"
       refY="0.0"
       refX="0.0"
       id="Arrow1Lstart"
       style="overflow:visible"
       inkscape:isstock="true">
      <path
         id="path7431"
         d="M 0.0,0.0 L 5.0,-5.0 L -12.5,0.0 L 5.0,5.0 L 0.0,0.0 z "
         style="fill-rule:evenodd;stroke:#000000;stroke-width:1pt;stroke-opacity:1;fill:#000000;fill-opacity:1"
         transform="scale(0.8) translate(12.5,0)" />
    </marker>
    <clipPath
       clipPathUnits="userSpaceOnUse"
       id="clipPath122">
      <path
         d="m 4750,736 248,0 0,532 -248,0 0,-532 z"
         id="path124"
         inkscape:connector-curvature="0"
         style="clip-rule:evenodd" />
    </clipPath>
    <clipPath
       clipPathUnits="userSpaceOnUse"
       id="clipPath176">
      <path
         d="m 4010,660 194,0 0,541 -194,0 0,-541 z"
         id="path178"
         inkscape:connector-curvature="0"
         style="clip-rule:evenodd" />
    </clipPath>
    <clipPath
       clipPathUnits="userSpaceOnUse"
       id="clipPath432">
      <path
         d="m 4316,968 194,0 0,570 -194,0 0,-570 z"
         id="path434"
         inkscape:connector-curvature="0"
         style="clip-rule:evenodd" />
    </clipPath>
    <clipPath
       clipPathUnits="userSpaceOnUse"
       id="clipPath612">
      <path
         d="m 4473,423 217,0 0,537 -217,0 0,-537 z"
         id="path614"
         inkscape:connector-curvature="0"
         style="clip-rule:evenodd" />
    </clipPath>
    <linearGradient
       inkscape:collect="always"
       id="linearGradient4183">
      <stop
         offset="0"
         style="stop-color:#ff9955"
         id="stop4185" />
      <stop
         offset="1"
         style="stop-color:#ff9955;stop-opacity:0"
         id="stop4187" />
    </linearGradient>
    <linearGradient
       inkscape:collect="always"
       x1="591.53"
       y1="929.58"
       gradientTransform="matrix(6.0373,0,0,6.0373,-3474.6,-5298.3)"
       x2="679.85"
       gradientUnits="userSpaceOnUse"
       y2="959.12"
       id="linearGradient4161">
      <stop
         offset="0"
         style="stop-color:#d40000"
         id="stop4129" />
      <stop
         offset=".5"
         style="stop-color:#ee5454"
         id="stop4135" />
      <stop
         offset="1"
         style="stop-color:#be0000"
         id="stop4131" />
    </linearGradient>
    <linearGradient
       inkscape:collect="always"
       x1="618.94"
       y1="953.59"
       x2="644.42"
       gradientUnits="userSpaceOnUse"
       xlink:href="#linearGradient4183"
       y2="953.59"
       id="linearGradient4163" />
    <linearGradient
       inkscape:collect="always"
       x1="158.92"
       y1="288.83"
       gradientTransform="matrix(1.3109,0,0,0.74747,-111.83,106.25)"
       x2="558.23"
       gradientUnits="userSpaceOnUse"
       y2="288.83"
       id="linearGradient4214">
      <stop
         offset="0"
         style="stop-color:#aaaaaa"
         id="stop4027" />
      <stop
         offset="1"
         style="stop-color:#cfcfcf"
         id="stop4029" />
    </linearGradient>
    <linearGradient
       inkscape:collect="always"
       xlink:href="#linearGradient4183"
       id="linearGradient8620"
       gradientUnits="userSpaceOnUse"
       x1="618.94"
       y1="953.59"
       x2="644.42"
       y2="953.59" />
    <linearGradient
       inkscape:collect="always"
       xlink:href="#linearGradient4183"
       id="linearGradient8622"
       gradientUnits="userSpaceOnUse"
       x1="618.94"
       y1="953.59"
       x2="644.42"
       y2="953.59" />
    <linearGradient
       inkscape:collect="always"
       xlink:href="#linearGradient4183"
       id="linearGradient8624"
       gradientUnits="userSpaceOnUse"
       x1="618.94"
       y1="953.59"
       x2="644.42"
       y2="953.59" />
    <linearGradient
       inkscape:collect="always"
       xlink:href="#linearGradient4183"
       id="linearGradient8626"
       gradientUnits="userSpaceOnUse"
       x1="618.94"
       y1="953.59"
       x2="644.42"
       y2="953.59" />
    <linearGradient
       inkscape:collect="always"
       xlink:href="#linearGradient4183"
       id="linearGradient8628"
       gradientUnits="userSpaceOnUse"
       x1="618.94"
       y1="953.59"
       x2="644.42"
       y2="953.59" />
    <linearGradient
       inkscape:collect="always"
       xlink:href="#linearGradient4183"
       id="linearGradient8630"
       gradientUnits="userSpaceOnUse"
       x1="618.94"
       y1="953.59"
       x2="644.42"
       y2="953.59" />
    <linearGradient
       inkscape:collect="always"
       xlink:href="#linearGradient4183"
       id="linearGradient8632"
       gradientUnits="userSpaceOnUse"
       x1="618.94"
       y1="953.59"
       x2="644.42"
       y2="953.59" />
    <linearGradient
       inkscape:collect="always"
       xlink:href="#linearGradient4183"
       id="linearGradient8634"
       gradientUnits="userSpaceOnUse"
       x1="618.94"
       y1="953.59"
       x2="644.42"
       y2="953.59" />
    <linearGradient
       inkscape:collect="always"
       xlink:href="#linearGradient4183"
       id="linearGradient8636"
       gradientUnits="userSpaceOnUse"
       x1="618.94"
       y1="953.59"
       x2="644.42"
       y2="953.59" />
    <linearGradient
       inkscape:collect="always"
       xlink:href="#linearGradient4183"
       id="linearGradient8638"
       gradientUnits="userSpaceOnUse"
       x1="618.94"
       y1="953.59"
       x2="644.42"
       y2="953.59" />
    <linearGradient
       inkscape:collect="always"
       xlink:href="#linearGradient4183"
       id="linearGradient8640"
       gradientUnits="userSpaceOnUse"
       x1="618.94"
       y1="953.59"
       x2="644.42"
       y2="953.59" />
    <linearGradient
       inkscape:collect="always"
       xlink:href="#linearGradient4183"
       id="linearGradient8642"
       gradientUnits="userSpaceOnUse"
       x1="618.94"
       y1="953.59"
       x2="644.42"
       y2="953.59" />
    <linearGradient
       inkscape:collect="always"
       xlink:href="#linearGradient4183"
       id="linearGradient8644"
       gradientUnits="userSpaceOnUse"
       x1="618.94"
       y1="953.59"
       x2="644.42"
       y2="953.59" />
    <linearGradient
       inkscape:collect="always"
       xlink:href="#linearGradient4183"
       id="linearGradient8646"
       gradientUnits="userSpaceOnUse"
       x1="618.94"
       y1="953.59"
       x2="644.42"
       y2="953.59" />
    <linearGradient
       inkscape:collect="always"
       xlink:href="#linearGradient4183"
       id="linearGradient8648"
       gradientUnits="userSpaceOnUse"
       x1="618.94"
       y1="953.59"
       x2="644.42"
       y2="953.59" />
    <linearGradient
       inkscape:collect="always"
       xlink:href="#linearGradient4183"
       id="linearGradient8650"
       gradientUnits="userSpaceOnUse"
       x1="618.94"
       y1="953.59"
       x2="644.42"
       y2="953.59" />
    <linearGradient
       inkscape:collect="always"
       xlink:href="#linearGradient4183"
       id="linearGradient8652"
       gradientUnits="userSpaceOnUse"
       x1="618.94"
       y1="953.59"
       x2="644.42"
       y2="953.59" />
    <linearGradient
       inkscape:collect="always"
       xlink:href="#linearGradient4183"
       id="linearGradient8654"
       gradientUnits="userSpaceOnUse"
       x1="618.94"
       y1="953.59"
       x2="644.42"
       y2="953.59" />
    <linearGradient
       inkscape:collect="always"
       xlink:href="#linearGradient4183"
       id="linearGradient8656"
       gradientUnits="userSpaceOnUse"
       x1="618.94"
       y1="953.59"
       x2="644.42"
       y2="953.59" />
    <linearGradient
       inkscape:collect="always"
       xlink:href="#linearGradient4183"
       id="linearGradient8658"
       gradientUnits="userSpaceOnUse"
       x1="618.94"
       y1="953.59"
       x2="644.42"
       y2="953.59" />
    <linearGradient
       inkscape:collect="always"
       xlink:href="#linearGradient4183"
       id="linearGradient8660"
       gradientUnits="userSpaceOnUse"
       x1="618.94"
       y1="953.59"
       x2="644.42"
       y2="953.59" />
    <linearGradient
       inkscape:collect="always"
       xlink:href="#linearGradient4183"
       id="linearGradient8662"
       gradientUnits="userSpaceOnUse"
       x1="618.94"
       y1="953.59"
       x2="644.42"
       y2="953.59" />
    <linearGradient
       inkscape:collect="always"
       xlink:href="#linearGradient4183"
       id="linearGradient8664"
       gradientUnits="userSpaceOnUse"
       x1="618.94"
       y1="953.59"
       x2="644.42"
       y2="953.59" />
    <linearGradient
       inkscape:collect="always"
       xlink:href="#linearGradient4183"
       id="linearGradient8666"
       gradientUnits="userSpaceOnUse"
       x1="618.94"
       y1="953.59"
       x2="644.42"
       y2="953.59" />
  </defs>
  <sodipodi:namedview
     id="base"
     pagecolor="#ffffff"
     bordercolor="#666666"
     borderopacity="1.0"
     inkscape:pageopacity="0.0"
     inkscape:pageshadow="2"
     inkscape:zoom="1.979899"
     inkscape:cx="311.1183"
     inkscape:cy="466.78119"
     inkscape:document-units="px"
     inkscape:current-layer="layer1"
     showgrid="false"
     inkscape:window-width="1366"
     inkscape:window-height="710"
     inkscape:window-x="-4"
     inkscape:window-y="0"
     inkscape:window-maximized="1" />
  <metadata
     id="metadata5643">
    <rdf:RDF>
      <cc:Work
         rdf:about="">
        <dc:format>image/svg+xml</dc:format>
        <dc:type
           rdf:resource="http://purl.org/dc/dcmitype/StillImage" />
        <dc:title></dc:title>
      </cc:Work>
    </rdf:RDF>
  </metadata>
  <g
     inkscape:label="Capa 1"
     inkscape:groupmode="layer"
     id="layer1">
    <g
       id="g428"
       transform="matrix(0.41663009,0,0,-0.41663009,-1544.7638,1108.0878)">
      <g
         clip-path="url(#clipPath432)"
         id="g430">
        <path
           inkscape:connector-curvature="0"
           id="path436"
           style="fill:#604020;fill-opacity:1;fill-rule:evenodd;stroke:none"
           d="m 4357.97,1522.22 4.13,4.4 6.42,2.6 8.95,2.41 8.49,3 7.57,1 7.11,-0.2 9.41,-1.8 6.88,-2.8 4.82,-0.81 4.82,-2 3.21,-0.6 3.9,-1.6 6.19,-2 -1.83,-2.4 5.05,-3.2 4.59,-2.01 -2.99,-2 -0.22,-3.4 1.6,-6 -2.52,-0.4 -0.46,-2.61 1.6,-3.39 4.59,-5.21 -1.38,-3.4 -1.6,-5.01 3.9,-9.6 8.26,-7.21 5.27,-4.2 1.38,-4.2 1.38,-3.2 2.29,-4.2 2.07,-2.2 1.15,-2.21 1.37,-5.2 1.38,-2.8 0,-7.41 -75.03,0 -57.13,0.8 0.24,6.01 0,5 1.14,4.4 3.21,4.61 0,4.2 2.07,5.6 2.75,4.2 2.07,5.21 2.75,8.2 -2.29,-1.2 -2.53,-3.2 2.07,6.8 0.91,5.01 0,2.6 -1.83,3.01 -1.83,1.99 -2.76,0.4 -2.3,2.61 -3.21,2.19 -1.37,2.81 1.61,2.8 5.27,4.8 4.13,6.61 5.28,4.4" />
        <g
           transform="scale(1.06822,0.931777)"
           id="g438">
          <path
             inkscape:connector-curvature="0"
             id="path440"
             style="fill:none;stroke:#010101;stroke-width:1.07966006;stroke-linecap:butt;stroke-linejoin:miter;stroke-miterlimit:10;stroke-dasharray:none;stroke-opacity:1"
             d="m 4079.64,1633.67 3.87,4.73 6.01,2.79 8.38,2.58 7.95,3.23 7.08,1.06 6.66,-0.21 8.81,-1.94 6.44,-3 4.51,-0.86 4.51,-2.15 3.01,-0.64 3.65,-1.72 5.79,-2.14 -1.71,-2.59 4.73,-3.43 4.29,-2.15 -2.79,-2.15 -0.21,-3.65 1.5,-6.44 -2.36,-0.43 -0.43,-2.8 1.5,-3.64 4.29,-5.59 -1.29,-3.65 -1.5,-5.37 3.65,-10.31 7.74,-7.73 4.93,-4.51 1.29,-4.51 1.3,-3.44 2.14,-4.51 1.93,-2.36 1.08,-2.36 1.29,-5.59 1.29,-3.01 0,-7.95 -70.24,0 -53.48,0.86 0.22,6.45 0,5.37 1.07,4.72 3,4.94 0,4.52 1.94,6 2.58,4.52 1.93,5.58 2.58,8.81 -2.15,-1.29 -2.36,-3.43 1.93,7.29 0.86,5.38 0,2.79 -1.72,3.22 -1.71,2.15 -2.59,0.43 -2.15,2.79 -3,2.36 -1.29,3.02 1.51,3 4.93,5.15 3.87,7.09 4.94,4.72 z" />
        </g>
        <path
           inkscape:connector-curvature="0"
           id="path442"
           style="fill:#402001;fill-opacity:1;fill-rule:evenodd;stroke:none"
           d="m 4451.11,1453.88 -0.04,1.2 -0.09,1.2 -0.16,1.19 -0.24,1.18 -0.29,1.17 -0.37,1.16 -0.42,1.14 -0.49,1.11 -0.55,1.09 -0.61,1.06 -0.67,1.04 -0.72,1.01 -0.78,0.96 -0.82,0.93 -0.89,0.9 -0.92,0.84 -0.98,0.82 -1.02,0.75 -1.06,0.71 -1.09,0.66 -1.13,0.61 -1.17,0.56 -1.19,0.5 -1.23,0.45 -1.24,0.38 -1.26,0.34 -1.28,0.27 -1.29,0.21 -1.31,0.15 -1.31,0.09 -1.31,0.03 0,0 -1.31,-0.03 -1.31,-0.09 -1.31,-0.15 -1.29,-0.21 -1.27,-0.27 -1.27,-0.34 -1.24,-0.38 -1.22,-0.45 -1.2,-0.5 -1.16,-0.56 -1.14,-0.61 -1.09,-0.66 -1.06,-0.71 -1.02,-0.75 -0.97,-0.82 -0.93,-0.84 -0.89,-0.9 -0.82,-0.93 -0.78,-0.96 -0.72,-1.01 -0.66,-1.04 -0.61,-1.06 -0.56,-1.09 -0.48,-1.11 -0.43,-1.14 -0.36,-1.16 -0.3,-1.17 -0.23,-1.18 -0.17,-1.19 -0.09,-1.2 -0.04,-1.2 0,0 0.04,-1.2 0.09,-1.2 0.17,-1.19 0.23,-1.18 0.3,-1.18 0.36,-1.15 0.43,-1.14 0.48,-1.11 0.56,-1.1 0.61,-1.05 0.66,-1.04 0.72,-1.01 0.78,-0.97 0.82,-0.93 0.89,-0.89 0.93,-0.84 0.97,-0.82 1.02,-0.75 1.06,-0.71 1.09,-0.66 1.14,-0.62 1.16,-0.55 1.2,-0.5 1.22,-0.45 1.24,-0.39 1.27,-0.33 1.27,-0.27 1.29,-0.21 1.31,-0.15 1.31,-0.09 1.31,-0.04 0,0 1.31,0.04 1.31,0.09 1.31,0.15 1.29,0.21 1.28,0.27 1.26,0.33 1.24,0.39 1.23,0.45 1.19,0.5 1.17,0.55 1.13,0.62 1.09,0.66 1.06,0.71 1.02,0.75 0.98,0.82 0.92,0.84 0.89,0.89 0.82,0.93 0.78,0.97 0.72,1.01 0.67,1.04 0.61,1.05 0.55,1.1 0.49,1.11 0.42,1.14 0.37,1.15 0.29,1.18 0.24,1.18 0.16,1.19 0.09,1.2 0.04,1.2" />
        <path
           inkscape:connector-curvature="0"
           id="path444"
           style="fill:#402001;fill-opacity:1;fill-rule:evenodd;stroke:none"
           d="m 4364.16,1511.81 -3.21,-2.2 -2.75,-1.4 -2.75,-1 -2.76,-0.8 -2.06,-0.8 -1.61,-1.61 -0.92,-1.19 0,-2.01 1.15,-1.6 2.75,-0.79 3.45,-0.4 4.35,-2.01 2.75,-5 2.3,-4.01 0.23,-4 -0.92,-4 -2.52,-5.6 -2.53,-4.2 -2.75,-3.61 -2.29,-4.4 -0.46,-4.4 0,-4.81 -1.15,-3.4 -3.44,-4 -2.76,-3.4 -2.06,-4.41 36.02,7.21 0.46,64.44 -16.52,3.4" />
        <path
           inkscape:connector-curvature="0"
           id="path446"
           style="fill:#ffbfbf;fill-opacity:1;fill-rule:evenodd;stroke:none"
           d="m 4364.62,1509.01 -1.84,-6.2 -0.91,-3.61 -0.92,-3.2 -0.23,-2.39 0,-2.21 0.69,-3.4 -1.15,-1.8 -1.15,-4.01 -0.22,-1.99 0,-4.41 0.46,-5 1.37,-5.21 0,-4.8 1.15,-4.2 2.75,-1.4 4.13,-1.01 6.88,-0.19 1.15,0 0,-7.81 -1.83,-2 -2.53,-1.6 -3.67,-1.4 -1.37,-8.01 2.75,-10.61 5.74,-10.4 8.02,-13.41 9.86,-13.4 5.05,-6.41 6.89,9.61 5.51,9.41 8.48,14.2 1.84,8.4 3.21,15.02 -0.46,10.2 -3.67,1.2 -2.98,2.6 -1.14,1.81 -1.16,4.2 0,8 -0.91,4.81 2.07,2.4 3.44,4.2 2.06,2.8 1.83,3.6 2.07,5 1.15,5.01 0.46,4.6 -0.92,4.21 -0.92,4.2 -1.38,2.4 -2.52,5.8 -2.07,2.41 -3.9,3.6 -6.65,2.2 -9.41,2.4 -7.79,0 -5.97,-0.4 -7.11,-1.6 -5.06,-1.8 -5.04,-3.61 -2.07,-3.2 -2.06,-3.6" />
        <path
           inkscape:connector-curvature="0"
           id="path448"
           style="fill:#ff9f9f;fill-opacity:1;fill-rule:evenodd;stroke:none"
           d="m 4407.75,1467.18 -2.06,-3 -4.59,-3 -4.59,-2 -6.65,-2 -3.9,-1.21 9.17,1.61 4.59,1.2 3.91,0.4 1.6,2 2.52,6" />
        <path
           inkscape:connector-curvature="0"
           id="path450"
           style="fill:#ff9f9f;fill-opacity:1;fill-rule:evenodd;stroke:none"
           d="m 4382.74,1455.58 2.76,-4.2 2.52,-2.81 3.91,-4.4 1.6,-3.8 0.92,-3.21 1.14,-2.39 -3.66,1.8 -2.99,0 -2.52,-1.8 -2.76,3 -2.06,1.19 -4.82,0.81 -5.28,0.6 0,3 4.37,1.6 0.91,1.2 0,8.61 5.96,0.8" />
        <path
           inkscape:connector-curvature="0"
           id="path452"
           style="fill:#ff9f9f;fill-opacity:1;fill-rule:evenodd;stroke:none"
           d="m 4399.26,1436.57 2.76,1.2 3.67,0.4 13.31,0 5.73,-0.4 -8.25,-1.2 -9.87,0.8 -7.35,-0.8" />
        <path
           inkscape:connector-curvature="0"
           id="path454"
           style="fill:#604020;fill-opacity:1;fill-rule:evenodd;stroke:none"
           d="m 4368.06,1511.01 2.53,-1 1.37,-1 2.75,-1.6 2.52,-0.8 2.07,-0.2 2.3,-0.8 2.76,-1.61 2.28,-2.79 1.84,-2.6 -0.69,5 3.67,-0.8 2.53,-1.8 1.83,-2.6 2.52,-3.21 0,-2.2 0.46,-2.6 0.92,3.6 1.6,-4.4 1.84,-2.21 2.53,-2.19 0.46,-2.21 0,-1.99 1.6,0.8 2.52,1.19 2.99,0 3.44,-0.8 0.92,-1.99 0,-2.61 -1.6,-2 -1.61,-2.61 -1.15,-2.6 3.67,-1.99 2.75,-3.81 2.07,-1.8 4.36,-3.6 2.3,-2.4 3.66,-3.01 2.53,-1.59 5.27,-2.61 4.36,-2.6 11.02,-1.6 4.82,0.4 -6.89,9.21 -4.82,12.2 -6.65,7.01 -1.84,9.6 -1.83,10.21 -2.75,10 -4.59,12.21 -6.43,6.81 -6.43,4.61 -7.11,3.6 -8.03,1.8 -8.02,0.4 -5.74,0 -7.8,-3 -4.59,-4.81 -4.13,-6.2 -3.9,-2.81 -1.84,-0.4 -1.14,-0.79 -2.76,-1.01 5.28,-3.4" />
        <path
           inkscape:connector-curvature="0"
           id="path456"
           style="fill:#806040;fill-opacity:1;fill-rule:evenodd;stroke:none"
           d="m 4379.76,1517.02 6.66,-4.41 1.6,-1.6 5.51,-2.8 2.52,-3.4 2.29,-3.01 2.76,-2.6 4.59,-4.8 3.67,-2.2 2.53,-2.6 4.13,-3 2.75,-1.01 1.15,-3 0.91,-3.2 1.61,-7 1.37,-2.01 2.3,-2.4 3.67,-1.6 3.22,-1.59 1.82,-2.2 4.14,-5.81 5.05,-2.8 3.2,-1.6 2.07,-1.81 2.76,-2.39 10.55,-5.61 -10.33,8 -2.98,3.41 -2.52,4 -3.9,2.4 -2.53,1.2 -1.83,2.6 4.36,-1.59 4.35,-2.61 3.91,-3.2 3.9,-2.21 5.27,-4.8 1.38,-2.39 -2.06,6.39 -4.59,5.01 -3.68,2.4 -2.06,4.01 -2.52,2.79 -6.43,2.01 -5.04,2.4 -4.59,3.6 -2.29,4.21 -3.22,4 -2.75,1.6 -2.76,1.59 -7.79,3.21 -9.19,8.81 -2.98,6.2 -4.59,5.01 -4.12,1.4 -3.68,3.4 -7.57,1.6" />
        <path
           inkscape:connector-curvature="0"
           id="path458"
           style="fill:#806040;fill-opacity:1;fill-rule:evenodd;stroke:none"
           d="m 4368.52,1517.82 3.9,1.2 4.36,0 2.98,-0.4 5.74,-2.81 11.01,-2.99 2.75,-0.8 2.76,-2.21 3.21,-4.2 4.13,-3.81 3.9,-1.8 5.04,-2.2 3.22,-0.19 7.57,-1.61 3.91,-2.39 3.66,-1.41 4.36,-0.8 5.28,-0.8 -6.88,-0.2 -5.51,0.6 -3.67,1.2 -5.05,1.8 -3.44,0.4 -2.98,0 4.13,-2.2 2.75,-1.8 4.59,-2.2 5.05,-1.81 5.04,-1.6 3.68,-2.2 2.75,-2.39 -8.72,3.19 -7.34,3.21 -5.97,1.6 -4.81,2.2 -4.6,2.6 -4.35,3.8 -3.22,3.2 -2.06,3.21 -2.75,4 -4.14,3 -3.67,1.6 -7.11,2.6 -6.42,1.8 -3.44,0.81 -3.21,-0.41 -6.43,1.21" />
        <path
           inkscape:connector-curvature="0"
           id="path460"
           style="fill:#806040;fill-opacity:1;fill-rule:evenodd;stroke:none"
           d="m 4366.22,1519.02 0.46,3.4 4.82,3.2 1.84,1.2 3.44,1.2 2.98,0.4 6.2,1.6 2.98,1.61 3.9,0.8 8.26,0 5.51,-0.8 2.75,-1.2 3.9,-2.41 4.13,-1.2 5.51,-1.4 3.67,-0.79 7.11,-0.81 -9.41,0 -5.27,1.8 -4.59,2.01 -5.28,2 -3.44,0.8 -4.81,0.8 -8.04,0 -2.75,-1.6 4.36,-0.41 4.35,-1.59 5.97,-3 3.44,-2.21 5.05,-1 6.66,-1.2 18.12,-2.4 4.82,-1.61 -10.79,1.61 -6.88,0.8 -6.19,0.4 -6.89,1.6 -5.5,0.8 -1.84,0.8 -5.97,1.8 -2.75,0.8 -2.52,0.8 -3.44,0 2.75,-0.8 5.05,-2.4 4.81,-2.2 4.37,-2.4 4.13,-1.61 5.28,-1.8 1.82,-1.59 1.62,-1.01 3.43,-2 3.22,-2.4 2.52,-2.6 4.82,-1.6 5.05,-1.41 -16.52,6.22 -4.6,2.19 -5.95,2.4 -4.82,1.8 -4.13,2.2 -4.6,1.21 -3.21,1.2 -1.6,1.8 -2.52,1.6 -5.05,1.6 -2.52,0.8 -7.57,0 -3.45,-0.19 -2.06,-1.41 -4.14,-4.2" />
        <path
           inkscape:connector-curvature="0"
           id="path462"
           style="fill:#ff2040;fill-opacity:1;fill-rule:evenodd;stroke:none"
           d="m 4415.31,1469.29 -0.01,0.28 -0.02,0.29 -0.04,0.27 -0.05,0.27 -0.07,0.27 -0.08,0.27 -0.11,0.26 -0.11,0.26 -0.13,0.25 -0.14,0.25 -0.16,0.25 -0.17,0.22 -0.18,0.23 -0.19,0.22 -0.21,0.2 -0.22,0.2 -0.22,0.19 -0.25,0.17 -0.25,0.17 -0.25,0.15 -0.27,0.15 -0.27,0.12 -0.28,0.12 -0.29,0.1 -0.29,0.09 -0.29,0.08 -0.3,0.06 -0.31,0.05 -0.3,0.03 -0.3,0.03 -0.32,0 0,0 -0.31,0 -0.3,-0.03 -0.3,-0.03 -0.31,-0.05 -0.3,-0.06 -0.3,-0.08 -0.28,-0.09 -0.29,-0.1 -0.29,-0.12 -0.26,-0.12 -0.27,-0.15 -0.25,-0.15 -0.25,-0.17 -0.25,-0.17 -0.22,-0.19 -0.22,-0.2 -0.21,-0.2 -0.19,-0.22 -0.18,-0.23 -0.18,-0.22 -0.15,-0.25 -0.14,-0.25 -0.13,-0.25 -0.11,-0.26 -0.11,-0.26 -0.08,-0.27 -0.07,-0.27 -0.05,-0.27 -0.04,-0.27 -0.03,-0.29 0,-0.28 0,0 0,-0.27 0.03,-0.29 0.04,-0.27 0.05,-0.27 0.07,-0.27 0.08,-0.28 0.11,-0.25 0.11,-0.26 0.13,-0.25 0.14,-0.25 0.15,-0.25 0.18,-0.22 0.18,-0.23 0.19,-0.22 0.21,-0.21 0.22,-0.19 0.22,-0.19 0.25,-0.17 0.25,-0.17 0.25,-0.15 0.27,-0.15 0.26,-0.12 0.29,-0.12 0.29,-0.1 0.28,-0.1 0.3,-0.07 0.3,-0.06 0.31,-0.05 0.3,-0.04 0.3,-0.02 0.31,0 0,0 0.32,0 0.3,0.02 0.3,0.04 0.31,0.05 0.3,0.06 0.29,0.07 0.29,0.1 0.29,0.1 0.28,0.12 0.27,0.12 0.27,0.15 0.25,0.15 0.25,0.17 0.25,0.17 0.22,0.19 0.22,0.19 0.21,0.21 0.19,0.22 0.18,0.23 0.17,0.22 0.16,0.25 0.14,0.25 0.13,0.25 0.11,0.26 0.11,0.25 0.08,0.28 0.07,0.27 0.05,0.27 0.04,0.27 0.02,0.29 0.01,0.27" />
        <path
           inkscape:connector-curvature="0"
           id="path464"
           style="fill:#606060;fill-opacity:1;fill-rule:evenodd;stroke:none"
           d="m 4362.78,998.082 -0.91,-4.605 -0.69,-4.2 -0.46,-5.007 0,-2.2 -2.99,0 -1.37,20.21 6.42,-4.198" />
        <path
           inkscape:connector-curvature="0"
           id="path466"
           style="fill:#010101;fill-opacity:1;fill-rule:evenodd;stroke:none"
           d="m 4354.98,1023.29 -2.29,-2.79 -1.61,-1.8 -0.92,-2.01 -0.46,-2.2 -0.45,-2.2 0.45,-2.4 0.24,-3 1.38,-2.01 0.91,-1.4 1.84,-2.8 0.91,-2.598 0.92,-2.805 0,-2.8 0.92,-2.403 0.23,-3.199 0,-4.805 2.3,0 0,10.008 -0.46,3.805 -0.69,3.199 5.04,-3.199 3.9,-2.809 3.45,-3.797 3.2,-1.601 2.53,-2.203 3.44,-2.2 5.04,-2.003 2.76,-0.805 3.45,-1.195 3.67,-0.399 8.48,0 6.66,0.801 3.44,1.195 -2.99,4 -3.2,2.008 -6.89,3.199 -5.05,1.602 -5.04,-0.801 -7.35,2.199 -7.11,3.805 -4.13,3.411 -3.9,4.59 -4.82,6.6 -5.05,6.81 -2.75,5" />
        <path
           inkscape:connector-curvature="0"
           id="path468"
           style="fill:#ff9f9f;fill-opacity:1;fill-rule:evenodd;stroke:none"
           d="m 4409.36,1128.77 -5.51,-18.02 -10.1,-40.82 -4.12,-15.62 -3.9,-13 -2.29,-8.01 -1.84,-6.2 -1.84,-8.4 0,-4.21 0.92,-3.8 2.06,-4.2 2.3,-4.21 2.52,-3.796 3.9,-3.406 2.53,-3 2.98,-2.004 -6.2,-0.402 -6.88,1.203 -5.5,2.199 -5.51,2.809 -3.67,5.207 -4.36,6.39 -3.44,4 -2.3,3.61 -2.29,3.61 -0.92,3.4 1.37,2.4 1.84,3 1.15,3.6 0.69,5.6 0.46,6.21 0.69,7.21 0.68,8.4 0,18.41 -0.68,6.41 0,7.2 0.68,6.21 2.07,6.8 1.37,7.2 2.99,7.81 3.67,11.41 36.48,-1.2" />
        <g
           transform="scale(1.06822,0.931777)"
           id="g470">
          <path
             inkscape:connector-curvature="0"
             id="path472"
             style="fill:none;stroke:#010101;stroke-width:1.07966006;stroke-linecap:butt;stroke-linejoin:miter;stroke-miterlimit:10;stroke-dasharray:none;stroke-opacity:1"
             d="m 4127.75,1211.41 -5.16,-19.33 -9.45,-43.82 -3.86,-16.75 -3.65,-13.95 -2.14,-8.6 -1.73,-6.66 -1.72,-9.02 0,-4.51 0.86,-4.08 1.93,-4.51 2.15,-4.51 2.37,-4.08 3.65,-3.65 2.36,-3.22 2.8,-2.15 -5.81,-0.44 -6.44,1.3 -5.15,2.36 -5.16,3.01 -3.44,5.58 -4.07,6.87 -3.23,4.29 -2.15,3.88 -2.14,3.86 -0.86,3.65 1.28,2.58 1.72,3.22 1.08,3.86 0.64,6.02 0.43,6.66 0.65,7.73 0.64,9.02 0,19.76 -0.64,6.88 0,7.72 0.64,6.67 1.94,7.3 1.28,7.73 2.79,8.38 3.44,12.24 34.15,-1.29 z" />
        </g>
        <path
           inkscape:connector-curvature="0"
           id="path474"
           style="fill:#ffbfbf;fill-opacity:1;fill-rule:evenodd;stroke:none"
           d="m 4355.9,1129.17 0,-11.41 1.37,-9.41 0.7,-8.8 1.14,-6.61 1.15,-6.4 1.84,-7.01 2.06,-6.8 1.38,-4.6 1.84,-5.81 1.83,-6.4 1.38,-5 1.37,-4.21 1.38,-4.4 1.37,-5.2 1.16,-6.01 0.68,-4 0.68,-5.4 0,-9.21 -2.98,-7 -1.83,-4.4 -2.06,-5.813 -1.15,-3.797 0.45,-4.605 3.22,-3.004 4.35,-0.598 7.35,-0.402 5.05,1.399 2.98,3.406 1.38,3.199 0.69,4.203 2.29,4.402 1.37,4.4 0.92,4.41 -0.92,5.2 -1.37,4.21 -1.15,6 -0.91,5.2 -0.23,3.8 0,4.81 -0.23,5.6 0.23,4 0,4.21 0.23,5.59 0.68,4.61 0.92,4.21 1.38,5 0.45,3.6 0.46,5.6 0,22.82 0.92,4.4 1.16,3.8 0.44,3.6 -0.44,4.61 -0.7,10.41 -44.28,-0.4" />
        <g
           transform="scale(1.06822,0.931777)"
           id="g476">
          <path
             inkscape:connector-curvature="0"
             id="path478"
             style="fill:none;stroke:#010101;stroke-width:1.07966006;stroke-linecap:butt;stroke-linejoin:miter;stroke-miterlimit:10;stroke-dasharray:none;stroke-opacity:1"
             d="m 4077.71,1211.84 0,-12.24 1.28,-10.1 0.65,-9.45 1.07,-7.09 1.08,-6.87 1.72,-7.52 1.93,-7.3 1.29,-4.94 1.72,-6.22 1.71,-6.88 1.29,-5.37 1.3,-4.51 1.29,-4.73 1.28,-5.58 1.08,-6.45 0.64,-4.29 0.64,-5.79 0,-9.88 -2.79,-7.52 -1.72,-4.73 -1.93,-6.23 -1.08,-4.08 0.43,-4.94 3.01,-3.22 4.08,-0.64 6.88,-0.43 4.72,1.5 2.79,3.65 1.29,3.44 0.65,4.51 2.15,4.72 1.28,4.73 0.86,4.72 -0.86,5.59 -1.28,4.51 -1.08,6.44 -0.85,5.58 -0.22,4.09 0,5.15 -0.22,6.01 0.22,4.3 0,4.51 0.22,6.01 0.64,4.95 0.85,4.51 1.3,5.36 0.42,3.87 0.43,6.01 0,24.49 0.86,4.72 1.08,4.09 0.42,3.86 -0.42,4.94 -0.65,11.17 -41.45,-0.43 z" />
        </g>
        <path
           inkscape:connector-curvature="0"
           id="path480"
           style="fill:#ff9f9f;fill-opacity:1;fill-rule:evenodd;stroke:none"
           d="m 4398.8,1114.16 -6.65,-2.41 -3.21,-2 -2.3,-1.4 -2.28,-1.6 -2.76,-2.4 -2.75,-1.6 -3.44,-2.21 -2.99,-1.8 -2.98,-1.99 -3.22,-2.2 -3.89,-2.81 -1.61,-1.6 -1.61,8.81 -0.68,7.4 -1.16,9.01 -0.22,10.6 0,4.81 44.74,-5.41 -2.99,-11.2" />
        <path
           inkscape:connector-curvature="0"
           id="path482"
           style="fill:#010101;fill-opacity:1;fill-rule:evenodd;stroke:none"
           d="m 4368.75,995.078 -2.07,-3.402 -1.37,-2.399 -1.38,-1.601 -1.6,-2.004 -0.92,-2 -0.46,-1.602 -0.92,-2.398 0.23,-3.207 1.15,-1.594 1.83,-1.808 3.9,-1.403 4.36,-1.594 2.75,-0.8 4.6,-1.203 4.81,1.601 4.13,1.598 2.76,2.199 0.91,2.203 0.69,3.606 0.92,3.203 0.46,2.601 0.92,2.602 0.46,2.398 0.22,2.602 0.69,2.402 1.15,2.203 1.37,2.199 0.92,3.2 0,4.41 -1.37,-3.61 -0.92,-4 -1.84,-2.199 -0.68,-3.004 -0.92,-3.597 -0.69,-3.004 -1.15,-1.203 -2.75,-1.801 -2.06,-0.402 -2.99,-0.399 -4.13,0.399 -3.44,0.804 -2.98,0.801 -1.84,1 -2.06,2.402 0,2.203 -0.69,3.598" />
        <path
           inkscape:connector-curvature="0"
           id="path484"
           style="fill:#404040;fill-opacity:1;fill-rule:evenodd;stroke:none"
           d="m 4370.59,985.473 -4.37,-0.801 2.99,-0.801 3.21,-0.801 -3.67,0 -2.29,-0.597 -1.84,-0.805 2.98,-0.398 3.44,-0.805 1.84,-1.594 0.91,-1.203 0.92,-1.203 0.92,-0.402 0.69,0.804 6.66,0 3.66,-0.804 -0.91,0.804 -2.75,1.602 -2.3,0.801 7.8,0 -5.04,1.195 -3.22,0.402 -9.63,4.606" />
        <path
           inkscape:connector-curvature="0"
           id="path486"
           style="fill:#ffbfbf;fill-opacity:1;fill-rule:evenodd;stroke:none"
           d="m 4323.79,1243.44 -2.08,-7.8 0,-6.21 -0.45,-5.2 0.45,-1.6 0.92,-1.61 1.16,-3.79 0.91,-3.41 0.69,-2 1.38,-1.6 2.75,-1.01 2.06,-0.99 1.84,-1.2 1.6,-0.6 2.99,-1.21 -3.45,6.21 -3.67,6.4 0.69,2.01 0,5.6 -7.79,18.01" />
        <path
           inkscape:connector-curvature="0"
           id="path488"
           style="fill:#ff0101;fill-opacity:1;fill-rule:evenodd;stroke:none"
           d="m 4372.88,1443.37 -11.93,-2.2 -5.05,-1.4 -4.58,-1.2 -10.11,-2 -6.87,-2.21 -4.36,-2 -4.37,-2.6 -2.98,-2 -1.37,-4.21 0,-30.21 3.67,-35.63 -1.14,-19.21 -3.45,-17.61 -1.61,-30.62 -0.69,-20.82 3.22,-26.01 7.34,-22.02 7.34,-19.81 8.72,-18.81 5.04,-18.01 3.45,-14.61 0.92,-6.41 0.46,-7.6 0,-9.01 14.68,-3.39 -0.46,-7.21 6.2,-0.81 7.79,-1.2 5.28,-0.39 12.16,0 5.97,0.79 5.96,2.01 5.28,1.6 4.59,2.2 3.67,16.01 9.64,47.03 8.72,35.42 4.81,29.42 5.05,25.02 1.15,20.02 -3.68,18.6 -6.19,15.82 -2.29,10.4 1.15,8.41 1.37,5.6 1.38,4.41 2.06,5.19 2.06,4.41 4.14,9 16.98,63.05 -3.68,4.2 -7.79,2.6 -18.82,1.2 -20.19,1.2 -1.84,-17.41 -2.29,-9.6 -2.98,-7.81 -5.5,-10.41 -5.06,-8.2 -5.96,-9 -10.33,15.6 -9.86,16.61 -3.45,7.61 -1.37,5.2 -0.46,3.6 -0.46,4.61 0.92,4.8" />
        <g
           transform="scale(1.06822,0.931777)"
           id="g490">
          <path
             inkscape:connector-curvature="0"
             id="path492"
             style="fill:none;stroke:#010101;stroke-width:1.07966006;stroke-linecap:butt;stroke-linejoin:miter;stroke-miterlimit:10;stroke-dasharray:none;stroke-opacity:1"
             d="m 4093.6,1549.05 -11.17,-2.36 -4.72,-1.51 -4.29,-1.28 -9.46,-2.15 -6.44,-2.37 -4.08,-2.15 -4.09,-2.79 -2.79,-2.14 -1.28,-4.52 0,-32.43 3.43,-38.23 -1.07,-20.62 -3.22,-18.9 -1.51,-32.86 -0.64,-22.34 3.01,-27.92 6.87,-23.63 6.87,-21.26 8.16,-20.19 4.73,-19.32 3.22,-15.69 0.86,-6.87 0.43,-8.16 0,-9.67 13.74,-3.64 -0.43,-7.74 5.81,-0.86 7.29,-1.29 4.95,-0.42 11.38,0 5.59,0.85 5.58,2.15 4.94,1.72 4.3,2.36 3.43,17.18 9.02,50.48 8.17,38.01 4.5,31.58 4.73,26.85 1.08,21.48 -3.45,19.96 -5.79,16.98 -2.15,11.16 1.08,9.03 1.28,6.01 1.29,4.73 1.93,5.57 1.93,4.74 3.88,9.66 15.89,67.66 -3.44,4.5 -7.3,2.8 -17.61,1.29 -18.9,1.29 -1.72,-18.69 -2.15,-10.31 -2.79,-8.38 -5.15,-11.17 -4.74,-8.8 -5.57,-9.66 -9.67,16.74 -9.24,17.83 -3.22,8.17 -1.29,5.58 -0.43,3.87 -0.42,4.94 0.85,5.15 z" />
        </g>
        <path
           inkscape:connector-curvature="0"
           id="path494"
           style="fill:#800101;fill-opacity:1;fill-rule:evenodd;stroke:none"
           d="m 4326.31,1412.95 3.21,-3.2 2.3,-4.61 1.82,-4.2 0,-7.2 0.7,-5.61 4.59,-15.4 8.25,-14.41 2.98,-5.41 -5.5,6.8 -3.67,7.41 -4.36,8.4 -4.13,9.82 -2.98,6.39 -2.07,6.61 -0.68,5.2 -0.46,9.41" />
        <path
           inkscape:connector-curvature="0"
           id="path496"
           style="fill:#800101;fill-opacity:1;fill-rule:evenodd;stroke:none"
           d="m 4361.41,1377.13 -2.98,-7 -2.53,-4.21 -3.9,-4.6 0,-11.02 6.43,4.21 4.81,3.2 5.97,2 6.2,2.01 7.33,1.6 6.2,0.39 -6.88,3.41 -7.81,2.6 -12.84,7.41" />
        <path
           inkscape:connector-curvature="0"
           id="path498"
           style="fill:#010101;fill-opacity:1;fill-rule:evenodd;stroke:none"
           d="m 4372.41,1360.82 0,0.19 -0.01,0.18 -0.03,0.19 -0.03,0.18 -0.04,0.19 -0.04,0.18 -0.06,0.18 -0.06,0.17 -0.08,0.17 -0.08,0.16 -0.09,0.17 -0.09,0.15 -0.1,0.15 -0.12,0.15 -0.11,0.14 -0.12,0.13 -0.13,0.13 -0.14,0.12 -0.14,0.1 -0.15,0.11 -0.15,0.1 -0.15,0.08 -0.16,0.07 -0.16,0.08 -0.17,0.06 -0.16,0.05 -0.18,0.04 -0.17,0.03 -0.17,0.03 -0.18,0.01 -0.17,0.01 0,0 -0.17,-0.01 -0.17,-0.01 -0.18,-0.03 -0.17,-0.03 -0.17,-0.04 -0.17,-0.05 -0.16,-0.06 -0.17,-0.08 -0.16,-0.07 -0.15,-0.08 -0.15,-0.1 -0.15,-0.11 -0.14,-0.1 -0.13,-0.12 -0.13,-0.13 -0.12,-0.13 -0.12,-0.14 -0.11,-0.15 -0.11,-0.15 -0.09,-0.15 -0.09,-0.17 -0.07,-0.16 -0.08,-0.17 -0.06,-0.17 -0.06,-0.18 -0.05,-0.18 -0.04,-0.19 -0.03,-0.18 -0.02,-0.19 -0.01,-0.18 -0.01,-0.19 0,0 0.01,-0.19 0.01,-0.18 0.02,-0.19 0.03,-0.18 0.04,-0.19 0.05,-0.18 0.06,-0.17 0.06,-0.18 0.08,-0.17 0.07,-0.16 0.09,-0.17 0.09,-0.15 0.11,-0.15 0.11,-0.15 0.12,-0.14 0.12,-0.13 0.13,-0.13 0.13,-0.12 0.14,-0.1 0.15,-0.11 0.15,-0.1 0.15,-0.08 0.16,-0.08 0.17,-0.07 0.16,-0.06 0.17,-0.05 0.17,-0.04 0.17,-0.03 0.18,-0.03 0.17,-0.01 0.17,-0.01 0,0 0.17,0.01 0.18,0.01 0.17,0.03 0.17,0.03 0.18,0.04 0.16,0.05 0.17,0.06 0.16,0.07 0.16,0.08 0.15,0.08 0.15,0.1 0.15,0.11 0.14,0.1 0.14,0.12 0.13,0.13 0.12,0.13 0.11,0.14 0.12,0.15 0.1,0.15 0.09,0.15 0.09,0.17 0.08,0.16 0.08,0.17 0.06,0.18 0.06,0.17 0.04,0.18 0.04,0.19 0.03,0.18 0.03,0.19 0.01,0.18 0,0.19" />
        <path
           inkscape:connector-curvature="0"
           id="path500"
           style="fill:#010101;fill-opacity:1;fill-rule:evenodd;stroke:none"
           d="m 4374.94,1332.5 -0.01,0.18 -0.01,0.18 -0.03,0.18 -0.03,0.19 -0.04,0.17 -0.05,0.17 -0.06,0.18 -0.07,0.17 -0.07,0.17 -0.09,0.16 -0.1,0.16 -0.1,0.15 -0.11,0.14 -0.12,0.14 -0.12,0.14 -0.14,0.13 -0.13,0.12 -0.14,0.11 -0.15,0.12 -0.16,0.09 -0.16,0.1 -0.17,0.08 -0.16,0.07 -0.17,0.08 -0.18,0.05 -0.18,0.06 -0.18,0.03 -0.19,0.04 -0.18,0.03 -0.19,0 -0.18,0.01 0,0 -0.18,-0.01 -0.19,0 -0.19,-0.03 -0.18,-0.04 -0.18,-0.03 -0.18,-0.06 -0.17,-0.05 -0.18,-0.08 -0.16,-0.07 -0.17,-0.08 -0.16,-0.1 -0.16,-0.09 -0.15,-0.12 -0.14,-0.11 -0.13,-0.12 -0.14,-0.13 -0.12,-0.14 -0.11,-0.14 -0.12,-0.14 -0.1,-0.15 -0.1,-0.16 -0.08,-0.16 -0.08,-0.17 -0.07,-0.17 -0.06,-0.18 -0.05,-0.17 -0.04,-0.17 -0.04,-0.19 -0.02,-0.18 -0.01,-0.18 -0.01,-0.18 0,0 0.01,-0.18 0.01,-0.18 0.02,-0.18 0.04,-0.19 0.04,-0.17 0.05,-0.17 0.06,-0.18 0.07,-0.17 0.08,-0.17 0.08,-0.16 0.1,-0.16 0.1,-0.15 0.12,-0.14 0.11,-0.14 0.12,-0.14 0.14,-0.13 0.13,-0.12 0.14,-0.11 0.15,-0.12 0.16,-0.09 0.16,-0.09 0.17,-0.09 0.16,-0.07 0.18,-0.07 0.17,-0.06 0.18,-0.06 0.18,-0.03 0.18,-0.04 0.19,-0.03 0.19,0 0.18,-0.01 0,0 0.18,0.01 0.19,0 0.18,0.03 0.19,0.04 0.18,0.03 0.18,0.06 0.18,0.06 0.17,0.07 0.16,0.07 0.17,0.09 0.16,0.09 0.16,0.09 0.15,0.12 0.14,0.11 0.13,0.12 0.14,0.13 0.12,0.14 0.12,0.14 0.11,0.14 0.1,0.15 0.1,0.16 0.09,0.16 0.07,0.17 0.07,0.17 0.06,0.18 0.05,0.17 0.04,0.17 0.03,0.19 0.03,0.18 0.01,0.18 0.01,0.18" />
        <path
           inkscape:connector-curvature="0"
           id="path502"
           style="fill:#010101;fill-opacity:1;fill-rule:evenodd;stroke:none"
           d="m 4424.27,1330 -0.01,0.2 -0.01,0.2 -0.02,0.19 -0.04,0.2 -0.04,0.19 -0.04,0.19 -0.06,0.19 -0.07,0.18 -0.08,0.18 -0.09,0.17 -0.1,0.18 -0.1,0.16 -0.11,0.16 -0.11,0.16 -0.12,0.15 -0.14,0.13 -0.13,0.14 -0.15,0.12 -0.15,0.12 -0.15,0.11 -0.17,0.09 -0.17,0.1 -0.16,0.08 -0.17,0.07 -0.18,0.07 -0.18,0.06 -0.18,0.03 -0.18,0.04 -0.18,0.02 -0.19,0.02 -0.19,0.01 0,0 -0.18,-0.01 -0.19,-0.02 -0.18,-0.02 -0.18,-0.04 -0.19,-0.03 -0.18,-0.06 -0.17,-0.07 -0.17,-0.07 -0.17,-0.08 -0.17,-0.1 -0.16,-0.09 -0.16,-0.11 -0.14,-0.12 -0.15,-0.12 -0.13,-0.14 -0.14,-0.13 -0.12,-0.15 -0.11,-0.16 -0.12,-0.16 -0.1,-0.16 -0.1,-0.18 -0.08,-0.17 -0.08,-0.18 -0.07,-0.18 -0.06,-0.19 -0.05,-0.19 -0.04,-0.19 -0.03,-0.2 -0.03,-0.19 0,-0.2 -0.02,-0.2 0,0 0.02,-0.19 0,-0.2 0.03,-0.2 0.03,-0.19 0.04,-0.19 0.05,-0.19 0.06,-0.19 0.07,-0.18 0.08,-0.18 0.08,-0.18 0.1,-0.17 0.1,-0.17 0.12,-0.16 0.11,-0.15 0.12,-0.15 0.14,-0.13 0.13,-0.14 0.15,-0.12 0.14,-0.12 0.16,-0.11 0.16,-0.1 0.17,-0.09 0.17,-0.08 0.17,-0.08 0.17,-0.06 0.18,-0.06 0.19,-0.04 0.18,-0.04 0.18,-0.01 0.19,-0.02 0.18,-0.01 0,0 0.19,0.01 0.19,0.02 0.18,0.01 0.18,0.04 0.18,0.04 0.18,0.06 0.18,0.06 0.17,0.08 0.16,0.08 0.17,0.09 0.17,0.1 0.15,0.11 0.15,0.12 0.15,0.12 0.13,0.14 0.14,0.13 0.12,0.15 0.11,0.15 0.11,0.16 0.1,0.17 0.1,0.17 0.09,0.18 0.08,0.18 0.07,0.18 0.06,0.19 0.04,0.19 0.04,0.19 0.04,0.19 0.02,0.2 0.01,0.2 0.01,0.19" />
        <g
           transform="scale(1.06822,0.931777)"
           id="g504">
          <path
             inkscape:connector-curvature="0"
             id="path506"
             style="fill:none;stroke:#010101;stroke-width:1.07966006;stroke-linecap:butt;stroke-linejoin:miter;stroke-miterlimit:10;stroke-dasharray:none;stroke-opacity:1"
             d="m 4140.43,1551.63 4.72,-0.43 4.73,-0.43 7.51,-0.86 4.08,0.22 4.3,-0.65 4.51,0.43 3.44,-0.64 1.71,-1.3 -0.21,-1.28 -2.79,-7.73 -2.15,-8.59 -1.71,-4.73 -1.73,-5.8 -1.72,-5.16 -2.36,-4.93 -1.71,-4.52 -2.37,-4.08 -2.37,-4.07 -2.14,-3.45 -2.15,-3 -1.5,-3.43 -2.79,-3.23 -1.94,-3.22 -2.58,-2.36 -2.78,-2.58 -3.23,-3.44 -3.44,-2.36 0,-0.43" />
        </g>
        <path
           inkscape:connector-curvature="0"
           id="path508"
           style="fill:#800101;fill-opacity:1;fill-rule:evenodd;stroke:none"
           d="m 4393.75,1319.29 -13.53,-75.25 4.82,-3.2 2.52,-7.21 1.38,-5.2 1.15,-7.41 0,-16.81 1.37,-2 0,-2.2 1.15,-2 0,-2.4 1.14,-2 0.93,-2 1.14,-2.01 0,-2.2 1.15,-2 0,-8.41 -3.22,142.3" />
        <path
           inkscape:connector-curvature="0"
           id="path510"
           style="fill:#800101;fill-opacity:1;fill-rule:evenodd;stroke:none"
           d="m 4369.21,1324.49 -19.51,-82.65 1.16,19.81 1.14,7 0,8.61 -1.14,2.01 -1.16,2.19 19.51,43.03" />
        <path
           inkscape:connector-curvature="0"
           id="path512"
           style="fill:#800101;fill-opacity:1;fill-rule:evenodd;stroke:none"
           d="m 4419.68,1318.09 2.3,-78.25 0,2 1.37,2.2 0,2.2 1.38,2.01 0,3.2 1.15,2.79 1.15,2.21 0,2 1.38,2.2 0,12.4 -8.73,45.04" />
        <path
           inkscape:connector-curvature="0"
           id="path514"
           style="fill:#800101;fill-opacity:1;fill-rule:evenodd;stroke:none"
           d="m 4428.41,1315.68 7.57,-10.6 15.36,-16.21 0,26.22 -10.32,1.19 -12.61,-0.6" />
        <g
           transform="scale(1.06822,0.931777)"
           id="g516">
          <path
             inkscape:connector-curvature="0"
             id="path518"
             style="fill:none;stroke:#010101;stroke-width:1.07966006;stroke-linecap:butt;stroke-linejoin:miter;stroke-miterlimit:10;stroke-dasharray:none;stroke-opacity:1"
             d="m 4142.14,1463.14 -0.43,-41.45" />
        </g>
        <g
           transform="scale(1.06822,0.931777)"
           id="g520">
          <path
             inkscape:connector-curvature="0"
             id="path522"
             style="fill:none;stroke:#010101;stroke-width:1.07966006;stroke-linecap:butt;stroke-linejoin:miter;stroke-miterlimit:10;stroke-dasharray:none;stroke-opacity:1"
             d="m 4073.42,1426.62 8.37,-2.57 6.87,-0.86 9.02,-1.5 8.6,-0.87 10.74,-0.64 12.24,-0.64 12.02,0.86 9.67,1.06 9.24,3.02 1.71,0" />
        </g>
        <path
           inkscape:connector-curvature="0"
           id="path524"
           style="fill:#800101;fill-opacity:1;fill-rule:evenodd;stroke:none"
           d="m 4345.81,1357.11 3.21,-7.4 0.23,-9.41 0.45,-11.01 -4.81,-8 -4.82,-9.41 -3.67,-7.6 -2.76,-6.81 -3.2,-8.2 -2.99,-8.61 -1.84,-6.8 -1.82,-9.81 -0.7,-6.4 0,-11.41 1.61,-11.4 -2.99,13.8 -1.37,12.22 -1.61,9.4 0.69,7.8 0.92,7.2 0,11.42 0.92,16.21 0.45,9.6 0.92,5.61 2.07,-5.61 1.84,-2.8 2.98,-2.4 4.12,-0.8 3.68,1.2 5.27,1.6 0.46,6.8 -1.84,4 -2.75,4.81 -1.83,5.4 -2.99,4.2 -0.91,3.61 -1.37,6 0,10.41 -0.92,7 2.52,-11.21 1.84,-3.79 2.06,-4.81 3.89,-2.6 2.76,0 1.15,4.2 1.15,3.8" />
        <g
           transform="scale(1.06822,0.931777)"
           id="g526">
          <path
             inkscape:connector-curvature="0"
             id="path528"
             style="fill:none;stroke:#010101;stroke-width:1.07966006;stroke-linecap:butt;stroke-linejoin:miter;stroke-miterlimit:10;stroke-dasharray:none;stroke-opacity:1"
             d="m 4073.2,1464.43 -2.79,-2.59 -0.44,-3.64 1.3,-3.22 -0.86,-4.52 0,-2.14 0.86,-1.72 0.21,-2.58 1.72,-1.72 -1.93,-1.29 -0.86,-8.15 1.07,-6.24 -1.94,-5.8 -4.07,-6.22 -3.65,-7.3 -1.93,-6.23 -3.02,-7.74 -1.71,-5.8 -2.58,-8.58 -2.14,-7.95 -1.29,-6.02 -1.09,-7.51 -1.07,-6.88 -1.29,-9.67 0,-4.72" />
        </g>
        <path
           inkscape:connector-curvature="0"
           id="path530"
           style="fill:#800101;fill-opacity:1;fill-rule:evenodd;stroke:none"
           d="m 4366.68,1438.96 -6.42,-1.19 -5.28,-1.4 -5.28,-1.6 -5.73,-1.21 -3.44,-1.2 -5.73,-0.4 -4.36,-1.8 3.2,-5 2.07,-3.6 2.07,-4.21 3.21,-6.4 3.67,-4.81 4.36,-6.2 2.75,-5 4.13,-5.6 3.45,-5.61 2.98,-2.41 5.05,-3.39 5.5,-2.81 5.97,-3.4 6.19,-2.8 6.65,-2.2 6.65,-1.4 7.81,-1.61 12.85,-2.39 2.52,-1.61 -11.47,10.81 -7.35,5.41 -6.19,5.39 -4.82,5.81 -4.81,7.01 -2.99,5.4 -3.21,4.8 -2.98,5.8 -2.99,4.01 -2.29,5.8 -2.06,6.01 -1.84,7.6 -1.84,5.4" />
        <path
           inkscape:connector-curvature="0"
           id="path532"
           style="fill:#ff0101;fill-opacity:1;fill-rule:evenodd;stroke:none"
           d="m 4370.36,1441.77 -6.2,-1 -5.73,-1.6 -5.28,-1.61 -5.51,-0.99 -3.67,-1 -5.51,-0.8 -4.12,-1.61 -4.82,-2.8 3.44,-4.4 2.52,-4.6 3.45,-6.81 2.75,-4.01 3.44,-4.4 3.9,-4.19 3.21,-4.41 3.67,-3.8 3.45,-3.6 3.67,-3.61 3.44,-2.4 4.58,-3 5.51,-3.2 5.97,-3.21 6.42,-3 6.19,-2 6.89,-1.6 8.03,-1.6 12.85,-2 2.29,-1.61 -10.78,10.41 -8.26,5.41 -5.97,5.4 -5.05,6.01 -4.36,7 -3.21,5.4 -2.98,4.8 -2.98,5.61 -3.21,4.21 -2.52,5.59 -1.62,6.01 -1.83,7.81 -2.06,5.2" />
        <g
           transform="scale(1.06822,0.931777)"
           id="g534">
          <path
             inkscape:connector-curvature="0"
             id="path536"
             style="fill:none;stroke:#010101;stroke-width:1.07966006;stroke-linecap:butt;stroke-linejoin:miter;stroke-miterlimit:10;stroke-dasharray:none;stroke-opacity:1"
             d="m 4091.24,1547.33 -5.8,-1.07 -5.37,-1.72 -4.94,-1.72 -5.16,-1.07 -3.43,-1.07 -5.16,-0.86 -3.86,-1.73 -4.51,-3 3.22,-4.72 2.36,-4.95 3.23,-7.29 2.57,-4.31 3.22,-4.72 3.66,-4.51 3,-4.72 3.44,-4.08 3.22,-3.87 3.44,-3.87 3.22,-2.57 4.29,-3.23 5.16,-3.43 5.58,-3.44 6.02,-3.23 5.79,-2.14 6.45,-1.72 7.52,-1.71 12.03,-2.15 2.14,-1.73 -10.09,11.18 -7.73,5.8 -5.59,5.8 -4.73,6.44 -4.08,7.52 -3,5.79 -2.79,5.16 -2.8,6.01 -3,4.52 -2.36,6.01 -1.51,6.44 -1.72,8.38 -1.93,5.58 z" />
        </g>
        <path
           inkscape:connector-curvature="0"
           id="path538"
           style="fill:#010101;fill-opacity:1;fill-rule:evenodd;stroke:none"
           d="m 4423.81,1362.52 -0.01,0.19 -0.01,0.2 -0.02,0.19 -0.04,0.19 -0.04,0.18 -0.04,0.19 -0.06,0.18 -0.07,0.18 -0.08,0.17 -0.09,0.18 -0.09,0.17 -0.11,0.15 -0.11,0.15 -0.11,0.16 -0.13,0.14 -0.13,0.13 -0.13,0.13 -0.15,0.12 -0.15,0.12 -0.15,0.1 -0.17,0.1 -0.16,0.09 -0.17,0.08 -0.17,0.08 -0.17,0.05 -0.19,0.06 -0.18,0.04 -0.18,0.03 -0.18,0.03 -0.2,0.01 -0.18,0.01 0,0 -0.18,-0.01 -0.19,-0.01 -0.18,-0.03 -0.18,-0.03 -0.19,-0.04 -0.18,-0.06 -0.17,-0.05 -0.17,-0.08 -0.17,-0.08 -0.16,-0.09 -0.17,-0.1 -0.16,-0.1 -0.14,-0.12 -0.15,-0.12 -0.13,-0.13 -0.14,-0.13 -0.12,-0.14 -0.11,-0.16 -0.12,-0.15 -0.1,-0.15 -0.1,-0.17 -0.08,-0.18 -0.08,-0.17 -0.07,-0.18 -0.06,-0.18 -0.04,-0.19 -0.05,-0.18 -0.03,-0.19 -0.03,-0.19 -0.01,-0.2 0,-0.19 0,0 0,-0.19 0.01,-0.19 0.03,-0.19 0.03,-0.19 0.05,-0.19 0.04,-0.18 0.06,-0.18 0.07,-0.19 0.08,-0.17 0.08,-0.17 0.1,-0.17 0.1,-0.16 0.12,-0.15 0.11,-0.15 0.12,-0.14 0.14,-0.14 0.13,-0.13 0.15,-0.12 0.14,-0.11 0.16,-0.11 0.17,-0.1 0.16,-0.09 0.17,-0.07 0.17,-0.08 0.17,-0.06 0.18,-0.06 0.19,-0.04 0.18,-0.03 0.18,-0.02 0.19,-0.02 0.18,-0.01 0,0 0.18,0.01 0.2,0.02 0.18,0.02 0.18,0.03 0.18,0.04 0.19,0.06 0.17,0.06 0.17,0.08 0.17,0.07 0.16,0.09 0.17,0.1 0.15,0.11 0.15,0.11 0.15,0.12 0.13,0.13 0.13,0.14 0.13,0.14 0.11,0.15 0.11,0.15 0.11,0.16 0.09,0.17 0.09,0.17 0.08,0.17 0.07,0.19 0.06,0.18 0.04,0.18 0.04,0.19 0.04,0.19 0.02,0.19 0.01,0.19 0.01,0.19" />
        <path
           inkscape:connector-curvature="0"
           id="path540"
           style="fill:#ffbfbf;fill-opacity:1;fill-rule:evenodd;stroke:none"
           d="m 4455.71,1317.29 -7.81,1.2 -5.04,0 -4.82,-0.4 -2.75,-0.4 -2.29,-0.4 -1.84,-0.61 -2.07,-0.19 -0.46,0 0.23,-1.61 0.69,-1.19 1.61,-1.21 2.52,-0.39 1.61,0 1.83,0.19 2.3,0.2 3.67,0 -0.7,-1.39 -0.68,-0.61 -1.84,-1 -1.37,-0.59 -1.84,-0.41 -2.52,-0.6 15.14,-17.01 3.9,2 2.53,1.61 1.83,1.4 2.53,1.59 2.06,1.6 1.6,1.21 1.84,1.99 1.38,1.61 1.83,2 1.84,1.2 -3.22,4.4 -2.74,2.21 -2.07,1.4 -2.3,1.19 -4.58,1.01" />
        <path
           inkscape:connector-curvature="0"
           id="path542"
           style="fill:#ff9f9f;fill-opacity:1;fill-rule:evenodd;stroke:none"
           d="m 4455.25,1317.69 -7.57,0.8 -3.45,0.4 -1.84,0 -4.35,-0.4 -2.98,-0.4 -2.52,-0.8 -1.84,0 -1.84,-0.61 -0.45,0 0.22,-1.59 0.46,-1.2 1.61,-1 2.3,-0.61 2.06,0 1.83,0.2 2.07,0.41 3.9,0 -0.69,-1.6 -0.92,-0.6 -1.83,-1.01 -1.38,-0.6 -1.84,-0.4 -2.29,-0.8 33.04,4 -2.75,2.01 -1.84,1.6 -2.29,1 -4.82,1.2" />
        <path
           inkscape:connector-curvature="0"
           id="path544"
           style="fill:#ff0101;fill-opacity:1;fill-rule:evenodd;stroke:none"
           d="m 4455.02,1375.52 11.47,-6.39 6.88,-10.42 2.52,-6.2 0,-3.4 -5.96,-5.2 0,-6.41 -3.44,-8.21 -12.39,-6.6 -5.74,-3.8 3.9,-0.4 4.83,-1.2 3.2,-1.61 2.99,-1.79 2.29,-3.41 1.15,-3.4 0,-3.2 -1.15,-5.61 10.56,5.61 7.11,5.8 6.88,6.21 10.32,14.61 7.12,14.41 0.69,10.8 -2.99,15.61 -17.2,33.82 -16.52,33.43 -12.16,-46.84 -4.36,-16.21" />
        <g
           transform="scale(1.06822,0.931777)"
           id="g546">
          <path
             inkscape:connector-curvature="0"
             id="path548"
             style="fill:none;stroke:#010101;stroke-width:1.07966006;stroke-linecap:butt;stroke-linejoin:miter;stroke-miterlimit:10;stroke-dasharray:none;stroke-opacity:1"
             d="m 4170.5,1476.24 10.74,-6.87 6.44,-11.17 2.36,-6.66 0,-3.65 -5.59,-5.59 0,-6.87 -3.21,-8.81 -11.6,-7.08 -5.38,-4.09 3.65,-0.42 4.52,-1.29 3,-1.72 2.8,-1.93 2.15,-3.66 1.07,-3.65 0,-3.43 -1.07,-6.02 9.88,6.02 6.65,6.22 6.45,6.67 9.66,15.67 6.66,15.47 0.64,11.6 -2.79,16.75 -16.11,36.3 -15.46,35.87 -11.39,-50.27 -4.07,-17.39 z" />
        </g>
        <path
           inkscape:connector-curvature="0"
           id="path550"
           style="fill:#800101;fill-opacity:1;fill-rule:evenodd;stroke:none"
           d="m 4466.49,1415.35 -4.13,-17.01 -2.07,-8.2 -1.83,-6.21 -2.3,-8.41 4.37,-1.99 3.67,-1.81 3.66,-2.59 2.07,-3.61 2.07,-3 2.75,-4.01 0.23,10.21 1.61,8.01 -1.16,5.2 -1.37,2.8 -0.69,8.01 -6.88,22.61" />
        <path
           inkscape:connector-curvature="0"
           id="path552"
           style="fill:#010101;fill-opacity:1;fill-rule:evenodd;stroke:none"
           d="m 4462.13,1391.73 4.59,-21.01 -1.15,16.01 -3.44,5" />
        <path
           inkscape:connector-curvature="0"
           id="path554"
           style="fill:#800101;fill-opacity:1;fill-rule:evenodd;stroke:none"
           d="m 4475.89,1359.52 3.68,4.19 5.05,2.61 5.04,0.4 5.73,-0.8 0.93,-2.21 -1.61,-1.6 -3.67,-1.59 -3.9,0 -4.36,-0.21 -6.89,-0.79" />
        <path
           inkscape:connector-curvature="0"
           id="path556"
           style="fill:#800101;fill-opacity:1;fill-rule:evenodd;stroke:none"
           d="m 4477.5,1357.91 3.9,0.41 5.51,-0.61 5.5,-1.19 4.6,-1.61 2.97,-0.4 -4.59,-0.4 -3.44,0 -4.13,0.4 -3.2,-0.4 -2.76,-0.4 -2.06,-0.4 -2.99,0 -1.38,4.21 2.07,0.39" />
        <path
           inkscape:connector-curvature="0"
           id="path558"
           style="fill:#800101;fill-opacity:1;fill-rule:evenodd;stroke:none"
           d="m 4472,1344.31 3.43,-1.61 3.68,-1.2 3.67,-0.8 3.22,-0.4 3.2,-0.39 3.67,-0.41 1.15,0 -4.82,-0.4 -4.36,-0.6 -3.44,-0.8 -3.9,-1 -3.89,-0.6 -2.76,0.6 0.45,7 0.7,0.61" />
        <path
           inkscape:connector-curvature="0"
           id="path560"
           style="fill:#800101;fill-opacity:1;fill-rule:evenodd;stroke:none"
           d="m 4504.8,1352.91 -6.42,0.4 -4.36,-0.8 -2.98,-1 -2.98,-0.8 -4.36,-0.8 -2.99,-0.2 5.97,-1 4.36,-1.4 4.13,-1.2 4.13,-0.61 3.22,0.21 1.37,1.4 -0.46,1.2 -1.38,1.99 -1.15,1.41 3.9,1.2" />
        <path
           inkscape:connector-curvature="0"
           id="path562"
           style="fill:#800101;fill-opacity:1;fill-rule:evenodd;stroke:none"
           d="m 4389.86,1362.11 -10.1,-3.4 -4.35,-1.6 -3.91,-1.4 1.84,0 5.51,-2.4 5.73,-0.8 4.36,-0.8 4.81,-0.8 3.22,-1.4 0,2 -2.52,3.4 -1.84,3.41 -2.75,3.79" />
        <path
           inkscape:connector-curvature="0"
           id="path564"
           style="fill:#800101;fill-opacity:1;fill-rule:evenodd;stroke:none"
           d="m 4470.85,1334.9 2.52,-3.2 3.68,-2 5.73,-3.2 -0.92,-1 -4.81,1.8 -4.6,0.8 -4.59,0 2.99,6.8" />
        <g
           transform="scale(1.06822,0.931777)"
           id="g566">
          <path
             inkscape:connector-curvature="0"
             id="path568"
             style="fill:none;stroke:#ff0101;stroke-width:1.07966006;stroke-linecap:butt;stroke-linejoin:miter;stroke-miterlimit:10;stroke-dasharray:none;stroke-opacity:1"
             d="m 4145.79,1411.16 21.05,-28.35" />
        </g>
        <g
           transform="scale(1.06822,0.931777)"
           id="g570">
          <path
             inkscape:connector-curvature="0"
             id="path572"
             style="fill:none;stroke:#800101;stroke-width:1.07966006;stroke-linecap:butt;stroke-linejoin:miter;stroke-miterlimit:10;stroke-dasharray:none;stroke-opacity:1"
             d="m 4055.8,1503.3 3.87,-10.95 1.29,-5.15 2.79,-7.1 4.51,-5.15" />
        </g>
        <path
           inkscape:connector-curvature="0"
           id="path574"
           style="fill:#010101;fill-opacity:1;fill-rule:evenodd;stroke:none"
           d="m 4346.26,1375.93 4.6,-4.41 4.12,-1.6 -1.83,-2 -1.15,-3 -1.14,-1.21 -1.16,4.21 -0.68,2.6 -2.76,5.41" />
        <path
           inkscape:connector-curvature="0"
           id="path576"
           style="fill:#800101;fill-opacity:1;fill-rule:evenodd;stroke:none"
           d="m 4372.42,1214.22 -2.52,-89.86 -6.66,1.4 -5.97,1.4 2.08,7.21 2.75,14.61 1.37,14.61 2.53,13.4 1.38,13.01 2.06,10.81 2.98,13.41" />
        <path
           inkscape:connector-curvature="0"
           id="path578"
           style="fill:#ffffff;fill-opacity:1;fill-rule:evenodd;stroke:none"
           d="m 4374.71,1489.2 -0.46,-1.81 -0.46,-1.19 1.84,-0.4 2.76,-0.21 5.27,0 1.14,0.61 -2.28,1.19 -2.76,1.41 -1.37,0.4 -2.07,0.6 -1.61,-0.6" />
        <path
           inkscape:connector-curvature="0"
           id="path580"
           style="fill:#ffffff;fill-opacity:1;fill-rule:evenodd;stroke:none"
           d="m 4360.95,1490.6 -0.23,-1.6 0.69,-1.2 2.52,-0.41 0.69,0.61 0.92,1 -0.23,1 -1.38,0.6 -1.83,0.2 -1.15,-0.2" />
        <path
           inkscape:connector-curvature="0"
           id="path582"
           style="fill:#806040;fill-opacity:1;fill-rule:evenodd;stroke:none"
           d="m 4371.96,1494 4.36,1.2 2.98,-0.8 3.22,-0.79 2.06,-1.81 2.06,-1.4 -4.12,1.4 -2.76,1.2 -2.06,0.61 -2.07,0 -2.29,-0.61 -1.38,1" />
        <path
           inkscape:connector-curvature="0"
           id="path584"
           style="fill:#806040;fill-opacity:1;fill-rule:evenodd;stroke:none"
           d="m 4365.31,1494.4 -2.07,1.2 -1.37,0.4 -1.84,0.8 0.23,-1.6 1.15,0 3.9,-0.8" />
        <path
           inkscape:connector-curvature="0"
           id="path586"
           style="fill:#ff0101;fill-opacity:1;fill-rule:evenodd;stroke:none"
           d="m 4362.1,1472.59 2.52,-0.2 2.98,0 1.61,-0.6 2.75,-1.8 1.38,-1.2 1.37,-0.81 -0.46,-0.8 -2.75,-0.4 -2.75,-0.6 -3.21,0 -2.76,0.6 -0.91,0 -0.92,0.4 0,1.61 0.46,0.4 0.69,0.4 -0.69,0.4 -0.46,1.4 0.23,0.8 0.92,0.4" />
        <path
           inkscape:connector-curvature="0"
           id="path588"
           style="fill:#ff2040;fill-opacity:1;fill-rule:evenodd;stroke:none"
           d="m 4368.52,1469.19 1.61,-0.4 2.29,-0.4 1.37,-0.41 0.92,0 -1.83,-0.8 -2.52,0 -2.07,-0.8 -1.61,0 -1.83,0.4 -2.07,0.4 -0.91,0 -0.69,1.21 0.23,0.8 0.69,0.4 1.83,-0.4 4.59,0" />
        <path
           inkscape:connector-curvature="0"
           id="path590"
           style="fill:#ff9f9f;fill-opacity:1;fill-rule:evenodd;stroke:none"
           d="m 4360.49,1477 5.28,-0.41 -1.61,-1.8 -3.67,2.21" />
        <path
           inkscape:connector-curvature="0"
           id="path592"
           style="fill:#54391d;fill-opacity:1;fill-rule:evenodd;stroke:none"
           d="m 4382.05,1487.5 -0.01,0.13 -0.01,0.12 -0.03,0.13 -0.03,0.12 -0.04,0.13 -0.06,0.12 -0.07,0.12 -0.06,0.11 -0.09,0.12 -0.1,0.11 -0.09,0.11 -0.11,0.11 -0.12,0.1 -0.12,0.1 -0.14,0.09 -0.13,0.09 -0.15,0.08 -0.16,0.09 -0.15,0.07 -0.17,0.07 -0.17,0.07 -0.18,0.05 -0.18,0.05 -0.18,0.05 -0.18,0.04 -0.19,0.03 -0.19,0.04 -0.2,0.01 -0.19,0.02 -0.2,0.02 -0.2,0 -0.2,0 -0.2,-0.02 -0.19,-0.02 -0.2,-0.01 -0.19,-0.04 -0.19,-0.03 -0.19,-0.04 -0.18,-0.05 -0.18,-0.05 -0.17,-0.05 -0.18,-0.07 -0.16,-0.07 -0.16,-0.07 -0.15,-0.09 -0.15,-0.08 -0.14,-0.09 -0.13,-0.09 -0.13,-0.1 -0.11,-0.1 -0.11,-0.11 -0.1,-0.11 -0.1,-0.11 -0.08,-0.12 -0.07,-0.11 -0.06,-0.12 -0.06,-0.12 -0.05,-0.13 -0.03,-0.12 -0.03,-0.13 -0.01,-0.12 0,-0.13 0,0 0,-0.13 0.01,-0.12 0.03,-0.13 0.03,-0.12 0.05,-0.13 0.06,-0.12 0.06,-0.12 0.07,-0.11 0.08,-0.12 0.1,-0.11 0.1,-0.11 0.11,-0.11 0.11,-0.1 0.13,-0.09 0.13,-0.09 0.14,-0.1 0.15,-0.08 0.15,-0.08 0.16,-0.08 0.16,-0.07 0.18,-0.06 0.17,-0.06 0.18,-0.05 0.18,-0.05 0.19,-0.04 0.19,-0.03 0.19,-0.03 0.2,-0.02 0.19,-0.02 0.2,-0.02 0.2,0 0.2,0 0.2,0.02 0.19,0.02 0.2,0.02 0.19,0.03 0.19,0.03 0.18,0.04 0.18,0.05 0.18,0.05 0.18,0.06 0.17,0.06 0.17,0.07 0.15,0.08 0.16,0.08 0.15,0.08 0.13,0.1 0.14,0.09 0.12,0.09 0.12,0.1 0.11,0.11 0.09,0.11 0.1,0.11 0.09,0.12 0.06,0.11 0.07,0.12 0.06,0.12 0.04,0.13 0.03,0.12 0.03,0.13 0.01,0.12 0.01,0.13" />
        <path
           inkscape:connector-curvature="0"
           id="path594"
           style="fill:#010101;fill-opacity:1;fill-rule:evenodd;stroke:none"
           d="m 4379.76,1487.21 0,0.09 -0.01,0.09 -0.02,0.09 -0.02,0.09 -0.03,0.09 -0.03,0.08 -0.04,0.09 -0.05,0.09 -0.04,0.08 -0.06,0.08 -0.07,0.08 -0.07,0.07 -0.06,0.08 -0.08,0.07 -0.09,0.07 -0.07,0.07 -0.1,0.05 -0.1,0.06 -0.09,0.05 -0.1,0.05 -0.11,0.05 -0.11,0.04 -0.11,0.04 -0.11,0.03 -0.12,0.03 -0.11,0.03 -0.12,0.02 -0.13,0.01 -0.12,0.02 -0.12,0 -0.12,0 -0.12,0 -0.12,0 -0.13,-0.02 -0.12,-0.01 -0.12,-0.02 -0.11,-0.03 -0.12,-0.03 -0.12,-0.03 -0.1,-0.04 -0.11,-0.04 -0.11,-0.05 -0.1,-0.05 -0.09,-0.05 -0.1,-0.06 -0.1,-0.05 -0.07,-0.07 -0.09,-0.07 -0.08,-0.07 -0.07,-0.08 -0.07,-0.07 -0.06,-0.08 -0.06,-0.08 -0.04,-0.08 -0.05,-0.09 -0.04,-0.09 -0.03,-0.08 -0.03,-0.09 -0.03,-0.09 -0.01,-0.09 -0.01,-0.09 0,-0.19 0.01,-0.09 0.01,-0.09 0.03,-0.09 0.03,-0.09 0.03,-0.08 0.04,-0.09 0.05,-0.08 0.04,-0.09 0.06,-0.08 0.06,-0.08 0.07,-0.07 0.07,-0.08 0.08,-0.07 0.09,-0.07 0.07,-0.06 0.1,-0.06 0.1,-0.05 0.09,-0.06 0.1,-0.05 0.11,-0.05 0.11,-0.04 0.1,-0.04 0.12,-0.03 0.12,-0.03 0.11,-0.03 0.12,-0.02 0.12,-0.01 0.13,-0.02 0.12,0 0.12,0 0.12,0 0.12,0 0.12,0.02 0.13,0.01 0.12,0.02 0.11,0.03 0.12,0.03 0.11,0.03 0.11,0.04 0.11,0.04 0.11,0.05 0.1,0.05 0.09,0.06 0.1,0.05 0.1,0.06 0.07,0.06 0.09,0.07 0.08,0.07 0.06,0.08 0.07,0.07 0.07,0.08 0.06,0.08 0.04,0.09 0.05,0.08 0.04,0.09 0.03,0.08 0.03,0.09 0.02,0.09 0.02,0.09 0.01,0.09 0,0.1" />
        <path
           inkscape:connector-curvature="0"
           id="path596"
           style="fill:#ffffff;fill-opacity:1;fill-rule:evenodd;stroke:none"
           d="m 4376.77,1488.51 0,0.05 -0.01,0.02 0,0.03 -0.01,0.03 -0.01,0.02 -0.01,0.02 0,0.02 -0.02,0.03 -0.01,0.02 -0.02,0.02 -0.02,0.02 -0.01,0.02 -0.02,0.02 -0.02,0.02 -0.02,0.02 -0.02,0.01 -0.03,0.02 -0.02,0.01 -0.02,0.02 -0.03,0.02 -0.02,0 -0.03,0.02 -0.03,0.01 -0.02,0 -0.03,0.01 -0.03,0.01 -0.03,0 -0.02,0 -0.06,0 -0.06,0 -0.03,0 -0.03,0 -0.03,-0.01 -0.03,-0.01 -0.02,0 -0.03,-0.01 -0.02,-0.02 -0.03,0 -0.03,-0.02 -0.02,-0.02 -0.02,-0.01 -0.03,-0.02 -0.02,-0.01 -0.02,-0.02 -0.02,-0.02 -0.01,-0.02 -0.02,-0.02 -0.02,-0.02 -0.02,-0.02 -0.01,-0.02 -0.01,-0.03 -0.01,-0.02 -0.01,-0.02 -0.01,-0.02 -0.01,-0.03 0,-0.03 0,-0.02 0,-0.11 0,-0.02 0,-0.02 0.01,-0.03 0.01,-0.02 0.01,-0.03 0.01,-0.02 0.01,-0.02 0.01,-0.02 0.02,-0.03 0.02,-0.02 0.02,-0.02 0.01,-0.02 0.02,-0.01 0.02,-0.03 0.02,-0.01 0.03,-0.02 0.02,-0.01 0.02,-0.02 0.03,-0.01 0.03,-0.01 0.02,-0.01 0.03,-0.01 0.02,-0.01 0.03,-0.01 0.03,0 0.03,0 0.03,-0.01 0.06,0 0.06,0 0.02,0.01 0.03,0 0.03,0 0.03,0.01 0.02,0.01 0.03,0.01 0.03,0.01 0.02,0.01 0.03,0.01 0.02,0.02 0.02,0.01 0.03,0.02 0.02,0.01 0.02,0.03 0.02,0.01 0.02,0.02 0.01,0.02 0.02,0.02 0.02,0.03 0.01,0.02 0.02,0.02 0,0.02 0.01,0.03 0.01,0.02 0.01,0.03 0,0.02 0.01,0.02 0,0.06" />
        <path
           inkscape:connector-curvature="0"
           id="path598"
           style="fill:#ff9f9f;fill-opacity:1;fill-rule:evenodd;stroke:none"
           d="m 4375.63,1490.4 -1.38,-1.2 2.53,-0.2 1.61,-0.2 2.29,-0.8 0.92,-0.8 1.38,-0.6 1.82,-0.8 -2.06,2.6 -1.83,1 -2.06,0.8 -3.22,0.2" />
        <path
           inkscape:connector-curvature="0"
           id="path600"
           style="fill:#54391d;fill-opacity:1;fill-rule:evenodd;stroke:none"
           d="m 4365.07,1489.11 0,0.11 -0.01,0.12 -0.02,0.11 -0.01,0.12 -0.03,0.11 -0.04,0.11 -0.03,0.12 -0.04,0.1 -0.05,0.11 -0.05,0.1 -0.07,0.1 -0.06,0.1 -0.07,0.09 -0.07,0.09 -0.08,0.08 -0.08,0.09 -0.09,0.08 -0.08,0.07 -0.1,0.08 -0.09,0.05 -0.11,0.07 -0.1,0.05 -0.11,0.04 -0.1,0.05 -0.12,0.04 -0.11,0.03 -0.11,0.03 -0.11,0.02 -0.11,0.01 -0.13,0.01 -0.11,0 -0.11,0 -0.12,-0.01 -0.12,-0.01 -0.11,-0.02 -0.11,-0.03 -0.11,-0.03 -0.12,-0.04 -0.1,-0.05 -0.11,-0.04 -0.1,-0.05 -0.1,-0.07 -0.1,-0.05 -0.09,-0.08 -0.09,-0.07 -0.09,-0.08 -0.07,-0.09 -0.08,-0.08 -0.08,-0.09 -0.07,-0.09 -0.06,-0.1 -0.06,-0.1 -0.05,-0.1 -0.06,-0.11 -0.04,-0.1 -0.04,-0.12 -0.03,-0.11 -0.02,-0.11 -0.02,-0.12 -0.02,-0.11 -0.01,-0.12 0,-0.23 0.01,-0.12 0.02,-0.11 0.02,-0.12 0.02,-0.11 0.03,-0.12 0.04,-0.11 0.04,-0.1 0.06,-0.11 0.05,-0.11 0.06,-0.09 0.06,-0.1 0.07,-0.09 0.08,-0.09 0.08,-0.09 0.07,-0.08 0.09,-0.08 0.09,-0.07 0.09,-0.08 0.1,-0.06 0.1,-0.06 0.1,-0.05 0.11,-0.05 0.1,-0.04 0.12,-0.04 0.11,-0.03 0.11,-0.03 0.11,-0.01 0.12,-0.02 0.12,-0.02 0.11,0 0.11,0 0.13,0.02 0.11,0.02 0.11,0.01 0.11,0.03 0.11,0.03 0.12,0.04 0.1,0.04 0.11,0.05 0.1,0.05 0.11,0.06 0.09,0.06 0.1,0.08 0.08,0.07 0.09,0.08 0.08,0.08 0.08,0.09 0.07,0.09 0.07,0.09 0.06,0.1 0.07,0.09 0.05,0.11 0.05,0.11 0.04,0.1 0.03,0.11 0.04,0.12 0.03,0.11 0.01,0.12 0.02,0.11 0.01,0.12 0,0.12" />
        <path
           inkscape:connector-curvature="0"
           id="path602"
           style="fill:#010101;fill-opacity:1;fill-rule:evenodd;stroke:none"
           d="m 4363.23,1489 0,0.07 -0.01,0.08 -0.01,0.07 0,0.07 -0.02,0.07 -0.02,0.06 -0.02,0.07 -0.02,0.07 -0.03,0.06 -0.03,0.07 -0.03,0.06 -0.03,0.06 -0.04,0.05 -0.04,0.06 -0.04,0.04 -0.05,0.06 -0.05,0.05 -0.04,0.04 -0.05,0.05 -0.06,0.03 -0.06,0.04 -0.05,0.03 -0.06,0.03 -0.06,0.02 -0.06,0.03 -0.06,0.02 -0.06,0.02 -0.07,0.01 -0.05,0.01 -0.07,0.01 -0.07,0 -0.06,0 -0.07,-0.01 -0.05,-0.01 -0.07,-0.01 -0.06,-0.02 -0.06,-0.02 -0.06,-0.03 -0.06,-0.02 -0.06,-0.03 -0.05,-0.03 -0.07,-0.04 -0.05,-0.03 -0.05,-0.05 -0.04,-0.04 -0.05,-0.05 -0.05,-0.06 -0.04,-0.04 -0.04,-0.06 -0.04,-0.05 -0.03,-0.06 -0.04,-0.06 -0.02,-0.07 -0.03,-0.06 -0.02,-0.07 -0.02,-0.07 -0.02,-0.06 -0.02,-0.07 -0.01,-0.07 0,-0.07 -0.01,-0.08 0,-0.13 0.01,-0.08 0,-0.07 0.01,-0.06 0.02,-0.07 0.02,-0.07 0.02,-0.07 0.02,-0.07 0.03,-0.06 0.02,-0.07 0.04,-0.05 0.03,-0.07 0.04,-0.05 0.04,-0.06 0.04,-0.04 0.05,-0.06 0.05,-0.04 0.04,-0.05 0.05,-0.04 0.05,-0.04 0.07,-0.04 0.05,-0.03 0.06,-0.03 0.06,-0.02 0.06,-0.03 0.06,-0.02 0.06,-0.01 0.07,-0.02 0.05,-0.01 0.07,0 0.06,0 0.07,0 0.07,0 0.05,0.01 0.07,0.02 0.06,0.01 0.06,0.02 0.06,0.03 0.06,0.02 0.06,0.03 0.05,0.03 0.06,0.04 0.06,0.04 0.05,0.04 0.04,0.05 0.05,0.04 0.05,0.06 0.04,0.04 0.04,0.06 0.04,0.05 0.03,0.07 0.03,0.05 0.03,0.07 0.03,0.06 0.02,0.07 0.02,0.07 0.02,0.07 0.02,0.07 0,0.06 0.01,0.07 0.01,0.08 0,0.06" />
        <path
           inkscape:connector-curvature="0"
           id="path604"
           style="fill:#ffffff;fill-opacity:1;fill-rule:evenodd;stroke:none"
           d="m 4361.85,1490.31 0,0.05 -0.01,0.02 0,0.03 0,0.02 -0.01,0.03 -0.01,0.02 -0.01,0.02 -0.02,0.03 0,0.02 -0.02,0.02 -0.02,0.02 -0.02,0.02 -0.02,0.02 -0.01,0.02 -0.03,0.02 -0.02,0.01 -0.02,0.02 -0.02,0.01 -0.02,0.02 -0.03,0.02 -0.03,0 -0.02,0.02 -0.03,0.01 -0.03,0.01 -0.02,0 -0.04,0.01 -0.02,0 -0.03,0 -0.06,0 -0.06,0 -0.02,0 -0.03,0 -0.04,-0.01 -0.02,0 -0.03,-0.01 -0.03,-0.01 -0.02,-0.02 -0.03,0 -0.02,-0.02 -0.03,-0.02 -0.02,-0.01 -0.02,-0.02 -0.02,-0.01 -0.03,-0.02 -0.01,-0.02 -0.02,-0.02 -0.02,-0.02 -0.01,-0.02 -0.02,-0.02 -0.01,-0.02 -0.02,-0.03 -0.01,-0.02 -0.01,-0.02 0,-0.03 -0.01,-0.02 0,-0.03 -0.01,-0.02 0,-0.11 0.01,-0.02 0,-0.02 0.01,-0.03 0,-0.02 0.01,-0.03 0.01,-0.02 0.02,-0.02 0.01,-0.02 0.02,-0.03 0.01,-0.02 0.02,-0.02 0.02,-0.02 0.01,-0.02 0.03,-0.01 0.02,-0.02 0.02,-0.02 0.02,-0.01 0.03,-0.02 0.02,-0.01 0.03,-0.01 0.02,-0.02 0.03,0 0.03,-0.01 0.02,-0.01 0.04,0 0.03,0 0.02,-0.01 0.06,0 0.06,0 0.03,0.01 0.02,0 0.04,0 0.02,0.01 0.03,0.01 0.03,0 0.02,0.02 0.03,0.01 0.03,0.01 0.02,0.02 0.02,0.01 0.02,0.02 0.02,0.02 0.03,0.01 0.01,0.02 0.02,0.02 0.02,0.02 0.02,0.02 0.02,0.03 0,0.02 0.02,0.02 0.01,0.02 0.01,0.03 0.01,0.02 0,0.03 0,0.02 0.01,0.02 0,0.06" />
        <path
           inkscape:connector-curvature="0"
           id="path606"
           style="fill:#ff9f9f;fill-opacity:1;fill-rule:evenodd;stroke:none"
           d="m 4361.18,1491.8 -0.92,-1.2 1.84,-0.2 1.14,-0.4 2.3,-0.4 0.23,1 -2.53,0.8 -2.06,0.4" />
      </g>
    </g>
    <text
       sodipodi:linespacing="125%"
       id="text9629"
       y="580.36664"
       x="348.99893"
       style="font-style:normal;font-weight:normal;font-size:40px;line-height:125%;font-family:sans-serif;letter-spacing:0px;word-spacing:0px;fill:#ff0000;fill-opacity:1;stroke:none;stroke-width:1px;stroke-linecap:butt;stroke-linejoin:miter;stroke-opacity:1"
       xml:space="preserve"><tspan
         style="font-size:27.5px"
         y="580.36664"
         x="348.99893"
         id="tspan9631"
         sodipodi:role="line">Height</tspan></text>
    <g
       transform="matrix(0.20371036,0,0,0.20371036,208.59169,641.74316)"
       inkscape:label="Laag 1"
       id="layer1-5">
      <g
         transform="matrix(0.81063,0,0,0.81063,67.841,103.98)"
         id="g4127">
        <path
           inkscape:connector-curvature="0"
           style="fill:url(#linearGradient4161)"
           sodipodi:nodetypes="zczz"
           d="M 620.55,485.4 C 609.42,403.4 515.03,313.79 366.48,289.68 185.65,323.91 85.75,412.2 96.53,491.57 c 10.78,79.38 535.16,75.83 524.02,-6.17 z"
           id="path4201" />
        <path
           d="m 252.64,415.5 c -18.301,0 -33.285,12.578 -33.285,27.939 l 0,32.527 c 0,15.362 14.984,27.94 33.285,27.94 l 182.07,0 c 18.301,0 33.285,-12.578 33.285,-27.94 l 0,-32.527 c 0,-15.362 -14.984,-27.939 -33.285,-27.939 z"
           inkscape:connector-curvature="0"
           style="color:#000000;text-indent:0;text-transform:none;block-progression:tb;fill:#808080"
           id="path4203" />
        <path
           d="m 245.91,423.27 190.06,0 c 11.533,0 20.744,7.9862 20.744,17.986 l 0,35.073 c 0,10 -9.2104,17.986 -20.744,17.986 l -190.06,0 c -11.533,0 -20.744,-7.9862 -20.744,-17.986 l 0,-35.073 c 0,-10 9.2104,-17.986 20.744,-17.986 z"
           inkscape:connector-curvature="0"
           style="color:#000000;text-indent:0;text-transform:none;block-progression:tb;fill:#000000"
           id="path4205" />
        <g
           transform="matrix(6.0373,0,0,6.0373,-3474.6,-5298.3)"
           style="fill:url(#linearGradient4163)"
           id="g4207">
          <g
             transform="translate(-2.2397,-32.472)"
             style="fill:url(#linearGradient8634)"
             id="g4209">
            <path
               inkscape:connector-curvature="0"
               style="color:#000000;text-indent:0;text-transform:none;block-progression:tb;fill:url(#linearGradient8620)"
               d="m 621.56,982.32 0.25566,0 c 0.21477,0 0.38628,0.37117 0.38628,0.83593 l 0,1.6301 c 0,0.46476 -0.17151,0.83593 -0.38628,0.83593 l -0.25566,0 c -0.21477,0 -0.38628,-0.37117 -0.38628,-0.83593 l 0,-1.6301 c 0,-0.46476 0.17151,-0.83593 0.38628,-0.83593 z"
               sodipodi:nodetypes="sssssssss"
               id="path4211" />
            <path
               d="m 621.69,986.13 0.25566,0 c 0.21477,0 0.38628,0.37116 0.38628,0.83593 l 0,1.6301 c 0,0.46477 -0.17151,0.83594 -0.38628,0.83594 l -0.25566,0 c -0.21477,0 -0.38628,-0.37117 -0.38628,-0.83594 l 0,-1.6301 c 0,-0.46477 0.17151,-0.83593 0.38628,-0.83593 z"
               style="color:#000000;text-indent:0;text-transform:none;block-progression:tb;fill:url(#linearGradient8622)"
               inkscape:connector-curvature="0"
               sodipodi:nodetypes="sssssssss"
               id="path4213" />
            <path
               inkscape:connector-curvature="0"
               style="color:#000000;text-indent:0;text-transform:none;block-progression:tb;fill:url(#linearGradient8624)"
               d="m 627.18,986.13 0.25566,0 c 0.21477,0 0.38628,0.37116 0.38628,0.83593 l 0,1.6301 c 0,0.46477 -0.17151,0.83594 -0.38628,0.83594 l -0.25566,0 c -0.21477,0 -0.38628,-0.37117 -0.38628,-0.83594 l 0,-1.6301 c 0,-0.46477 0.17151,-0.83593 0.38628,-0.83593 z"
               sodipodi:nodetypes="sssssssss"
               id="path4215" />
            <path
               d="m 627.18,982.32 0.25566,0 c 0.21477,0 0.38628,0.37117 0.38628,0.83593 l 0,1.6301 c 0,0.46476 -0.17151,0.83593 -0.38628,0.83593 l -0.25566,0 c -0.21477,0 -0.38628,-0.37117 -0.38628,-0.83593 l 0,-1.6301 c 0,-0.46476 0.17151,-0.83593 0.38628,-0.83593 z"
               style="color:#000000;text-indent:0;text-transform:none;block-progression:tb;fill:url(#linearGradient8626)"
               inkscape:connector-curvature="0"
               sodipodi:nodetypes="sssssssss"
               id="path4217" />
            <path
               inkscape:connector-curvature="0"
               style="color:#000000;text-indent:0;text-transform:none;block-progression:tb;fill:url(#linearGradient8628)"
               d="m 626.37,981.76 0,0.25566 c 0,0.21477 -0.46238,0.38628 -1.0414,0.38628 l -2.0306,0 c -0.57898,0 -1.0414,-0.17151 -1.0414,-0.38628 l 0,-0.25566 c 0,-0.21477 0.46238,-0.38628 1.0414,-0.38628 l 2.0306,0 c 0.57898,0 1.0414,0.17151 1.0414,0.38628 z"
               sodipodi:nodetypes="sssssssss"
               id="path4219" />
            <path
               d="m 626.49,990.12 0,0.25566 c 0,0.21477 -0.46238,0.38628 -1.0414,0.38628 l -2.0306,0 c -0.57898,0 -1.0414,-0.17151 -1.0414,-0.38628 l 0,-0.25566 c 0,-0.21477 0.46238,-0.38628 1.0414,-0.38628 l 2.0306,0 c 0.57898,0 1.0414,0.17151 1.0414,0.38628 z"
               style="color:#000000;text-indent:0;text-transform:none;block-progression:tb;fill:url(#linearGradient8630)"
               inkscape:connector-curvature="0"
               sodipodi:nodetypes="sssssssss"
               id="path4221" />
            <path
               inkscape:connector-curvature="0"
               style="color:#000000;text-indent:0;text-transform:none;block-progression:tb;fill:url(#linearGradient8632)"
               d="m 626.49,985.88 0,0.25566 c 0,0.21477 -0.46238,0.38628 -1.0414,0.38628 l -2.0306,0 c -0.57898,0 -1.0414,-0.17151 -1.0414,-0.38628 l 0,-0.25566 c 0,-0.21477 0.46238,-0.38628 1.0414,-0.38628 l 2.0306,0 c 0.57898,0 1.0414,0.17151 1.0414,0.38628 z"
               sodipodi:nodetypes="sssssssss"
               id="path4223" />
          </g>
          <g
             transform="translate(6.9926,-32.472)"
             style="fill:url(#linearGradient8650)"
             id="g4225">
            <path
               d="m 621.56,982.32 0.25566,0 c 0.21477,0 0.38628,0.37117 0.38628,0.83593 l 0,1.6301 c 0,0.46476 -0.17151,0.83593 -0.38628,0.83593 l -0.25566,0 c -0.21477,0 -0.38628,-0.37117 -0.38628,-0.83593 l 0,-1.6301 c 0,-0.46476 0.17151,-0.83593 0.38628,-0.83593 z"
               style="color:#000000;text-indent:0;text-transform:none;block-progression:tb;fill:url(#linearGradient8636)"
               inkscape:connector-curvature="0"
               sodipodi:nodetypes="sssssssss"
               id="path4227" />
            <path
               inkscape:connector-curvature="0"
               style="color:#000000;text-indent:0;text-transform:none;block-progression:tb;fill:url(#linearGradient8638)"
               d="m 621.69,986.13 0.25566,0 c 0.21477,0 0.38628,0.37116 0.38628,0.83593 l 0,1.6301 c 0,0.46477 -0.17151,0.83594 -0.38628,0.83594 l -0.25566,0 c -0.21477,0 -0.38628,-0.37117 -0.38628,-0.83594 l 0,-1.6301 c 0,-0.46477 0.17151,-0.83593 0.38628,-0.83593 z"
               sodipodi:nodetypes="sssssssss"
               id="path4229" />
            <path
               d="m 627.18,986.13 0.25566,0 c 0.21477,0 0.38628,0.37116 0.38628,0.83593 l 0,1.6301 c 0,0.46477 -0.17151,0.83594 -0.38628,0.83594 l -0.25566,0 c -0.21477,0 -0.38628,-0.37117 -0.38628,-0.83594 l 0,-1.6301 c 0,-0.46477 0.17151,-0.83593 0.38628,-0.83593 z"
               style="color:#000000;text-indent:0;text-transform:none;block-progression:tb;fill:url(#linearGradient8640)"
               inkscape:connector-curvature="0"
               sodipodi:nodetypes="sssssssss"
               id="path4231" />
            <path
               inkscape:connector-curvature="0"
               style="color:#000000;text-indent:0;text-transform:none;block-progression:tb;fill:url(#linearGradient8642)"
               d="m 627.18,982.32 0.25566,0 c 0.21477,0 0.38628,0.37117 0.38628,0.83593 l 0,1.6301 c 0,0.46476 -0.17151,0.83593 -0.38628,0.83593 l -0.25566,0 c -0.21477,0 -0.38628,-0.37117 -0.38628,-0.83593 l 0,-1.6301 c 0,-0.46476 0.17151,-0.83593 0.38628,-0.83593 z"
               sodipodi:nodetypes="sssssssss"
               id="path4233" />
            <path
               d="m 626.37,981.76 0,0.25566 c 0,0.21477 -0.46238,0.38628 -1.0414,0.38628 l -2.0306,0 c -0.57898,0 -1.0414,-0.17151 -1.0414,-0.38628 l 0,-0.25566 c 0,-0.21477 0.46238,-0.38628 1.0414,-0.38628 l 2.0306,0 c 0.57898,0 1.0414,0.17151 1.0414,0.38628 z"
               style="color:#000000;text-indent:0;text-transform:none;block-progression:tb;fill:url(#linearGradient8644)"
               inkscape:connector-curvature="0"
               sodipodi:nodetypes="sssssssss"
               id="path4235" />
            <path
               inkscape:connector-curvature="0"
               style="color:#000000;text-indent:0;text-transform:none;block-progression:tb;fill:url(#linearGradient8646)"
               d="m 626.49,990.12 0,0.25566 c 0,0.21477 -0.46238,0.38628 -1.0414,0.38628 l -2.0306,0 c -0.57898,0 -1.0414,-0.17151 -1.0414,-0.38628 l 0,-0.25566 c 0,-0.21477 0.46238,-0.38628 1.0414,-0.38628 l 2.0306,0 c 0.57898,0 1.0414,0.17151 1.0414,0.38628 z"
               sodipodi:nodetypes="sssssssss"
               id="path4237" />
            <path
               d="m 626.49,985.88 0,0.25566 c 0,0.21477 -0.46238,0.38628 -1.0414,0.38628 l -2.0306,0 c -0.57898,0 -1.0414,-0.17151 -1.0414,-0.38628 l 0,-0.25566 c 0,-0.21477 0.46238,-0.38628 1.0414,-0.38628 l 2.0306,0 c 0.57898,0 1.0414,0.17151 1.0414,0.38628 z"
               style="color:#000000;text-indent:0;text-transform:none;block-progression:tb;fill:url(#linearGradient8648)"
               inkscape:connector-curvature="0"
               sodipodi:nodetypes="sssssssss"
               id="path4239" />
          </g>
          <g
             transform="translate(16.599,-32.472)"
             style="fill:url(#linearGradient8666)"
             id="g4241">
            <path
               inkscape:connector-curvature="0"
               style="color:#000000;text-indent:0;text-transform:none;block-progression:tb;fill:url(#linearGradient8652)"
               d="m 621.56,982.32 0.25566,0 c 0.21477,0 0.38628,0.37117 0.38628,0.83593 l 0,1.6301 c 0,0.46476 -0.17151,0.83593 -0.38628,0.83593 l -0.25566,0 c -0.21477,0 -0.38628,-0.37117 -0.38628,-0.83593 l 0,-1.6301 c 0,-0.46476 0.17151,-0.83593 0.38628,-0.83593 z"
               sodipodi:nodetypes="sssssssss"
               id="path4243" />
            <path
               d="m 621.69,986.13 0.25566,0 c 0.21477,0 0.38628,0.37116 0.38628,0.83593 l 0,1.6301 c 0,0.46477 -0.17151,0.83594 -0.38628,0.83594 l -0.25566,0 c -0.21477,0 -0.38628,-0.37117 -0.38628,-0.83594 l 0,-1.6301 c 0,-0.46477 0.17151,-0.83593 0.38628,-0.83593 z"
               style="color:#000000;text-indent:0;text-transform:none;block-progression:tb;fill:url(#linearGradient8654)"
               inkscape:connector-curvature="0"
               sodipodi:nodetypes="sssssssss"
               id="path4245" />
            <path
               inkscape:connector-curvature="0"
               style="color:#000000;text-indent:0;text-transform:none;block-progression:tb;fill:url(#linearGradient8656)"
               d="m 627.18,986.13 0.25566,0 c 0.21477,0 0.38628,0.37116 0.38628,0.83593 l 0,1.6301 c 0,0.46477 -0.17151,0.83594 -0.38628,0.83594 l -0.25566,0 c -0.21477,0 -0.38628,-0.37117 -0.38628,-0.83594 l 0,-1.6301 c 0,-0.46477 0.17151,-0.83593 0.38628,-0.83593 z"
               sodipodi:nodetypes="sssssssss"
               id="path4247" />
            <path
               d="m 627.18,982.32 0.25566,0 c 0.21477,0 0.38628,0.37117 0.38628,0.83593 l 0,1.6301 c 0,0.46476 -0.17151,0.83593 -0.38628,0.83593 l -0.25566,0 c -0.21477,0 -0.38628,-0.37117 -0.38628,-0.83593 l 0,-1.6301 c 0,-0.46476 0.17151,-0.83593 0.38628,-0.83593 z"
               style="color:#000000;text-indent:0;text-transform:none;block-progression:tb;fill:url(#linearGradient8658)"
               inkscape:connector-curvature="0"
               sodipodi:nodetypes="sssssssss"
               id="path4249" />
            <path
               inkscape:connector-curvature="0"
               style="color:#000000;text-indent:0;text-transform:none;block-progression:tb;fill:url(#linearGradient8660)"
               d="m 626.37,981.76 0,0.25566 c 0,0.21477 -0.46238,0.38628 -1.0414,0.38628 l -2.0306,0 c -0.57898,0 -1.0414,-0.17151 -1.0414,-0.38628 l 0,-0.25566 c 0,-0.21477 0.46238,-0.38628 1.0414,-0.38628 l 2.0306,0 c 0.57898,0 1.0414,0.17151 1.0414,0.38628 z"
               sodipodi:nodetypes="sssssssss"
               id="path4251" />
            <path
               d="m 626.49,990.12 0,0.25566 c 0,0.21477 -0.46238,0.38628 -1.0414,0.38628 l -2.0306,0 c -0.57898,0 -1.0414,-0.17151 -1.0414,-0.38628 l 0,-0.25566 c 0,-0.21477 0.46238,-0.38628 1.0414,-0.38628 l 2.0306,0 c 0.57898,0 1.0414,0.17151 1.0414,0.38628 z"
               style="color:#000000;text-indent:0;text-transform:none;block-progression:tb;fill:url(#linearGradient8662)"
               inkscape:connector-curvature="0"
               sodipodi:nodetypes="sssssssss"
               id="path4253" />
            <path
               inkscape:connector-curvature="0"
               style="color:#000000;text-indent:0;text-transform:none;block-progression:tb;fill:url(#linearGradient8664)"
               d="m 626.49,985.88 0,0.25566 c 0,0.21477 -0.46238,0.38628 -1.0414,0.38628 l -2.0306,0 c -0.57898,0 -1.0414,-0.17151 -1.0414,-0.38628 l 0,-0.25566 c 0,-0.21477 0.46238,-0.38628 1.0414,-0.38628 l 2.0306,0 c 0.57898,0 1.0414,0.17151 1.0414,0.38628 z"
               sodipodi:nodetypes="sssssssss"
               id="path4255" />
          </g>
        </g>
        <g
           transform="translate(0,20)"
           id="g4021">
          <path
             d="m 96.456,301.41 0.044,13.21 c 0,18.149 117.17,32.844 261.72,32.844 144.55,0 261.64,-14.587 261.64,-32.736 l 0.0466,-13.219 z"
             inkscape:connector-curvature="0"
             style="fill:#484848"
             sodipodi:nodetypes="ccsccc"
             id="path3246" />
          <path
             transform="translate(0,-20)"
             inkscape:connector-curvature="0"
             style="fill:url(#linearGradient4214)"
             d="m 358.22,289.28 c -144.55,0 -261.72,14.7 -261.72,32.84 0,18.15 117.17,32.88 261.72,32.88 144.55,0 261.75,-14.726 261.75,-32.875 0,-18.149 -117.2,-32.844 -261.75,-32.844 z"
             id="path3242" />
        </g>
        <path
           d="m 96.031,473.84 c -0.40055,5.9391 -0.29681,11.852 0.5,17.719 10.78,79.378 535.17,75.844 524.03,-6.1562 -0.17756,-1.3072 -0.5615,-2.6267 -0.78125,-3.9375 -0.30365,0.94555 -0.63983,1.8909 -1.0938,2.8125 -0.5744,1.1662 -1.2546,2.3098 -2.0625,3.4375 -0.80787,1.1278 -1.7479,2.2232 -2.7812,3.3125 -1.0333,1.0893 -2.1554,2.168 -3.4062,3.2188 -2.5016,2.1016 -5.4266,4.1151 -8.75,6.0625 -3.3234,1.9474 -7.0438,3.832 -11.125,5.625 -4.0812,1.793 -8.5375,3.4868 -13.312,5.125 -4.775,1.6382 -9.8766,3.2042 -15.281,4.6875 -5.4047,1.4832 -11.123,2.8908 -17.094,4.2188 -5.9704,1.328 -12.184,2.5776 -18.656,3.75 -6.472,1.1724 -13.184,2.2646 -20.094,3.2812 -6.9097,1.0166 -14.029,1.952 -21.312,2.8125 -7.2832,0.86053 -14.72,1.6396 -22.312,2.3438 -7.5928,0.70416 -15.349,1.3587 -23.188,1.9062 -7.8383,0.54752 -15.761,1.0156 -23.781,1.4062 -16.04,0.78122 -32.4,1.2231 -48.781,1.375 -16.381,0.15194 -32.789,0.0108 -49,-0.46875 -8.1054,-0.23977 -16.158,-0.5707 -24.125,-0.96875 -7.9668,-0.39805 -15.861,-0.8809 -23.625,-1.4375 -7.764,-0.5566 -15.409,-1.1908 -22.906,-1.9062 -7.4973,-0.71543 -14.833,-1.5005 -22,-2.375 -7.1665,-0.87453 -14.166,-1.8411 -20.938,-2.875 -6.7717,-1.0339 -13.312,-2.1502 -19.625,-3.3438 -6.3128,-1.1935 -12.398,-2.459 -18.188,-3.8125 -5.79,-1.3535 -11.297,-2.7988 -16.5,-4.3125 -5.2031,-1.5137 -10.104,-3.1071 -14.656,-4.7812 -4.5521,-1.6741 -8.7566,-3.4151 -12.594,-5.25 -3.8371,-1.8349 -7.2856,-3.7541 -10.344,-5.75 -3.0581,-1.9959 -5.7224,-4.0616 -7.9375,-6.2188 -1.1075,-1.0786 -2.1152,-2.1936 -3,-3.3125 -0.88477,-1.119 -1.6585,-2.2469 -2.3125,-3.4062 -0.654,-1.1594 -1.1785,-2.3314 -1.5938,-3.5312 -0.41522,-1.1998 -0.70656,-2.416 -0.875,-3.6562 -0.25225,-1.8574 -0.36857,-3.7274 -0.5,-5.5938 z"
           inkscape:connector-curvature="0"
           style="fill:#800000"
           id="path4001" />
      </g>
    </g>
    <text
       sodipodi:linespacing="125%"
       id="text9629-0"
       y="739.73047"
       x="340.40829"
       style="font-style:normal;font-weight:normal;font-size:40px;line-height:125%;font-family:sans-serif;letter-spacing:0px;word-spacing:0px;fill:#ff0000;fill-opacity:1;stroke:none;stroke-width:1px;stroke-linecap:butt;stroke-linejoin:miter;stroke-opacity:1"
       xml:space="preserve"><tspan
         style="font-size:27.5px"
         y="739.73047"
         x="340.40829"
         id="tspan9631-9"
         sodipodi:role="line">Weight</tspan></text>
    <path
       style="fill:none;fill-rule:evenodd;stroke:#000000;stroke-width:1;stroke-linecap:butt;stroke-linejoin:miter;stroke-opacity:1;stroke-miterlimit:4;stroke-dasharray:none;marker-end:url(#marker12226)"
       d="m 194.94675,537.20605 c 67.13113,-49.39037 67.13113,-48.58068 67.13113,-48.58068"
       id="path8686"
       inkscape:connector-curvature="0" />
    <text
       sodipodi:linespacing="125%"
       id="text9629-5"
       y="563.96399"
       x="93.849876"
       style="font-style:normal;font-weight:normal;font-size:40px;line-height:125%;font-family:sans-serif;letter-spacing:0px;word-spacing:0px;fill:#ff0000;fill-opacity:1;stroke:none;stroke-width:1px;stroke-linecap:butt;stroke-linejoin:miter;stroke-opacity:1"
       xml:space="preserve"><tspan
         style="font-size:27.5px"
         y="563.96399"
         x="93.849876"
         id="tspan9631-8"
         sodipodi:role="line">Hair colour</tspan></text>
    <path
       style="fill:none;fill-rule:evenodd;stroke:#000000;stroke-width:0.96545112;stroke-linecap:butt;stroke-linejoin:miter;stroke-miterlimit:4;stroke-dasharray:none;stroke-opacity:1;marker-start:url(#TriangleInL);marker-end:url(#marker10520)"
       d="m 340.67395,473.49959 c 0,225.35442 0,225.35442 0,225.35442"
       id="path10417"
       inkscape:connector-curvature="0" />
  </g>
</svg>
