<?xml version="1.0" encoding="UTF-8" standalone="no"?>
<!-- Created with Inkscape (http://www.inkscape.org/) -->

<svg
   xmlns:dc="http://purl.org/dc/elements/1.1/"
   xmlns:cc="http://creativecommons.org/ns#"
   xmlns:rdf="http://www.w3.org/1999/02/22-rdf-syntax-ns#"
   xmlns:svg="http://www.w3.org/2000/svg"
   xmlns="http://www.w3.org/2000/svg"
   xmlns:sodipodi="http://sodipodi.sourceforge.net/DTD/sodipodi-0.dtd"
   xmlns:inkscape="http://www.inkscape.org/namespaces/inkscape"
   id="svg2"
   version="1.1"
   inkscape:version="0.91 r13725"
   xml:space="preserve"
   width="630"
   height="450"
   viewBox="0 0 630 450"
   sodipodi:docname="leptokurtic_distribution.svg"><metadata
     id="metadata8"><rdf:RDF><cc:Work
         rdf:about=""><dc:format>image/svg+xml</dc:format><dc:type
           rdf:resource="http://purl.org/dc/dcmitype/StillImage" /><dc:title></dc:title></cc:Work></rdf:RDF></metadata><defs
     id="defs6"><clipPath
       clipPathUnits="userSpaceOnUse"
       id="clipPath24"><path
         d="m 0,0 0,360.00464 504.00648,0 L 504.00648,0 0,0 Z"
         id="path26"
         inkscape:connector-curvature="0" /></clipPath><clipPath
       clipPathUnits="userSpaceOnUse"
       id="clipPath80"><path
         d="m 49.01682,60.97214 0,250.01567 429.88349,0 0,-250.01567 -429.88349,0 z"
         id="path82"
         inkscape:connector-curvature="0" /></clipPath><clipPath
       clipPathUnits="userSpaceOnUse"
       id="clipPath300"><path
         d="m 0,0 0,360.00464 504.00648,0 L 504.00648,0 0,0 Z"
         id="path302"
         inkscape:connector-curvature="0" /></clipPath><clipPath
       clipPathUnits="userSpaceOnUse"
       id="clipPath412"><path
         d="m 49.01682,60.97214 0,250.01567 429.88349,0 0,-250.01567 -429.88349,0 z"
         id="path414"
         inkscape:connector-curvature="0" /></clipPath></defs><sodipodi:namedview
     pagecolor="#ffffff"
     bordercolor="#666666"
     borderopacity="1"
     objecttolerance="10"
     gridtolerance="10"
     guidetolerance="10"
     inkscape:pageopacity="0"
     inkscape:pageshadow="2"
     inkscape:window-width="1360"
     inkscape:window-height="709"
     id="namedview4"
     showgrid="false"
     inkscape:zoom="2.0977778"
     inkscape:cx="228.12674"
     inkscape:cy="321.14341"
     inkscape:window-x="0"
     inkscape:window-y="0"
     inkscape:window-maximized="1"
     inkscape:current-layer="g12" /><g
     id="g10"
     inkscape:groupmode="layer"
     inkscape:label="leptokurtic_distribution"
     transform="matrix(1.25,0,0,-1.25,0,450)"><g
       id="g12"><g
         id="g16"><path
           inkscape:connector-curvature="0"
           id="path18"
           style="fill:#ffffff;fill-opacity:0;fill-rule:nonzero;stroke:none"
           d="m 0,0 0,360.00464 504.00648,0 L 504.00648,0 0,0 Z" /></g><g
         id="g20"><g
           clip-path="url(#clipPath24)"
           id="g22"><g
             id="g28"><g
               transform="matrix(1.2,0,0,1.2,170.039,331.367)"
               id="g30"><g
                 id="g32"><g
                   transform="translate(-170.039,-331.367)"
                   id="g34"><text
                     id="text36"
                     style="font-variant:normal;font-weight:normal;font-size:9.96259975px;font-family:CMBX10;-inkscape-font-specification:CMBX10;writing-mode:lr-tb;fill:#000000;fill-opacity:1;fill-rule:nonzero;stroke:none"
                     transform="matrix(1,0,0,-1,170.039,331.367)"><tspan
                       id="tspan38"
                       sodipodi:role="line"
                       y="0"
                       x="0 6.8911304 12.142417 18.507523 22.962797 28.691292 34.737595 41.102699 45.820988 50.27626 53.458317 62.365875 68.73098 71.913033 76.432068 80.897308 85.615593 88.797653 95.162758 101.52786 105.98313 109.16519 114.89368">Leptokurticdistribution</tspan></text>
<text
                     id="text40"
                     style="font-variant:normal;font-weight:normal;font-size:9.96259975px;font-family:CMMIB10;-inkscape-font-specification:CMMIB10;writing-mode:lr-tb;fill:#000000;fill-opacity:1;fill-rule:nonzero;stroke:none"
                     transform="matrix(1,0,0,-1,295.113,331.367)"><tspan
                       id="tspan42"
                       y="0"
                       x="0">g</tspan></text>
<text
                     id="text44"
                     style="font-variant:normal;font-weight:normal;font-size:6.97380018px;font-family:CMBX7;-inkscape-font-specification:CMBX7;writing-mode:lr-tb;fill:#000000;fill-opacity:1;fill-rule:nonzero;stroke:none"
                     transform="matrix(1,0,0,-1,300.542,329.873)"><tspan
                       id="tspan46"
                       y="0"
                       x="0">2</tspan></text>
<text
                     id="text48"
                     style="font-variant:normal;font-weight:normal;font-size:9.96259975px;font-family:CMMIB10;-inkscape-font-specification:CMMIB10;writing-mode:lr-tb;fill:#000000;fill-opacity:1;fill-rule:nonzero;stroke:none"
                     transform="matrix(1,0,0,-1,308.736,331.367)"><tspan
                       id="tspan50"
                       y="0"
                       x="0">&gt;</tspan></text>
<text
                     id="text52"
                     style="font-variant:normal;font-weight:normal;font-size:9.96259975px;font-family:CMBX10;-inkscape-font-specification:CMBX10;writing-mode:lr-tb;fill:#000000;fill-opacity:1;fill-rule:nonzero;stroke:none"
                     transform="matrix(1,0,0,-1,320.829,331.367)"><tspan
                       id="tspan54"
                       y="0"
                       x="0">0</tspan></text>
<g
                     transform="translate(170.039,331.367)"
                     id="g56" /></g></g><g
                 transform="translate(-170.039,-331.367)"
                 id="g58" /></g></g><g
             id="g60"><g
               transform="matrix(0,1.2,-1.2,0,10.76,136.873)"
               id="g62"><g
                 id="g64"><g
                   transform="translate(-10.76,-136.873)"
                   id="g66"><text
                     id="text68"
                     style="font-variant:normal;font-weight:normal;font-size:9.96259975px;font-family:CMR10;-inkscape-font-specification:CMR10;writing-mode:lr-tb;fill:#000000;fill-opacity:1;fill-rule:nonzero;stroke:none"
                     transform="matrix(1,0,0,-1,10.76,136.873)"><tspan
                       id="tspan70"
                       sodipodi:role="line"
                       y="0"
                       x="0 5.6766896 9.5790396 14.006419 18.433798 23.969019 28.396399 33.931618 38.358997 41.12661 49.425453 53.327805 57.755184 60.522797 65.504097 69.378548 72.146164 76.846512">Frecuenciarelativa</tspan></text>
<g
                     transform="translate(10.76,136.873)"
                     id="g72" /></g></g><g
                 transform="translate(-10.76,-136.873)"
                 id="g74" /></g></g></g></g><g
         id="g84"><path
           inkscape:connector-curvature="0"
           id="path86"
           style="fill:#ff7f50;fill-opacity:1;fill-rule:nonzero;stroke:#000000;stroke-width:0.3985;stroke-linecap:round;stroke-linejoin:round;stroke-miterlimit:10;stroke-dasharray:none;stroke-opacity:1"
           d="m -7.87057,70.22755 0,0.95643 9.70372,0 0,-0.95643 -9.70372,0 z" /></g><g
         id="g88"><path
           inkscape:connector-curvature="0"
           id="path90"
           style="fill:#ff7f50;fill-opacity:1;fill-rule:nonzero;stroke:#000000;stroke-width:0.3985;stroke-linecap:round;stroke-linejoin:round;stroke-miterlimit:10;stroke-dasharray:none;stroke-opacity:1"
           d="m 1.83315,70.22755 0,1.25531 9.71369,0 0,-1.25531 -9.71369,0 z" /></g><g
         id="g92"><path
           inkscape:connector-curvature="0"
           id="path94"
           style="fill:#ff7f50;fill-opacity:1;fill-rule:nonzero;stroke:#000000;stroke-width:0.3985;stroke-linecap:round;stroke-linejoin:round;stroke-miterlimit:10;stroke-dasharray:none;stroke-opacity:1"
           d="m 11.54684,70.22755 0,1.54422 9.70374,0 0,-1.54422 -9.70374,0 z" /></g><g
         id="g96"><path
           inkscape:connector-curvature="0"
           id="path98"
           style="fill:#ff7f50;fill-opacity:1;fill-rule:nonzero;stroke:#000000;stroke-width:0.3985;stroke-linecap:round;stroke-linejoin:round;stroke-miterlimit:10;stroke-dasharray:none;stroke-opacity:1"
           d="m 21.25058,70.22755 0,1.55419 9.7137,0 0,-1.55419 -9.7137,0 z" /></g><g
         id="g100"><path
           inkscape:connector-curvature="0"
           id="path102"
           style="fill:#ff7f50;fill-opacity:1;fill-rule:nonzero;stroke:#000000;stroke-width:0.3985;stroke-linecap:round;stroke-linejoin:round;stroke-miterlimit:10;stroke-dasharray:none;stroke-opacity:1"
           d="m 30.96428,70.22755 0,2.04236 9.70373,0 0,-2.04236 -9.70373,0 z" /></g><g
         id="g104"><path
           inkscape:connector-curvature="0"
           id="path106"
           style="fill:#ff7f50;fill-opacity:1;fill-rule:nonzero;stroke:#000000;stroke-width:0.3985;stroke-linecap:round;stroke-linejoin:round;stroke-miterlimit:10;stroke-dasharray:none;stroke-opacity:1"
           d="m 40.66801,70.22755 0,2.38111 9.70374,0 0,-2.38111 -9.70374,0 z" /></g><g
         id="g108"><path
           inkscape:connector-curvature="0"
           id="path110"
           style="fill:#ff7f50;fill-opacity:1;fill-rule:nonzero;stroke:#000000;stroke-width:0.3985;stroke-linecap:round;stroke-linejoin:round;stroke-miterlimit:10;stroke-dasharray:none;stroke-opacity:1"
           d="m 50.37175,70.22755 0,2.98883 9.7137,0 0,-2.98883 -9.7137,0 z" /></g><g
         id="g112"><path
           inkscape:connector-curvature="0"
           id="path114"
           style="fill:#ff7f50;fill-opacity:1;fill-rule:nonzero;stroke:#000000;stroke-width:0.3985;stroke-linecap:round;stroke-linejoin:round;stroke-miterlimit:10;stroke-dasharray:none;stroke-opacity:1"
           d="m 60.08545,70.22755 0,3.37738 9.70373,0 0,-3.37738 -9.70373,0 z" /></g><g
         id="g116"><path
           inkscape:connector-curvature="0"
           id="path118"
           style="fill:#ff7f50;fill-opacity:1;fill-rule:nonzero;stroke:#000000;stroke-width:0.3985;stroke-linecap:round;stroke-linejoin:round;stroke-miterlimit:10;stroke-dasharray:none;stroke-opacity:1"
           d="m 69.78918,70.22755 0,4.34377 9.7137,0 0,-4.34377 -9.7137,0 z" /></g><g
         id="g120"><path
           inkscape:connector-curvature="0"
           id="path122"
           style="fill:#ff7f50;fill-opacity:1;fill-rule:nonzero;stroke:#000000;stroke-width:0.3985;stroke-linecap:round;stroke-linejoin:round;stroke-miterlimit:10;stroke-dasharray:none;stroke-opacity:1"
           d="m 79.50288,70.22755 0,5.30019 9.70374,0 0,-5.30019 -9.70374,0 z" /></g><g
         id="g124"><path
           inkscape:connector-curvature="0"
           id="path126"
           style="fill:#ff7f50;fill-opacity:1;fill-rule:nonzero;stroke:#000000;stroke-width:0.3985;stroke-linecap:round;stroke-linejoin:round;stroke-miterlimit:10;stroke-dasharray:none;stroke-opacity:1"
           d="m 89.20662,70.22755 0,6.44591 9.7137,0 0,-6.44591 -9.7137,0 z" /></g><g
         id="g128"><path
           inkscape:connector-curvature="0"
           id="path130"
           style="fill:#ff7f50;fill-opacity:1;fill-rule:nonzero;stroke:#000000;stroke-width:0.3985;stroke-linecap:round;stroke-linejoin:round;stroke-miterlimit:10;stroke-dasharray:none;stroke-opacity:1"
           d="m 98.92032,70.22755 0,8.20931 9.70373,0 0,-8.20931 -9.70373,0 z" /></g><g
         id="g132"><path
           inkscape:connector-curvature="0"
           id="path134"
           style="fill:#ff7f50;fill-opacity:1;fill-rule:nonzero;stroke:#000000;stroke-width:0.3985;stroke-linecap:round;stroke-linejoin:round;stroke-miterlimit:10;stroke-dasharray:none;stroke-opacity:1"
           d="m 108.62405,70.22755 0,10.13213 9.7137,0 0,-10.13213 -9.7137,0 z" /></g><g
         id="g136"><path
           inkscape:connector-curvature="0"
           id="path138"
           style="fill:#ff7f50;fill-opacity:1;fill-rule:nonzero;stroke:#000000;stroke-width:0.3985;stroke-linecap:round;stroke-linejoin:round;stroke-miterlimit:10;stroke-dasharray:none;stroke-opacity:1"
           d="m 118.33775,70.22755 0,12.87189 9.70375,0 0,-12.87189 -9.70375,0 z" /></g><g
         id="g140"><path
           inkscape:connector-curvature="0"
           id="path142"
           style="fill:#ff7f50;fill-opacity:1;fill-rule:nonzero;stroke:#000000;stroke-width:0.3985;stroke-linecap:round;stroke-linejoin:round;stroke-miterlimit:10;stroke-dasharray:none;stroke-opacity:1"
           d="m 128.0415,70.22755 0,16.11975 9.7137,0 0,-16.11975 -9.7137,0 z" /></g><g
         id="g144"><path
           inkscape:connector-curvature="0"
           id="path146"
           style="fill:#ff7f50;fill-opacity:1;fill-rule:nonzero;stroke:#000000;stroke-width:0.3985;stroke-linecap:round;stroke-linejoin:round;stroke-miterlimit:10;stroke-dasharray:none;stroke-opacity:1"
           d="m 137.7552,70.22755 0,20.88196 9.70372,0 0,-20.88196 -9.70372,0 z" /></g><g
         id="g148"><path
           inkscape:connector-curvature="0"
           id="path150"
           style="fill:#ff7f50;fill-opacity:1;fill-rule:nonzero;stroke:#000000;stroke-width:0.3985;stroke-linecap:round;stroke-linejoin:round;stroke-miterlimit:10;stroke-dasharray:none;stroke-opacity:1"
           d="m 147.45892,70.22755 0,25.91317 9.70375,0 0,-25.91317 -9.70375,0 z" /></g><g
         id="g152"><path
           inkscape:connector-curvature="0"
           id="path154"
           style="fill:#ff7f50;fill-opacity:1;fill-rule:nonzero;stroke:#000000;stroke-width:0.3985;stroke-linecap:round;stroke-linejoin:round;stroke-miterlimit:10;stroke-dasharray:none;stroke-opacity:1"
           d="m 157.16267,70.22755 0,33.83356 9.7137,0 0,-33.83356 -9.7137,0 z" /></g><g
         id="g156"><path
           inkscape:connector-curvature="0"
           id="path158"
           style="fill:#ff7f50;fill-opacity:1;fill-rule:nonzero;stroke:#000000;stroke-width:0.3985;stroke-linecap:round;stroke-linejoin:round;stroke-miterlimit:10;stroke-dasharray:none;stroke-opacity:1"
           d="m 166.87637,70.22755 0,43.46755 9.70374,0 0,-43.46755 -9.70374,0 z" /></g><g
         id="g160"><path
           inkscape:connector-curvature="0"
           id="path162"
           style="fill:#ff7f50;fill-opacity:1;fill-rule:nonzero;stroke:#000000;stroke-width:0.3985;stroke-linecap:round;stroke-linejoin:round;stroke-miterlimit:10;stroke-dasharray:none;stroke-opacity:1"
           d="m 176.58011,70.22755 0,55.75165 9.7137,0 0,-55.75165 -9.7137,0 z" /></g><g
         id="g164"><path
           inkscape:connector-curvature="0"
           id="path166"
           style="fill:#ff7f50;fill-opacity:1;fill-rule:nonzero;stroke:#000000;stroke-width:0.3985;stroke-linecap:round;stroke-linejoin:round;stroke-miterlimit:10;stroke-dasharray:none;stroke-opacity:1"
           d="m 186.29381,70.22755 0,70.54636 9.70372,0 0,-70.54636 -9.70372,0 z" /></g><g
         id="g168"><path
           inkscape:connector-curvature="0"
           id="path170"
           style="fill:#ff7f50;fill-opacity:1;fill-rule:nonzero;stroke:#000000;stroke-width:0.3985;stroke-linecap:round;stroke-linejoin:round;stroke-miterlimit:10;stroke-dasharray:none;stroke-opacity:1"
           d="m 195.99753,70.22755 0,90.03355 9.7137,0 0,-90.03355 -9.7137,0 z" /></g><g
         id="g172"><path
           inkscape:connector-curvature="0"
           id="path174"
           style="fill:#ff7f50;fill-opacity:1;fill-rule:nonzero;stroke:#000000;stroke-width:0.3985;stroke-linecap:round;stroke-linejoin:round;stroke-miterlimit:10;stroke-dasharray:none;stroke-opacity:1"
           d="m 205.71123,70.22755 0,112.12099 9.70375,0 0,-112.12099 -9.70375,0 z" /></g><g
         id="g176"><path
           inkscape:connector-curvature="0"
           id="path178"
           style="fill:#ff7f50;fill-opacity:1;fill-rule:nonzero;stroke:#000000;stroke-width:0.3985;stroke-linecap:round;stroke-linejoin:round;stroke-miterlimit:10;stroke-dasharray:none;stroke-opacity:1"
           d="m 215.41498,70.22755 0,137.25705 9.7137,0 0,-137.25705 -9.7137,0 z" /></g><g
         id="g180"><path
           inkscape:connector-curvature="0"
           id="path182"
           style="fill:#ff7f50;fill-opacity:1;fill-rule:nonzero;stroke:#000000;stroke-width:0.3985;stroke-linecap:round;stroke-linejoin:round;stroke-miterlimit:10;stroke-dasharray:none;stroke-opacity:1"
           d="m 225.12868,70.22755 0,164.0868 9.70373,0 0,-164.0868 -9.70373,0 z" /></g><g
         id="g184"><path
           inkscape:connector-curvature="0"
           id="path186"
           style="fill:#ff7f50;fill-opacity:1;fill-rule:nonzero;stroke:#000000;stroke-width:0.3985;stroke-linecap:round;stroke-linejoin:round;stroke-miterlimit:10;stroke-dasharray:none;stroke-opacity:1"
           d="m 234.83241,70.22755 0,185.64623 9.7137,0 0,-185.64623 -9.7137,0 z" /></g><g
         id="g188"><path
           inkscape:connector-curvature="0"
           id="path190"
           style="fill:#ff7f50;fill-opacity:1;fill-rule:nonzero;stroke:#000000;stroke-width:0.3985;stroke-linecap:round;stroke-linejoin:round;stroke-miterlimit:10;stroke-dasharray:none;stroke-opacity:1"
           d="m 244.54611,70.22755 0,205.62159 9.70374,0 0,-205.62159 -9.70374,0 z" /></g><g
         id="g192"><path
           inkscape:connector-curvature="0"
           id="path194"
           style="fill:#ff7f50;fill-opacity:1;fill-rule:nonzero;stroke:#000000;stroke-width:0.3985;stroke-linecap:round;stroke-linejoin:round;stroke-miterlimit:10;stroke-dasharray:none;stroke-opacity:1"
           d="m 254.24985,70.22755 0,214.33901 9.70373,0 0,-214.33901 -9.70373,0 z" /></g><g
         id="g196"><path
           inkscape:connector-curvature="0"
           id="path198"
           style="fill:#ff7f50;fill-opacity:1;fill-rule:nonzero;stroke:#000000;stroke-width:0.3985;stroke-linecap:round;stroke-linejoin:round;stroke-miterlimit:10;stroke-dasharray:none;stroke-opacity:1"
           d="m 263.95358,70.22755 0,216.43117 9.7137,0 0,-216.43117 -9.7137,0 z" /></g><g
         id="g200"><path
           inkscape:connector-curvature="0"
           id="path202"
           style="fill:#ff7f50;fill-opacity:1;fill-rule:nonzero;stroke:#000000;stroke-width:0.3985;stroke-linecap:round;stroke-linejoin:round;stroke-miterlimit:10;stroke-dasharray:none;stroke-opacity:1"
           d="m 273.66728,70.22755 0,204.84449 9.70374,0 0,-204.84449 -9.70374,0 z" /></g><g
         id="g204"><path
           inkscape:connector-curvature="0"
           id="path206"
           style="fill:#ff7f50;fill-opacity:1;fill-rule:nonzero;stroke:#000000;stroke-width:0.3985;stroke-linecap:round;stroke-linejoin:round;stroke-miterlimit:10;stroke-dasharray:none;stroke-opacity:1"
           d="m 283.37102,70.22755 0,186.19419 9.7137,0 0,-186.19419 -9.7137,0 z" /></g><g
         id="g208"><path
           inkscape:connector-curvature="0"
           id="path210"
           style="fill:#ff7f50;fill-opacity:1;fill-rule:nonzero;stroke:#000000;stroke-width:0.3985;stroke-linecap:round;stroke-linejoin:round;stroke-miterlimit:10;stroke-dasharray:none;stroke-opacity:1"
           d="m 293.08472,70.22755 0,162.51268 9.70373,0 0,-162.51268 -9.70373,0 z" /></g><g
         id="g212"><path
           inkscape:connector-curvature="0"
           id="path214"
           style="fill:#ff7f50;fill-opacity:1;fill-rule:nonzero;stroke:#000000;stroke-width:0.3985;stroke-linecap:round;stroke-linejoin:round;stroke-miterlimit:10;stroke-dasharray:none;stroke-opacity:1"
           d="m 302.78845,70.22755 0,136.98807 9.7137,0 0,-136.98807 -9.7137,0 z" /></g><g
         id="g216"><path
           inkscape:connector-curvature="0"
           id="path218"
           style="fill:#ff7f50;fill-opacity:1;fill-rule:nonzero;stroke:#000000;stroke-width:0.3985;stroke-linecap:round;stroke-linejoin:round;stroke-miterlimit:10;stroke-dasharray:none;stroke-opacity:1"
           d="m 312.50215,70.22755 0,111.97156 9.70374,0 0,-111.97156 -9.70374,0 z" /></g><g
         id="g220"><path
           inkscape:connector-curvature="0"
           id="path222"
           style="fill:#ff7f50;fill-opacity:1;fill-rule:nonzero;stroke:#000000;stroke-width:0.3985;stroke-linecap:round;stroke-linejoin:round;stroke-miterlimit:10;stroke-dasharray:none;stroke-opacity:1"
           d="m 322.20589,70.22755 0,90.45197 9.7137,0 0,-90.45197 -9.7137,0 z" /></g><g
         id="g224"><path
           inkscape:connector-curvature="0"
           id="path226"
           style="fill:#ff7f50;fill-opacity:1;fill-rule:nonzero;stroke:#000000;stroke-width:0.3985;stroke-linecap:round;stroke-linejoin:round;stroke-miterlimit:10;stroke-dasharray:none;stroke-opacity:1"
           d="m 331.91959,70.22755 0,71.78175 9.70373,0 0,-71.78175 -9.70373,0 z" /></g><g
         id="g228"><path
           inkscape:connector-curvature="0"
           id="path230"
           style="fill:#ff7f50;fill-opacity:1;fill-rule:nonzero;stroke:#000000;stroke-width:0.3985;stroke-linecap:round;stroke-linejoin:round;stroke-miterlimit:10;stroke-dasharray:none;stroke-opacity:1"
           d="m 341.62332,70.22755 0,55.7118 9.7137,0 0,-55.7118 -9.7137,0 z" /></g><g
         id="g232"><path
           inkscape:connector-curvature="0"
           id="path234"
           style="fill:#ff7f50;fill-opacity:1;fill-rule:nonzero;stroke:#000000;stroke-width:0.3985;stroke-linecap:round;stroke-linejoin:round;stroke-miterlimit:10;stroke-dasharray:none;stroke-opacity:1"
           d="m 351.33702,70.22755 0,43.58712 9.70374,0 0,-43.58712 -9.70374,0 z" /></g><g
         id="g236"><path
           inkscape:connector-curvature="0"
           id="path238"
           style="fill:#ff7f50;fill-opacity:1;fill-rule:nonzero;stroke:#000000;stroke-width:0.3985;stroke-linecap:round;stroke-linejoin:round;stroke-miterlimit:10;stroke-dasharray:none;stroke-opacity:1"
           d="m 361.04076,70.22755 0,33.77378 9.7137,0 0,-33.77378 -9.7137,0 z" /></g><g
         id="g240"><path
           inkscape:connector-curvature="0"
           id="path242"
           style="fill:#ff7f50;fill-opacity:1;fill-rule:nonzero;stroke:#000000;stroke-width:0.3985;stroke-linecap:round;stroke-linejoin:round;stroke-miterlimit:10;stroke-dasharray:none;stroke-opacity:1"
           d="m 370.75446,70.22755 0,26.31167 9.70374,0 0,-26.31167 -9.70374,0 z" /></g><g
         id="g244"><path
           inkscape:connector-curvature="0"
           id="path246"
           style="fill:#ff7f50;fill-opacity:1;fill-rule:nonzero;stroke:#000000;stroke-width:0.3985;stroke-linecap:round;stroke-linejoin:round;stroke-miterlimit:10;stroke-dasharray:none;stroke-opacity:1"
           d="m 380.4582,70.22755 0,20.76241 9.70373,0 0,-20.76241 -9.70373,0 z" /></g><g
         id="g248"><path
           inkscape:connector-curvature="0"
           id="path250"
           style="fill:#ff7f50;fill-opacity:1;fill-rule:nonzero;stroke:#000000;stroke-width:0.3985;stroke-linecap:round;stroke-linejoin:round;stroke-miterlimit:10;stroke-dasharray:none;stroke-opacity:1"
           d="m 390.16193,70.22755 0,16.23931 9.7137,0 0,-16.23931 -9.7137,0 z" /></g><g
         id="g252"><path
           inkscape:connector-curvature="0"
           id="path254"
           style="fill:#ff7f50;fill-opacity:1;fill-rule:nonzero;stroke:#000000;stroke-width:0.3985;stroke-linecap:round;stroke-linejoin:round;stroke-miterlimit:10;stroke-dasharray:none;stroke-opacity:1"
           d="m 399.87563,70.22755 0,12.83204 9.70375,0 0,-12.83204 -9.70375,0 z" /></g><g
         id="g256"><path
           inkscape:connector-curvature="0"
           id="path258"
           style="fill:#ff7f50;fill-opacity:1;fill-rule:nonzero;stroke:#000000;stroke-width:0.3985;stroke-linecap:round;stroke-linejoin:round;stroke-miterlimit:10;stroke-dasharray:none;stroke-opacity:1"
           d="m 409.57938,70.22755 0,10.04247 9.7137,0 0,-10.04247 -9.7137,0 z" /></g><g
         id="g260"><path
           inkscape:connector-curvature="0"
           id="path262"
           style="fill:#ff7f50;fill-opacity:1;fill-rule:nonzero;stroke:#000000;stroke-width:0.3985;stroke-linecap:round;stroke-linejoin:round;stroke-miterlimit:10;stroke-dasharray:none;stroke-opacity:1"
           d="m 419.29308,70.22755 0,8.04992 9.70373,0 0,-8.04992 -9.70373,0 z" /></g><g
         id="g264"><path
           inkscape:connector-curvature="0"
           id="path266"
           style="fill:#ff7f50;fill-opacity:1;fill-rule:nonzero;stroke:#000000;stroke-width:0.3985;stroke-linecap:round;stroke-linejoin:round;stroke-miterlimit:10;stroke-dasharray:none;stroke-opacity:1"
           d="m 428.99681,70.22755 0,6.54554 9.7137,0 0,-6.54554 -9.7137,0 z" /></g><g
         id="g268"><path
           inkscape:connector-curvature="0"
           id="path270"
           style="fill:#ff7f50;fill-opacity:1;fill-rule:nonzero;stroke:#000000;stroke-width:0.3985;stroke-linecap:round;stroke-linejoin:round;stroke-miterlimit:10;stroke-dasharray:none;stroke-opacity:1"
           d="m 438.71051,70.22755 0,5.23046 9.70374,0 0,-5.23046 -9.70374,0 z" /></g><g
         id="g272"><path
           inkscape:connector-curvature="0"
           id="path274"
           style="fill:#ff7f50;fill-opacity:1;fill-rule:nonzero;stroke:#000000;stroke-width:0.3985;stroke-linecap:round;stroke-linejoin:round;stroke-miterlimit:10;stroke-dasharray:none;stroke-opacity:1"
           d="m 448.41425,70.22755 0,4.27402 9.71369,0 0,-4.27402 -9.71369,0 z" /></g><g
         id="g276"><path
           inkscape:connector-curvature="0"
           id="path278"
           style="fill:#ff7f50;fill-opacity:1;fill-rule:nonzero;stroke:#000000;stroke-width:0.3985;stroke-linecap:round;stroke-linejoin:round;stroke-miterlimit:10;stroke-dasharray:none;stroke-opacity:1"
           d="m 458.12794,70.22755 0,3.46705 9.70374,0 0,-3.46705 -9.70374,0 z" /></g><g
         id="g280"><path
           inkscape:connector-curvature="0"
           id="path282"
           style="fill:#ff7f50;fill-opacity:1;fill-rule:nonzero;stroke:#000000;stroke-width:0.3985;stroke-linecap:round;stroke-linejoin:round;stroke-miterlimit:10;stroke-dasharray:none;stroke-opacity:1"
           d="m 467.83168,70.22755 0,2.69991 9.7137,0 0,-2.69991 -9.7137,0 z" /></g><g
         id="g284"><path
           inkscape:connector-curvature="0"
           id="path286"
           style="fill:#ff7f50;fill-opacity:1;fill-rule:nonzero;stroke:#000000;stroke-width:0.3985;stroke-linecap:round;stroke-linejoin:round;stroke-miterlimit:10;stroke-dasharray:none;stroke-opacity:1"
           d="m 477.54538,70.22755 0,2.47077 9.70373,0 0,-2.47077 -9.70373,0 z" /></g><g
         id="g288"><path
           inkscape:connector-curvature="0"
           id="path290"
           style="fill:#ff7f50;fill-opacity:1;fill-rule:nonzero;stroke:#000000;stroke-width:0.3985;stroke-linecap:round;stroke-linejoin:round;stroke-miterlimit:10;stroke-dasharray:none;stroke-opacity:1"
           d="m 487.24911,70.22755 0,1.9527 9.70374,0 0,-1.9527 -9.70374,0 z" /></g><g
         id="g292"><path
           inkscape:connector-curvature="0"
           id="path294"
           style="fill:#ff7f50;fill-opacity:1;fill-rule:nonzero;stroke:#000000;stroke-width:0.3985;stroke-linecap:round;stroke-linejoin:round;stroke-miterlimit:10;stroke-dasharray:none;stroke-opacity:1"
           d="m 496.95285,70.22755 0,1.64385 9.7137,0 0,-1.64385 -9.7137,0 z" /></g><g
         id="g296"><g
           clip-path="url(#clipPath300)"
           id="g298"><g
             id="g304"><path
               inkscape:connector-curvature="0"
               id="path306"
               style="fill:none;stroke:#000000;stroke-width:0.3985;stroke-linecap:round;stroke-linejoin:round;stroke-miterlimit:10;stroke-dasharray:none;stroke-opacity:1"
               d="m 49.01682,70.22755 0,231.50485" /></g><g
             id="g308"><path
               inkscape:connector-curvature="0"
               id="path310"
               style="fill:none;stroke:#000000;stroke-width:0.3985;stroke-linecap:round;stroke-linejoin:round;stroke-miterlimit:10;stroke-dasharray:none;stroke-opacity:1"
               d="m 49.01682,70.22755 -5.97767,0" /></g><g
             id="g312"><path
               inkscape:connector-curvature="0"
               id="path314"
               style="fill:none;stroke:#000000;stroke-width:0.3985;stroke-linecap:round;stroke-linejoin:round;stroke-miterlimit:10;stroke-dasharray:none;stroke-opacity:1"
               d="m 49.01682,128.10127 -5.97767,0" /></g><g
             id="g316"><path
               inkscape:connector-curvature="0"
               id="path318"
               style="fill:none;stroke:#000000;stroke-width:0.3985;stroke-linecap:round;stroke-linejoin:round;stroke-miterlimit:10;stroke-dasharray:none;stroke-opacity:1"
               d="m 49.01682,185.97499 -5.97767,0" /></g><g
             id="g320"><path
               inkscape:connector-curvature="0"
               id="path322"
               style="fill:none;stroke:#000000;stroke-width:0.3985;stroke-linecap:round;stroke-linejoin:round;stroke-miterlimit:10;stroke-dasharray:none;stroke-opacity:1"
               d="m 49.01682,243.85869 -5.97767,0" /></g><g
             id="g324"><path
               inkscape:connector-curvature="0"
               id="path326"
               style="fill:none;stroke:#000000;stroke-width:0.3985;stroke-linecap:round;stroke-linejoin:round;stroke-miterlimit:10;stroke-dasharray:none;stroke-opacity:1"
               d="m 49.01682,301.7324 -5.97767,0" /></g><g
             id="g328"><g
               transform="matrix(0,1,-1,0,34.67,63.862)"
               id="g330"><g
                 id="g332"><g
                   transform="translate(-34.67,-63.862)"
                   id="g334"><text
                     id="text336"
                     style="font-variant:normal;font-weight:normal;font-size:9.96259975px;font-family:CMR10;-inkscape-font-specification:CMR10;writing-mode:lr-tb;fill:#000000;fill-opacity:1;fill-rule:nonzero;stroke:none"
                     transform="matrix(1,0,0,-1,34.67,63.862)"><tspan
                       id="tspan338"
                       sodipodi:role="line"
                       y="0"
                       x="0 4.9812999 7.7489104">0.0</tspan></text>
<g
                     transform="translate(34.67,63.862)"
                     id="g340" /></g></g><g
                 transform="translate(-34.67,-63.862)"
                 id="g342" /></g></g><g
             id="g344"><g
               transform="matrix(0,1,-1,0,34.67,121.735)"
               id="g346"><g
                 id="g348"><g
                   transform="translate(-34.67,-121.735)"
                   id="g350"><text
                     id="text352"
                     style="font-variant:normal;font-weight:normal;font-size:9.96259975px;font-family:CMR10;-inkscape-font-specification:CMR10;writing-mode:lr-tb;fill:#000000;fill-opacity:1;fill-rule:nonzero;stroke:none"
                     transform="matrix(1,0,0,-1,34.67,121.735)"><tspan
                       id="tspan354"
                       sodipodi:role="line"
                       y="0"
                       x="0 4.9812999 7.7489104">0.1</tspan></text>
<g
                     transform="translate(34.67,121.735)"
                     id="g356" /></g></g><g
                 transform="translate(-34.67,-121.735)"
                 id="g358" /></g></g><g
             id="g360"><g
               transform="matrix(0,1,-1,0,34.67,179.608)"
               id="g362"><g
                 id="g364"><g
                   transform="translate(-34.67,-179.608)"
                   id="g366"><text
                     id="text368"
                     style="font-variant:normal;font-weight:normal;font-size:9.96259975px;font-family:CMR10;-inkscape-font-specification:CMR10;writing-mode:lr-tb;fill:#000000;fill-opacity:1;fill-rule:nonzero;stroke:none"
                     transform="matrix(1,0,0,-1,34.67,179.608)"><tspan
                       id="tspan370"
                       sodipodi:role="line"
                       y="0"
                       x="0 4.9812999 7.7489104">0.2</tspan></text>
<g
                     transform="translate(34.67,179.608)"
                     id="g372" /></g></g><g
                 transform="translate(-34.67,-179.608)"
                 id="g374" /></g></g><g
             id="g376"><g
               transform="matrix(0,1,-1,0,34.67,237.491)"
               id="g378"><g
                 id="g380"><g
                   transform="translate(-34.67,-237.491)"
                   id="g382"><text
                     id="text384"
                     style="font-variant:normal;font-weight:normal;font-size:9.96259975px;font-family:CMR10;-inkscape-font-specification:CMR10;writing-mode:lr-tb;fill:#000000;fill-opacity:1;fill-rule:nonzero;stroke:none"
                     transform="matrix(1,0,0,-1,34.67,237.491)"><tspan
                       id="tspan386"
                       sodipodi:role="line"
                       y="0"
                       x="0 4.9812999 7.7489104">0.3</tspan></text>
<g
                     transform="translate(34.67,237.491)"
                     id="g388" /></g></g><g
                 transform="translate(-34.67,-237.491)"
                 id="g390" /></g></g><g
             id="g392"><g
               transform="matrix(0,1,-1,0,34.67,295.364)"
               id="g394"><g
                 id="g396"><g
                   transform="translate(-34.67,-295.364)"
                   id="g398"><text
                     id="text400"
                     style="font-variant:normal;font-weight:normal;font-size:9.96259975px;font-family:CMR10;-inkscape-font-specification:CMR10;writing-mode:lr-tb;fill:#000000;fill-opacity:1;fill-rule:nonzero;stroke:none"
                     transform="matrix(1,0,0,-1,34.67,295.364)"><tspan
                       id="tspan402"
                       sodipodi:role="line"
                       y="0"
                       x="0 4.9812999 7.7489104">0.4</tspan></text>
<g
                     transform="translate(34.67,295.364)"
                     id="g404" /></g></g><g
                 transform="translate(-34.67,-295.364)"
                 id="g406" /></g></g></g></g><g
         id="g408"><g
           clip-path="url(#clipPath412)"
           id="g410"><g
             id="g416"><path
               inkscape:connector-curvature="0"
               id="path418"
               style="fill:none;stroke:#4169e1;stroke-width:0.79701;stroke-linecap:round;stroke-linejoin:round;stroke-miterlimit:10;stroke-dasharray:none;stroke-opacity:1"
               d="m 64.93732,72.67839 3.9851,0.43835 3.97515,0.50811 3.98511,0.58781 3.97514,0.67746 3.98511,0.76714 3.97514,0.87672 3.98511,0.99628 3.97514,1.11583 3.98511,1.26527 3.97516,1.40474 3.98511,1.57413 3.97512,1.75345 3.98511,1.93277 3.97516,2.13203 3.98511,2.35122 3.9851,2.56043 3.97515,2.78958 3.9851,3.01871 3.97515,3.25783 3.9851,3.5069 3.97515,3.746 3.98511,3.99507 3.97514,4.23418 3.9851,4.46331 3.97515,4.69246 3.98511,4.90169 3.97514,5.10094 3.98511,5.2703 3.97514,5.42971 3.98511,5.54926 3.97514,5.63893 3.98511,5.71862 3.98511,5.73856 3.97516,5.72859 3.9851,5.67877 3.97513,5.58912 3.98511,5.44964 3.97516,5.27031 3.98511,5.05112 3.97514,4.79208 3.98511,4.4733 3.97512,4.13454 3.98511,3.746 3.97516,3.31761 3.98511,2.86926 3.97514,2.39108 3.98511,1.87299 3.97514,1.36491 3.98511,0.81694 3.97514,0.269 3.98511,-0.269 3.98511,-0.81694 3.97514,-1.36491 3.98511,-1.87299 3.97514,-2.39108 3.98511,-2.86926 3.97514,-3.31761 3.98511,-3.746 3.97515,-4.13454 3.9851,-4.4733 3.97514,-4.79208 3.98511,-5.05112 3.97516,-5.27031 3.98511,-5.44964 3.97513,-5.58912 3.9851,-5.67877 3.97516,-5.72859 3.98511,-5.73856 3.98511,-5.71862 3.97514,-5.63893 3.98511,-5.54926 3.97514,-5.42971 3.98511,-5.2703 3.97514,-5.10094 3.98511,-4.90169 3.97514,-4.69246 3.98511,-4.46331 3.97514,-4.23418 3.98511,-3.99507 3.97514,-3.746 3.98511,-3.5069 3.97515,-3.25783 3.9851,-3.01871 3.97515,-2.78958 3.9851,-2.56043 3.97517,-2.35122 3.9851,-2.13203 3.9851,-1.93277 3.97514,-1.75345 3.9851,-1.57413 3.97516,-1.40474 3.98511,-1.26527 3.97514,-1.11583 3.98511,-0.99628 3.97513,-0.87672 3.98511,-0.76714 3.97515,-0.67746 3.98511,-0.58781 3.97514,-0.50811 3.98511,-0.43835" /></g></g></g></g></g></svg>